NotoAmalgamated-CondensedExtraBlack.ufo
<glyph name="exclam" format="2">
  <advance width="371"/>
  <unicode hex="0021"/>
  <outline>
    <contour>
      <point x="102" y="714" type="line"/>
      <point x="126" y="252" type="line"/>
      <point x="266" y="252" type="line"/>
      <point x="289" y="714" type="line"/>
    </contour>
    <contour>
      <point x="103" y="81" type="curve"/>
      <point x="103" y="81" type="line"/>
      <point x="103" y="22"/>
      <point x="139" y="-12"/>
      <point x="196" y="-12" type="curve"/>
      <point x="252" y="-12"/>
      <point x="286" y="22"/>
      <point x="286" y="81" type="curve"/>
      <point x="286" y="141"/>
      <point x="254" y="175"/>
      <point x="196" y="175" type="curve"/>
      <point x="135" y="175"/>
      <point x="103" y="141"/>
    </contour>
  </outline>
</glyph>
<glyph name="exclam.sans" format="2">
  <advance width="371"/>
  <unicode hex="0021"/>
  <outline>
    <contour>
      <point x="102" y="807" type="line"/>
      <point x="126" y="345" type="line"/>
      <point x="266" y="345" type="line"/>
      <point x="289" y="807" type="line"/>
    </contour>
    <contour>
      <point x="103" y="174" type="curve"/>
      <point x="103" y="174" type="line"/>
      <point x="103" y="115"/>
      <point x="139" y="81"/>
      <point x="196" y="81" type="curve"/>
      <point x="252" y="81"/>
      <point x="286" y="115"/>
      <point x="286" y="174" type="curve"/>
      <point x="286" y="234"/>
      <point x="254" y="268"/>
      <point x="196" y="268" type="curve"/>
      <point x="135" y="268"/>
      <point x="103" y="234"/>
    </contour>
  </outline>
</glyph>
<glyph name="quotedbl" format="2">
  <advance width="545"/>
  <unicode hex="0022"/>
  <outline>
    <contour>
      <point x="89" y="729" type="line"/>
      <point x="109" y="471" type="line"/>
      <point x="239" y="471" type="line"/>
      <point x="259" y="729" type="line"/>
    </contour>
    <contour>
      <point x="302" y="729" type="line"/>
      <point x="322" y="471" type="line"/>
      <point x="452" y="471" type="line"/>
      <point x="472" y="729" type="line"/>
    </contour>
  </outline>
</glyph>
<glyph name="quotedbl.sans" format="2">
  <advance width="545"/>
  <unicode hex="0022"/>
  <outline>
    <contour>
      <point x="89" y="822" type="line"/>
      <point x="109" y="564" type="line"/>
      <point x="239" y="564" type="line"/>
      <point x="259" y="822" type="line"/>
    </contour>
    <contour>
      <point x="302" y="822" type="line"/>
      <point x="322" y="564" type="line"/>
      <point x="452" y="564" type="line"/>
      <point x="472" y="822" type="line"/>
    </contour>
  </outline>
</glyph>
<glyph name="numbersign" format="2">
  <advance width="524"/>
  <unicode hex="0023"/>
  <outline>
    <contour>
      <point x="32" y="154" type="line"/>
      <point x="97" y="154" type="line"/>
      <point x="76" y="0" type="line"/>
      <point x="192" y="0" type="line"/>
      <point x="213" y="154" type="line"/>
      <point x="269" y="154" type="line"/>
      <point x="249" y="0" type="line"/>
      <point x="365" y="0" type="line"/>
      <point x="384" y="154" type="line"/>
      <point x="470" y="154" type="line"/>
      <point x="470" y="270" type="line"/>
      <point x="401" y="270" type="line"/>
      <point x="412" y="368" type="line"/>
      <point x="492" y="368" type="line"/>
      <point x="492" y="484" type="line"/>
      <point x="429" y="484" type="line"/>
      <point x="448" y="632" type="line"/>
      <point x="332" y="632" type="line"/>
      <point x="312" y="484" type="line"/>
      <point x="257" y="484" type="line"/>
      <point x="276" y="632" type="line"/>
      <point x="160" y="632" type="line"/>
      <point x="141" y="484" type="line"/>
      <point x="54" y="484" type="line"/>
      <point x="54" y="368" type="line"/>
      <point x="124" y="368" type="line"/>
      <point x="112" y="270" type="line"/>
      <point x="32" y="270" type="line"/>
    </contour>
    <contour>
      <point x="299" y="370" type="line"/>
      <point x="286" y="268" type="line"/>
      <point x="224" y="268" type="line"/>
      <point x="237" y="370" type="line"/>
    </contour>
  </outline>
</glyph>
<glyph name="numbersign.sans" format="2">
  <advance width="524"/>
  <unicode hex="0023"/>
  <outline>
    <contour>
      <point x="32" y="247" type="line"/>
      <point x="97" y="247" type="line"/>
      <point x="76" y="93" type="line"/>
      <point x="192" y="93" type="line"/>
      <point x="213" y="247" type="line"/>
      <point x="269" y="247" type="line"/>
      <point x="249" y="93" type="line"/>
      <point x="365" y="93" type="line"/>
      <point x="384" y="247" type="line"/>
      <point x="470" y="247" type="line"/>
      <point x="470" y="363" type="line"/>
      <point x="401" y="363" type="line"/>
      <point x="412" y="461" type="line"/>
      <point x="492" y="461" type="line"/>
      <point x="492" y="577" type="line"/>
      <point x="429" y="577" type="line"/>
      <point x="448" y="725" type="line"/>
      <point x="332" y="725" type="line"/>
      <point x="312" y="577" type="line"/>
      <point x="257" y="577" type="line"/>
      <point x="276" y="725" type="line"/>
      <point x="160" y="725" type="line"/>
      <point x="141" y="577" type="line"/>
      <point x="54" y="577" type="line"/>
      <point x="54" y="461" type="line"/>
      <point x="124" y="461" type="line"/>
      <point x="112" y="363" type="line"/>
      <point x="32" y="363" type="line"/>
    </contour>
    <contour>
      <point x="299" y="463" type="line"/>
      <point x="286" y="361" type="line"/>
      <point x="224" y="361" type="line"/>
      <point x="237" y="463" type="line"/>
    </contour>
  </outline>
</glyph>
<glyph name="percent" format="2">
  <advance width="830"/>
  <unicode hex="0025"/>
  <outline>
    <contour>
      <point x="662" y="622" type="line"/>
      <point x="536" y="622" type="line"/>
      <point x="168" y="0" type="line"/>
      <point x="294" y="0" type="line"/>
    </contour>
    <contour>
      <point x="200" y="260" type="curve"/>
      <point x="200" y="260" type="line"/>
      <point x="301" y="260"/>
      <point x="361" y="326"/>
      <point x="361" y="447" type="curve"/>
      <point x="361" y="572"/>
      <point x="298" y="632"/>
      <point x="202" y="632" type="curve"/>
      <point x="109" y="632"/>
      <point x="43" y="570"/>
      <point x="43" y="447" type="curve"/>
      <point x="43" y="319"/>
      <point x="110" y="260"/>
    </contour>
    <contour>
      <point x="203" y="375" type="curve"/>
      <point x="203" y="375" type="line"/>
      <point x="179" y="375"/>
      <point x="175" y="402"/>
      <point x="175" y="446" type="curve"/>
      <point x="175" y="490"/>
      <point x="179" y="517"/>
      <point x="203" y="517" type="curve"/>
      <point x="225" y="517"/>
      <point x="229" y="490"/>
      <point x="229" y="446" type="curve"/>
      <point x="229" y="402"/>
      <point x="225" y="375"/>
    </contour>
    <contour>
      <point x="628" y="-10" type="curve"/>
      <point x="628" y="-10" type="line"/>
      <point x="721" y="-10"/>
      <point x="787" y="52"/>
      <point x="787" y="175" type="curve"/>
      <point x="787" y="303"/>
      <point x="720" y="362"/>
      <point x="630" y="362" type="curve"/>
      <point x="529" y="362"/>
      <point x="469" y="296"/>
      <point x="469" y="175" type="curve"/>
      <point x="469" y="50"/>
      <point x="532" y="-10"/>
    </contour>
    <contour>
      <point x="627" y="105" type="curve"/>
      <point x="627" y="105" type="line"/>
      <point x="605" y="105"/>
      <point x="601" y="132"/>
      <point x="601" y="176" type="curve"/>
      <point x="601" y="220"/>
      <point x="605" y="247"/>
      <point x="627" y="247" type="curve"/>
      <point x="651" y="247"/>
      <point x="655" y="220"/>
      <point x="655" y="176" type="curve"/>
      <point x="655" y="132"/>
      <point x="651" y="105"/>
    </contour>
  </outline>
</glyph>
<glyph name="percent.sans" format="2">
  <advance width="830"/>
  <unicode hex="0025"/>
  <outline>
    <contour>
      <point x="662" y="715" type="line"/>
      <point x="536" y="715" type="line"/>
      <point x="168" y="93" type="line"/>
      <point x="294" y="93" type="line"/>
    </contour>
    <contour>
      <point x="200" y="353" type="curve"/>
      <point x="200" y="353" type="line"/>
      <point x="301" y="353"/>
      <point x="361" y="419"/>
      <point x="361" y="540" type="curve"/>
      <point x="361" y="665"/>
      <point x="298" y="725"/>
      <point x="202" y="725" type="curve"/>
      <point x="109" y="725"/>
      <point x="43" y="663"/>
      <point x="43" y="540" type="curve"/>
      <point x="43" y="412"/>
      <point x="110" y="353"/>
    </contour>
    <contour>
      <point x="203" y="468" type="curve"/>
      <point x="203" y="468" type="line"/>
      <point x="179" y="468"/>
      <point x="175" y="495"/>
      <point x="175" y="539" type="curve"/>
      <point x="175" y="583"/>
      <point x="179" y="610"/>
      <point x="203" y="610" type="curve"/>
      <point x="225" y="610"/>
      <point x="229" y="583"/>
      <point x="229" y="539" type="curve"/>
      <point x="229" y="495"/>
      <point x="225" y="468"/>
    </contour>
    <contour>
      <point x="628" y="83" type="curve"/>
      <point x="628" y="83" type="line"/>
      <point x="721" y="83"/>
      <point x="787" y="145"/>
      <point x="787" y="268" type="curve"/>
      <point x="787" y="396"/>
      <point x="720" y="455"/>
      <point x="630" y="455" type="curve"/>
      <point x="529" y="455"/>
      <point x="469" y="389"/>
      <point x="469" y="268" type="curve"/>
      <point x="469" y="143"/>
      <point x="532" y="83"/>
    </contour>
    <contour>
      <point x="627" y="198" type="curve"/>
      <point x="627" y="198" type="line"/>
      <point x="605" y="198"/>
      <point x="601" y="225"/>
      <point x="601" y="269" type="curve"/>
      <point x="601" y="313"/>
      <point x="605" y="340"/>
      <point x="627" y="340" type="curve"/>
      <point x="651" y="340"/>
      <point x="655" y="313"/>
      <point x="655" y="269" type="curve"/>
      <point x="655" y="225"/>
      <point x="651" y="198"/>
    </contour>
  </outline>
</glyph>
<glyph name="quotesingle" format="2">
  <advance width="332"/>
  <unicode hex="0027"/>
  <outline>
    <contour>
      <point x="89" y="729" type="line"/>
      <point x="109" y="471" type="line"/>
      <point x="239" y="471" type="line"/>
      <point x="259" y="729" type="line"/>
    </contour>
  </outline>
</glyph>
<glyph name="quotesingle.sans" format="2">
  <advance width="332"/>
  <unicode hex="0027"/>
  <outline>
    <contour>
      <point x="89" y="822" type="line"/>
      <point x="109" y="564" type="line"/>
      <point x="239" y="564" type="line"/>
      <point x="259" y="822" type="line"/>
    </contour>
  </outline>
</glyph>
<glyph name="parenleft" format="2">
  <advance width="358"/>
  <unicode hex="0028"/>
  <outline>
    <contour>
      <point x="167" y="-165" type="curve"/>
      <point x="167" y="-165" type="line"/>
      <point x="307" y="-165" type="line"/>
      <point x="240" y="-26"/>
      <point x="205" y="152"/>
      <point x="205" y="330" type="curve"/>
      <point x="205" y="515"/>
      <point x="240" y="693"/>
      <point x="308" y="832" type="curve"/>
      <point x="167" y="832" type="line"/>
      <point x="96" y="699"/>
      <point x="57" y="519"/>
      <point x="57" y="332" type="curve"/>
      <point x="57" y="148"/>
      <point x="96" y="-32"/>
    </contour>
  </outline>
</glyph>
<glyph name="parenleft.sans" format="2">
  <advance width="358"/>
  <unicode hex="0028"/>
  <outline>
    <contour>
      <point x="167" y="-72" type="curve"/>
      <point x="167" y="-72" type="line"/>
      <point x="307" y="-72" type="line"/>
      <point x="240" y="67"/>
      <point x="205" y="245"/>
      <point x="205" y="423" type="curve"/>
      <point x="205" y="608"/>
      <point x="240" y="786"/>
      <point x="308" y="925" type="curve"/>
      <point x="167" y="925" type="line"/>
      <point x="96" y="792"/>
      <point x="57" y="612"/>
      <point x="57" y="425" type="curve"/>
      <point x="57" y="241"/>
      <point x="96" y="61"/>
    </contour>
  </outline>
</glyph>
<glyph name="parenright" format="2">
  <advance width="358"/>
  <unicode hex="0029"/>
  <outline>
    <contour>
      <point x="50" y="-165" type="curve"/>
      <point x="50" y="-165" type="line"/>
      <point x="191" y="-165" type="line"/>
      <point x="262" y="-32"/>
      <point x="301" y="148"/>
      <point x="301" y="335" type="curve"/>
      <point x="301" y="519"/>
      <point x="262" y="699"/>
      <point x="191" y="832" type="curve"/>
      <point x="51" y="832" type="line"/>
      <point x="118" y="693"/>
      <point x="153" y="515"/>
      <point x="153" y="337" type="curve"/>
      <point x="153" y="152"/>
      <point x="118" y="-26"/>
    </contour>
  </outline>
</glyph>
<glyph name="parenright.sans" format="2">
  <advance width="358"/>
  <unicode hex="0029"/>
  <outline>
    <contour>
      <point x="50" y="-72" type="curve"/>
      <point x="50" y="-72" type="line"/>
      <point x="191" y="-72" type="line"/>
      <point x="262" y="61"/>
      <point x="301" y="241"/>
      <point x="301" y="428" type="curve"/>
      <point x="301" y="612"/>
      <point x="262" y="792"/>
      <point x="191" y="925" type="curve"/>
      <point x="51" y="925" type="line"/>
      <point x="118" y="786"/>
      <point x="153" y="608"/>
      <point x="153" y="430" type="curve"/>
      <point x="153" y="245"/>
      <point x="118" y="67"/>
    </contour>
  </outline>
</glyph>
<glyph name="asterisk" format="2">
  <advance width="568"/>
  <unicode hex="002A"/>
  <outline>
    <contour>
      <point x="199" y="482" type="line"/>
      <point x="104" y="353" type="line"/>
      <point x="230" y="290" type="line"/>
      <point x="287" y="419" type="line"/>
      <point x="354" y="289" type="line"/>
      <point x="474" y="353" type="line"/>
      <point x="379" y="482" type="line"/>
      <point x="524" y="491" type="line"/>
      <point x="507" y="628" type="line"/>
      <point x="342" y="582" type="line"/>
      <point x="360" y="745" type="line"/>
      <point x="218" y="745" type="line"/>
      <point x="236" y="582" type="line"/>
      <point x="75" y="628" type="line"/>
      <point x="54" y="493" type="line"/>
    </contour>
  </outline>
</glyph>
<glyph name="asterisk.sans" format="2">
  <advance width="568"/>
  <unicode hex="002A"/>
  <outline>
    <contour>
      <point x="199" y="575" type="line"/>
      <point x="104" y="446" type="line"/>
      <point x="230" y="383" type="line"/>
      <point x="287" y="512" type="line"/>
      <point x="354" y="382" type="line"/>
      <point x="474" y="446" type="line"/>
      <point x="379" y="575" type="line"/>
      <point x="524" y="584" type="line"/>
      <point x="507" y="721" type="line"/>
      <point x="342" y="675" type="line"/>
      <point x="360" y="838" type="line"/>
      <point x="218" y="838" type="line"/>
      <point x="236" y="675" type="line"/>
      <point x="75" y="721" type="line"/>
      <point x="54" y="586" type="line"/>
    </contour>
  </outline>
</glyph>
<glyph name="plus" format="2">
  <advance width="490"/>
  <unicode hex="002B"/>
  <outline>
    <contour>
      <point x="33" y="260" type="line"/>
      <point x="180" y="260" type="line"/>
      <point x="180" y="91" type="line"/>
      <point x="310" y="91" type="line"/>
      <point x="310" y="260" type="line"/>
      <point x="457" y="260" type="line"/>
      <point x="457" y="386" type="line"/>
      <point x="310" y="386" type="line"/>
      <point x="310" y="557" type="line"/>
      <point x="180" y="557" type="line"/>
      <point x="180" y="386" type="line"/>
      <point x="33" y="386" type="line"/>
    </contour>
  </outline>
</glyph>
<glyph name="plus.sans" format="2">
  <advance width="490"/>
  <unicode hex="002B"/>
  <outline>
    <contour>
      <point x="33" y="353" type="line"/>
      <point x="180" y="353" type="line"/>
      <point x="180" y="184" type="line"/>
      <point x="310" y="184" type="line"/>
      <point x="310" y="353" type="line"/>
      <point x="457" y="353" type="line"/>
      <point x="457" y="479" type="line"/>
      <point x="310" y="479" type="line"/>
      <point x="310" y="650" type="line"/>
      <point x="180" y="650" type="line"/>
      <point x="180" y="479" type="line"/>
      <point x="33" y="479" type="line"/>
    </contour>
  </outline>
</glyph>
<glyph name="comma" format="2">
  <advance width="278"/>
  <unicode hex="002C"/>
  <outline>
    <contour>
      <point x="34" y="-139" type="curve"/>
      <point x="34" y="-139" type="line"/>
      <point x="168" y="-139" type="line"/>
      <point x="197" y="-66"/>
      <point x="218" y="25"/>
      <point x="233" y="135" type="curve"/>
      <point x="228" y="146" type="line"/>
      <point x="70" y="146" type="line"/>
      <point x="66" y="71"/>
      <point x="48" y="-62"/>
    </contour>
  </outline>
</glyph>
<glyph name="comma.sans" format="2">
  <advance width="278"/>
  <unicode hex="002C"/>
  <outline>
    <contour>
      <point x="34" y="-46" type="curve"/>
      <point x="34" y="-46" type="line"/>
      <point x="168" y="-46" type="line"/>
      <point x="197" y="27"/>
      <point x="218" y="118"/>
      <point x="233" y="228" type="curve"/>
      <point x="228" y="239" type="line"/>
      <point x="70" y="239" type="line"/>
      <point x="66" y="164"/>
      <point x="48" y="31"/>
    </contour>
  </outline>
</glyph>
<glyph name="period" format="2">
  <advance width="278"/>
  <unicode hex="002E"/>
  <outline>
    <contour>
      <point x="48" y="81" type="curve"/>
      <point x="48" y="81" type="line"/>
      <point x="48" y="22"/>
      <point x="84" y="-12"/>
      <point x="141" y="-12" type="curve"/>
      <point x="198" y="-12"/>
      <point x="231" y="22"/>
      <point x="231" y="81" type="curve"/>
      <point x="231" y="141"/>
      <point x="199" y="175"/>
      <point x="141" y="175" type="curve"/>
      <point x="81" y="175"/>
      <point x="48" y="141"/>
    </contour>
  </outline>
</glyph>
<glyph name="period.sans" format="2">
  <advance width="278"/>
  <unicode hex="002E"/>
  <outline>
    <contour>
      <point x="48" y="174" type="curve"/>
      <point x="48" y="174" type="line"/>
      <point x="48" y="115"/>
      <point x="84" y="81"/>
      <point x="141" y="81" type="curve"/>
      <point x="198" y="81"/>
      <point x="231" y="115"/>
      <point x="231" y="174" type="curve"/>
      <point x="231" y="234"/>
      <point x="199" y="268"/>
      <point x="141" y="268" type="curve"/>
      <point x="81" y="268"/>
      <point x="48" y="234"/>
    </contour>
  </outline>
</glyph>
<glyph name="slash" format="2">
  <advance width="439"/>
  <unicode hex="002F"/>
  <outline>
    <contour>
      <point x="408" y="832" type="line"/>
      <point x="261" y="832" type="line"/>
      <point x="31" y="-165" type="line"/>
      <point x="178" y="-165" type="line"/>
    </contour>
  </outline>
</glyph>
<glyph name="slash.sans" format="2">
  <advance width="439"/>
  <unicode hex="002F"/>
  <outline>
    <contour>
      <point x="408" y="925" type="line"/>
      <point x="261" y="925" type="line"/>
      <point x="31" y="-72" type="line"/>
      <point x="178" y="-72" type="line"/>
    </contour>
  </outline>
</glyph>
<glyph name="zero" format="2">
  <advance width="486"/>
  <unicode hex="0030"/>
  <outline>
    <contour>
      <point x="242" y="-10" type="curve"/>
      <point x="242" y="-10" type="line"/>
      <point x="411" y="-10"/>
      <point x="453" y="150"/>
      <point x="453" y="356" type="curve"/>
      <point x="453" y="600"/>
      <point x="382" y="724"/>
      <point x="242" y="724" type="curve"/>
      <point x="100" y="724"/>
      <point x="33" y="610"/>
      <point x="33" y="356" type="curve"/>
      <point x="33" y="114"/>
      <point x="103" y="-10"/>
    </contour>
    <contour>
      <point x="243" y="138" type="curve"/>
      <point x="243" y="138" type="line"/>
      <point x="205" y="138"/>
      <point x="198" y="203"/>
      <point x="198" y="356" type="curve"/>
      <point x="198" y="504"/>
      <point x="207" y="576"/>
      <point x="243" y="576" type="curve"/>
      <point x="281" y="576"/>
      <point x="288" y="504"/>
      <point x="288" y="356" type="curve"/>
      <point x="288" y="203"/>
      <point x="281" y="138"/>
    </contour>
  </outline>
</glyph>
<glyph name="zero.sans" format="2">
  <advance width="486"/>
  <unicode hex="0030"/>
  <outline>
    <contour>
      <point x="242" y="83" type="curve"/>
      <point x="242" y="83" type="line"/>
      <point x="411" y="83"/>
      <point x="453" y="243"/>
      <point x="453" y="449" type="curve"/>
      <point x="453" y="693"/>
      <point x="382" y="817"/>
      <point x="242" y="817" type="curve"/>
      <point x="100" y="817"/>
      <point x="33" y="703"/>
      <point x="33" y="449" type="curve"/>
      <point x="33" y="207"/>
      <point x="103" y="83"/>
    </contour>
    <contour>
      <point x="243" y="231" type="curve"/>
      <point x="243" y="231" type="line"/>
      <point x="205" y="231"/>
      <point x="198" y="296"/>
      <point x="198" y="449" type="curve"/>
      <point x="198" y="597"/>
      <point x="207" y="669"/>
      <point x="243" y="669" type="curve"/>
      <point x="281" y="669"/>
      <point x="288" y="597"/>
      <point x="288" y="449" type="curve"/>
      <point x="288" y="296"/>
      <point x="281" y="231"/>
    </contour>
  </outline>
</glyph>
<glyph name="one" format="2">
  <advance width="486"/>
  <unicode hex="0031"/>
  <outline>
    <contour>
      <point x="222" y="375" type="curve"/>
      <point x="222" y="0" type="line"/>
      <point x="390" y="0" type="line"/>
      <point x="390" y="714" type="line"/>
      <point x="240" y="714" type="line"/>
      <point x="27" y="486" type="line"/>
      <point x="129" y="389" type="line"/>
      <point x="189" y="456" type="line" smooth="yes"/>
      <point x="203" y="471"/>
      <point x="215" y="487"/>
      <point x="224" y="501" type="curve"/>
      <point x="223" y="463"/>
      <point x="222" y="421"/>
    </contour>
  </outline>
</glyph>
<glyph name="one.sans" format="2">
  <advance width="486"/>
  <unicode hex="0031"/>
  <outline>
    <contour>
      <point x="222" y="468" type="curve"/>
      <point x="222" y="93" type="line"/>
      <point x="390" y="93" type="line"/>
      <point x="390" y="807" type="line"/>
      <point x="240" y="807" type="line"/>
      <point x="27" y="579" type="line"/>
      <point x="129" y="482" type="line"/>
      <point x="189" y="549" type="line" smooth="yes"/>
      <point x="203" y="564"/>
      <point x="215" y="580"/>
      <point x="224" y="594" type="curve"/>
      <point x="223" y="556"/>
      <point x="222" y="514"/>
    </contour>
  </outline>
</glyph>
<glyph name="two" format="2">
  <advance width="486"/>
  <unicode hex="0032"/>
  <outline>
    <contour>
      <point x="158" y="300" type="curve"/>
      <point x="23" y="120" type="line"/>
      <point x="23" y="0" type="line"/>
      <point x="437" y="0" type="line"/>
      <point x="437" y="147" type="line"/>
      <point x="227" y="147" type="line"/>
      <point x="227" y="152" type="line"/>
      <point x="305" y="252" type="line" smooth="yes"/>
      <point x="402" y="376"/>
      <point x="427" y="441"/>
      <point x="427" y="524" type="curve"/>
      <point x="427" y="645"/>
      <point x="344" y="724"/>
      <point x="226" y="724" type="curve"/>
      <point x="146" y="724"/>
      <point x="81" y="690"/>
      <point x="16" y="626" type="curve"/>
      <point x="100" y="514" type="line"/>
      <point x="137" y="555"/>
      <point x="172" y="577"/>
      <point x="206" y="577" type="curve"/>
      <point x="244" y="577"/>
      <point x="262" y="552"/>
      <point x="262" y="513" type="curve"/>
      <point x="262" y="465"/>
      <point x="248" y="421"/>
    </contour>
  </outline>
</glyph>
<glyph name="two.sans" format="2">
  <advance width="486"/>
  <unicode hex="0032"/>
  <outline>
    <contour>
      <point x="158" y="393" type="curve"/>
      <point x="23" y="213" type="line"/>
      <point x="23" y="93" type="line"/>
      <point x="437" y="93" type="line"/>
      <point x="437" y="240" type="line"/>
      <point x="227" y="240" type="line"/>
      <point x="227" y="245" type="line"/>
      <point x="305" y="345" type="line" smooth="yes"/>
      <point x="402" y="469"/>
      <point x="427" y="534"/>
      <point x="427" y="617" type="curve"/>
      <point x="427" y="738"/>
      <point x="344" y="817"/>
      <point x="226" y="817" type="curve"/>
      <point x="146" y="817"/>
      <point x="81" y="783"/>
      <point x="16" y="719" type="curve"/>
      <point x="100" y="607" type="line"/>
      <point x="137" y="648"/>
      <point x="172" y="670"/>
      <point x="206" y="670" type="curve"/>
      <point x="244" y="670"/>
      <point x="262" y="645"/>
      <point x="262" y="606" type="curve"/>
      <point x="262" y="558"/>
      <point x="248" y="514"/>
    </contour>
  </outline>
</glyph>
<glyph name="three" format="2">
  <advance width="486"/>
  <unicode hex="0033"/>
  <outline>
    <contour>
      <point x="204" y="-10" type="curve"/>
      <point x="204" y="-10" type="line"/>
      <point x="353" y="-10"/>
      <point x="448" y="71"/>
      <point x="448" y="204" type="curve"/>
      <point x="448" y="297"/>
      <point x="402" y="352"/>
      <point x="312" y="373" type="curve"/>
      <point x="312" y="376" type="line"/>
      <point x="389" y="405"/>
      <point x="432" y="466"/>
      <point x="432" y="538" type="curve"/>
      <point x="432" y="663"/>
      <point x="353" y="724"/>
      <point x="241" y="724" type="curve"/>
      <point x="158" y="724"/>
      <point x="93" y="700"/>
      <point x="28" y="660" type="curve"/>
      <point x="89" y="537" type="line"/>
      <point x="129" y="562"/>
      <point x="166" y="579"/>
      <point x="207" y="579" type="curve"/>
      <point x="247" y="579"/>
      <point x="270" y="558"/>
      <point x="270" y="516" type="curve"/>
      <point x="270" y="463"/>
      <point x="230" y="435"/>
      <point x="149" y="435" type="curve"/>
      <point x="112" y="435" type="line"/>
      <point x="112" y="296" type="line"/>
      <point x="148" y="296" type="line" smooth="yes"/>
      <point x="238" y="296"/>
      <point x="273" y="270"/>
      <point x="273" y="211" type="curve"/>
      <point x="273" y="158"/>
      <point x="243" y="135"/>
      <point x="176" y="135" type="curve"/>
      <point x="132" y="135"/>
      <point x="78" y="150"/>
      <point x="27" y="182" type="curve"/>
      <point x="27" y="27" type="line"/>
      <point x="92" y="-2"/>
      <point x="139" y="-10"/>
    </contour>
  </outline>
</glyph>
<glyph name="three.sans" format="2">
  <advance width="486"/>
  <unicode hex="0033"/>
  <outline>
    <contour>
      <point x="204" y="83" type="curve"/>
      <point x="204" y="83" type="line"/>
      <point x="353" y="83"/>
      <point x="448" y="164"/>
      <point x="448" y="297" type="curve"/>
      <point x="448" y="390"/>
      <point x="402" y="445"/>
      <point x="312" y="466" type="curve"/>
      <point x="312" y="469" type="line"/>
      <point x="389" y="498"/>
      <point x="432" y="559"/>
      <point x="432" y="631" type="curve"/>
      <point x="432" y="756"/>
      <point x="353" y="817"/>
      <point x="241" y="817" type="curve"/>
      <point x="158" y="817"/>
      <point x="93" y="793"/>
      <point x="28" y="753" type="curve"/>
      <point x="89" y="630" type="line"/>
      <point x="129" y="655"/>
      <point x="166" y="672"/>
      <point x="207" y="672" type="curve"/>
      <point x="247" y="672"/>
      <point x="270" y="651"/>
      <point x="270" y="609" type="curve"/>
      <point x="270" y="556"/>
      <point x="230" y="528"/>
      <point x="149" y="528" type="curve"/>
      <point x="112" y="528" type="line"/>
      <point x="112" y="389" type="line"/>
      <point x="148" y="389" type="line" smooth="yes"/>
      <point x="238" y="389"/>
      <point x="273" y="363"/>
      <point x="273" y="304" type="curve"/>
      <point x="273" y="251"/>
      <point x="243" y="228"/>
      <point x="176" y="228" type="curve"/>
      <point x="132" y="228"/>
      <point x="78" y="243"/>
      <point x="27" y="275" type="curve"/>
      <point x="27" y="120" type="line"/>
      <point x="92" y="91"/>
      <point x="139" y="83"/>
    </contour>
  </outline>
</glyph>
<glyph name="four" format="2">
  <advance width="486"/>
  <unicode hex="0034"/>
  <outline>
    <contour>
      <point x="16" y="138" type="line"/>
      <point x="243" y="138" type="line"/>
      <point x="243" y="0" type="line"/>
      <point x="405" y="0" type="line"/>
      <point x="405" y="138" type="line"/>
      <point x="472" y="138" type="line"/>
      <point x="472" y="275" type="line"/>
      <point x="405" y="275" type="line"/>
      <point x="405" y="714" type="line"/>
      <point x="250" y="714" type="line"/>
      <point x="16" y="272" type="line"/>
    </contour>
    <contour>
      <point x="243" y="371" type="curve"/>
      <point x="243" y="275" type="line"/>
      <point x="149" y="275" type="line"/>
      <point x="211" y="396" type="line" smooth="yes"/>
      <point x="226" y="425"/>
      <point x="234" y="445"/>
      <point x="242" y="473" type="curve"/>
      <point x="246" y="473" type="line"/>
      <point x="245" y="470"/>
      <point x="243" y="383"/>
    </contour>
  </outline>
</glyph>
<glyph name="four.sans" format="2">
  <advance width="486"/>
  <unicode hex="0034"/>
  <outline>
    <contour>
      <point x="16" y="231" type="line"/>
      <point x="243" y="231" type="line"/>
      <point x="243" y="93" type="line"/>
      <point x="405" y="93" type="line"/>
      <point x="405" y="231" type="line"/>
      <point x="472" y="231" type="line"/>
      <point x="472" y="368" type="line"/>
      <point x="405" y="368" type="line"/>
      <point x="405" y="807" type="line"/>
      <point x="250" y="807" type="line"/>
      <point x="16" y="365" type="line"/>
    </contour>
    <contour>
      <point x="243" y="464" type="curve"/>
      <point x="243" y="368" type="line"/>
      <point x="149" y="368" type="line"/>
      <point x="211" y="489" type="line" smooth="yes"/>
      <point x="226" y="518"/>
      <point x="234" y="538"/>
      <point x="242" y="566" type="curve"/>
      <point x="246" y="566" type="line"/>
      <point x="245" y="563"/>
      <point x="243" y="476"/>
    </contour>
  </outline>
</glyph>
<glyph name="five" format="2">
  <advance width="486"/>
  <unicode hex="0035"/>
  <outline>
    <contour>
      <point x="203" y="-10" type="curve"/>
      <point x="203" y="-10" type="line"/>
      <point x="369" y="-10"/>
      <point x="446" y="79"/>
      <point x="446" y="238" type="curve"/>
      <point x="446" y="376"/>
      <point x="381" y="468"/>
      <point x="276" y="468" type="curve"/>
      <point x="261" y="468"/>
      <point x="237" y="467"/>
      <point x="211" y="462" type="curve"/>
      <point x="218" y="566" type="line"/>
      <point x="413" y="566" type="line"/>
      <point x="413" y="714" type="line"/>
      <point x="78" y="714" type="line"/>
      <point x="57" y="345" type="line"/>
      <point x="108" y="310" type="line"/>
      <point x="136" y="321"/>
      <point x="161" y="327"/>
      <point x="188" y="327" type="curve"/>
      <point x="247" y="327"/>
      <point x="278" y="293"/>
      <point x="278" y="232" type="curve"/>
      <point x="278" y="167"/>
      <point x="252" y="135"/>
      <point x="189" y="135" type="curve"/>
      <point x="143" y="135"/>
      <point x="91" y="154"/>
      <point x="46" y="180" type="curve"/>
      <point x="46" y="27" type="line"/>
      <point x="90" y="2"/>
      <point x="147" y="-10"/>
    </contour>
  </outline>
</glyph>
<glyph name="five.sans" format="2">
  <advance width="486"/>
  <unicode hex="0035"/>
  <outline>
    <contour>
      <point x="203" y="83" type="curve"/>
      <point x="203" y="83" type="line"/>
      <point x="369" y="83"/>
      <point x="446" y="172"/>
      <point x="446" y="331" type="curve"/>
      <point x="446" y="469"/>
      <point x="381" y="561"/>
      <point x="276" y="561" type="curve"/>
      <point x="261" y="561"/>
      <point x="237" y="560"/>
      <point x="211" y="555" type="curve"/>
      <point x="218" y="659" type="line"/>
      <point x="413" y="659" type="line"/>
      <point x="413" y="807" type="line"/>
      <point x="78" y="807" type="line"/>
      <point x="57" y="438" type="line"/>
      <point x="108" y="403" type="line"/>
      <point x="136" y="414"/>
      <point x="161" y="420"/>
      <point x="188" y="420" type="curve"/>
      <point x="247" y="420"/>
      <point x="278" y="386"/>
      <point x="278" y="325" type="curve"/>
      <point x="278" y="260"/>
      <point x="252" y="228"/>
      <point x="189" y="228" type="curve"/>
      <point x="143" y="228"/>
      <point x="91" y="247"/>
      <point x="46" y="273" type="curve"/>
      <point x="46" y="120" type="line"/>
      <point x="90" y="95"/>
      <point x="147" y="83"/>
    </contour>
  </outline>
</glyph>
<glyph name="six" format="2">
  <advance width="486"/>
  <unicode hex="0036"/>
  <outline>
    <contour>
      <point x="253" y="-10" type="curve"/>
      <point x="253" y="-10" type="line"/>
      <point x="384" y="-10"/>
      <point x="460" y="89"/>
      <point x="460" y="244" type="curve"/>
      <point x="460" y="390"/>
      <point x="401" y="476"/>
      <point x="302" y="476" type="curve"/>
      <point x="249" y="476"/>
      <point x="213" y="448"/>
      <point x="190" y="393" type="curve"/>
      <point x="186" y="393" type="line"/>
      <point x="190" y="528"/>
      <point x="237" y="583"/>
      <point x="340" y="583" type="curve"/>
      <point x="370" y="583"/>
      <point x="399" y="580"/>
      <point x="426" y="574" type="curve"/>
      <point x="426" y="716" type="line"/>
      <point x="392" y="721"/>
      <point x="359" y="724"/>
      <point x="325" y="724" type="curve"/>
      <point x="86" y="724"/>
      <point x="33" y="516"/>
      <point x="33" y="317" type="curve"/>
      <point x="33" y="106"/>
      <point x="116" y="-10"/>
    </contour>
    <contour>
      <point x="250" y="135" type="curve"/>
      <point x="250" y="135" type="line"/>
      <point x="219" y="135"/>
      <point x="200" y="175"/>
      <point x="200" y="247" type="curve"/>
      <point x="200" y="299"/>
      <point x="221" y="336"/>
      <point x="251" y="336" type="curve"/>
      <point x="282" y="336"/>
      <point x="297" y="304"/>
      <point x="297" y="241" type="curve"/>
      <point x="297" y="167"/>
      <point x="277" y="135"/>
    </contour>
  </outline>
</glyph>
<glyph name="six.sans" format="2">
  <advance width="486"/>
  <unicode hex="0036"/>
  <outline>
    <contour>
      <point x="253" y="83" type="curve"/>
      <point x="253" y="83" type="line"/>
      <point x="384" y="83"/>
      <point x="460" y="182"/>
      <point x="460" y="337" type="curve"/>
      <point x="460" y="483"/>
      <point x="401" y="569"/>
      <point x="302" y="569" type="curve"/>
      <point x="249" y="569"/>
      <point x="213" y="541"/>
      <point x="190" y="486" type="curve"/>
      <point x="186" y="486" type="line"/>
      <point x="190" y="621"/>
      <point x="237" y="676"/>
      <point x="340" y="676" type="curve"/>
      <point x="370" y="676"/>
      <point x="399" y="673"/>
      <point x="426" y="667" type="curve"/>
      <point x="426" y="809" type="line"/>
      <point x="392" y="814"/>
      <point x="359" y="817"/>
      <point x="325" y="817" type="curve"/>
      <point x="86" y="817"/>
      <point x="33" y="609"/>
      <point x="33" y="410" type="curve"/>
      <point x="33" y="199"/>
      <point x="116" y="83"/>
    </contour>
    <contour>
      <point x="250" y="228" type="curve"/>
      <point x="250" y="228" type="line"/>
      <point x="219" y="228"/>
      <point x="200" y="268"/>
      <point x="200" y="340" type="curve"/>
      <point x="200" y="392"/>
      <point x="221" y="429"/>
      <point x="251" y="429" type="curve"/>
      <point x="282" y="429"/>
      <point x="297" y="397"/>
      <point x="297" y="334" type="curve"/>
      <point x="297" y="260"/>
      <point x="277" y="228"/>
    </contour>
  </outline>
</glyph>
<glyph name="seven" format="2">
  <advance width="486"/>
  <unicode hex="0037"/>
  <outline>
    <contour>
      <point x="32" y="566" type="line"/>
      <point x="279" y="566" type="line"/>
      <point x="70" y="0" type="line"/>
      <point x="258" y="0" type="line"/>
      <point x="455" y="594" type="line"/>
      <point x="455" y="714" type="line"/>
      <point x="32" y="714" type="line"/>
    </contour>
  </outline>
</glyph>
<glyph name="seven.sans" format="2">
  <advance width="486"/>
  <unicode hex="0037"/>
  <outline>
    <contour>
      <point x="32" y="659" type="line"/>
      <point x="279" y="659" type="line"/>
      <point x="70" y="93" type="line"/>
      <point x="258" y="93" type="line"/>
      <point x="455" y="687" type="line"/>
      <point x="455" y="807" type="line"/>
      <point x="32" y="807" type="line"/>
    </contour>
  </outline>
</glyph>
<glyph name="eight" format="2">
  <advance width="486"/>
  <unicode hex="0038"/>
  <outline>
    <contour>
      <point x="241" y="-10" type="curve"/>
      <point x="241" y="-10" type="line"/>
      <point x="376" y="-10"/>
      <point x="457" y="66"/>
      <point x="457" y="190" type="curve"/>
      <point x="457" y="259"/>
      <point x="427" y="316"/>
      <point x="342" y="376" type="curve"/>
      <point x="410" y="418"/>
      <point x="439" y="474"/>
      <point x="439" y="550" type="curve"/>
      <point x="439" y="658"/>
      <point x="367" y="724"/>
      <point x="243" y="724" type="curve"/>
      <point x="123" y="724"/>
      <point x="46" y="658"/>
      <point x="46" y="551" type="curve"/>
      <point x="46" y="481"/>
      <point x="73" y="424"/>
      <point x="136" y="373" type="curve"/>
      <point x="59" y="325"/>
      <point x="28" y="264"/>
      <point x="28" y="188" type="curve"/>
      <point x="28" y="64"/>
      <point x="105" y="-10"/>
    </contour>
    <contour>
      <point x="244" y="123" type="curve"/>
      <point x="244" y="123" type="line"/>
      <point x="206" y="123"/>
      <point x="184" y="148"/>
      <point x="184" y="191" type="curve"/>
      <point x="184" y="228"/>
      <point x="199" y="259"/>
      <point x="241" y="291" type="curve"/>
      <point x="293" y="248"/>
      <point x="301" y="218"/>
      <point x="301" y="187" type="curve"/>
      <point x="301" y="144"/>
      <point x="281" y="123"/>
    </contour>
    <contour>
      <point x="242" y="459" type="curve"/>
      <point x="242" y="459" type="line"/>
      <point x="214" y="482"/>
      <point x="201" y="508"/>
      <point x="201" y="538" type="curve"/>
      <point x="201" y="571"/>
      <point x="218" y="591"/>
      <point x="244" y="591" type="curve"/>
      <point x="266" y="591"/>
      <point x="285" y="573"/>
      <point x="285" y="538" type="curve"/>
      <point x="285" y="508"/>
      <point x="276" y="488"/>
    </contour>
  </outline>
</glyph>
<glyph name="eight.sans" format="2">
  <advance width="486"/>
  <unicode hex="0038"/>
  <outline>
    <contour>
      <point x="241" y="83" type="curve"/>
      <point x="241" y="83" type="line"/>
      <point x="376" y="83"/>
      <point x="457" y="159"/>
      <point x="457" y="283" type="curve"/>
      <point x="457" y="352"/>
      <point x="427" y="409"/>
      <point x="342" y="469" type="curve"/>
      <point x="410" y="511"/>
      <point x="439" y="567"/>
      <point x="439" y="643" type="curve"/>
      <point x="439" y="751"/>
      <point x="367" y="817"/>
      <point x="243" y="817" type="curve"/>
      <point x="123" y="817"/>
      <point x="46" y="751"/>
      <point x="46" y="644" type="curve"/>
      <point x="46" y="574"/>
      <point x="73" y="517"/>
      <point x="136" y="466" type="curve"/>
      <point x="59" y="418"/>
      <point x="28" y="357"/>
      <point x="28" y="281" type="curve"/>
      <point x="28" y="157"/>
      <point x="105" y="83"/>
    </contour>
    <contour>
      <point x="244" y="216" type="curve"/>
      <point x="244" y="216" type="line"/>
      <point x="206" y="216"/>
      <point x="184" y="241"/>
      <point x="184" y="284" type="curve"/>
      <point x="184" y="321"/>
      <point x="199" y="352"/>
      <point x="241" y="384" type="curve"/>
      <point x="293" y="341"/>
      <point x="301" y="311"/>
      <point x="301" y="280" type="curve"/>
      <point x="301" y="237"/>
      <point x="281" y="216"/>
    </contour>
    <contour>
      <point x="242" y="552" type="curve"/>
      <point x="242" y="552" type="line"/>
      <point x="214" y="575"/>
      <point x="201" y="601"/>
      <point x="201" y="631" type="curve"/>
      <point x="201" y="664"/>
      <point x="218" y="684"/>
      <point x="244" y="684" type="curve"/>
      <point x="266" y="684"/>
      <point x="285" y="666"/>
      <point x="285" y="631" type="curve"/>
      <point x="285" y="601"/>
      <point x="276" y="581"/>
    </contour>
  </outline>
</glyph>
<glyph name="nine" format="2">
  <advance width="486"/>
  <unicode hex="0039"/>
  <outline>
    <contour>
      <point x="162" y="-10" type="curve"/>
      <point x="162" y="-10" type="line"/>
      <point x="389" y="-10"/>
      <point x="454" y="186"/>
      <point x="454" y="395" type="curve"/>
      <point x="454" y="608"/>
      <point x="370" y="724"/>
      <point x="233" y="724" type="curve"/>
      <point x="103" y="724"/>
      <point x="26" y="626"/>
      <point x="26" y="470" type="curve"/>
      <point x="26" y="326"/>
      <point x="84" y="238"/>
      <point x="185" y="238" type="curve"/>
      <point x="237" y="238"/>
      <point x="273" y="266"/>
      <point x="296" y="321" type="curve"/>
      <point x="301" y="321" type="line"/>
      <point x="297" y="187"/>
      <point x="250" y="131"/>
      <point x="147" y="131" type="curve"/>
      <point x="117" y="131"/>
      <point x="88" y="134"/>
      <point x="61" y="141" type="curve"/>
      <point x="61" y="-1" type="line"/>
      <point x="94" y="-7"/>
      <point x="127" y="-10"/>
    </contour>
    <contour>
      <point x="236" y="378" type="curve"/>
      <point x="236" y="378" type="line"/>
      <point x="205" y="378"/>
      <point x="189" y="410"/>
      <point x="189" y="473" type="curve"/>
      <point x="189" y="547"/>
      <point x="209" y="579"/>
      <point x="237" y="579" type="curve"/>
      <point x="282" y="579"/>
      <point x="287" y="494"/>
      <point x="287" y="462" type="curve"/>
      <point x="287" y="430"/>
      <point x="274" y="378"/>
    </contour>
  </outline>
</glyph>
<glyph name="nine.sans" format="2">
  <advance width="486"/>
  <unicode hex="0039"/>
  <outline>
    <contour>
      <point x="162" y="83" type="curve"/>
      <point x="162" y="83" type="line"/>
      <point x="389" y="83"/>
      <point x="454" y="279"/>
      <point x="454" y="488" type="curve"/>
      <point x="454" y="701"/>
      <point x="370" y="817"/>
      <point x="233" y="817" type="curve"/>
      <point x="103" y="817"/>
      <point x="26" y="719"/>
      <point x="26" y="563" type="curve"/>
      <point x="26" y="419"/>
      <point x="84" y="331"/>
      <point x="185" y="331" type="curve"/>
      <point x="237" y="331"/>
      <point x="273" y="359"/>
      <point x="296" y="414" type="curve"/>
      <point x="301" y="414" type="line"/>
      <point x="297" y="280"/>
      <point x="250" y="224"/>
      <point x="147" y="224" type="curve"/>
      <point x="117" y="224"/>
      <point x="88" y="227"/>
      <point x="61" y="234" type="curve"/>
      <point x="61" y="92" type="line"/>
      <point x="94" y="86"/>
      <point x="127" y="83"/>
    </contour>
    <contour>
      <point x="236" y="471" type="curve"/>
      <point x="236" y="471" type="line"/>
      <point x="205" y="471"/>
      <point x="189" y="503"/>
      <point x="189" y="566" type="curve"/>
      <point x="189" y="640"/>
      <point x="209" y="672"/>
      <point x="237" y="672" type="curve"/>
      <point x="282" y="672"/>
      <point x="287" y="587"/>
      <point x="287" y="555" type="curve"/>
      <point x="287" y="523"/>
      <point x="274" y="471"/>
    </contour>
  </outline>
</glyph>
<glyph name="colon" format="2">
  <advance width="326"/>
  <unicode hex="003A"/>
  <outline>
    <contour>
      <point x="165" y="374" type="curve"/>
      <point x="165" y="374" type="line"/>
      <point x="221" y="374"/>
      <point x="254" y="408"/>
      <point x="254" y="467" type="curve"/>
      <point x="254" y="527"/>
      <point x="223" y="561"/>
      <point x="165" y="561" type="curve"/>
      <point x="104" y="561"/>
      <point x="72" y="527"/>
      <point x="72" y="467" type="curve"/>
      <point x="72" y="408"/>
      <point x="107" y="374"/>
    </contour>
    <contour>
      <point x="165" y="-12" type="curve"/>
      <point x="165" y="-12" type="line"/>
      <point x="221" y="-12"/>
      <point x="254" y="22"/>
      <point x="254" y="81" type="curve"/>
      <point x="254" y="141"/>
      <point x="223" y="175"/>
      <point x="165" y="175" type="curve"/>
      <point x="104" y="175"/>
      <point x="72" y="141"/>
      <point x="72" y="81" type="curve"/>
      <point x="72" y="22"/>
      <point x="107" y="-12"/>
    </contour>
  </outline>
</glyph>
<glyph name="colon.sans" format="2">
  <advance width="326"/>
  <unicode hex="003A"/>
  <outline>
    <contour>
      <point x="165" y="467" type="curve"/>
      <point x="165" y="467" type="line"/>
      <point x="221" y="467"/>
      <point x="254" y="501"/>
      <point x="254" y="560" type="curve"/>
      <point x="254" y="620"/>
      <point x="223" y="654"/>
      <point x="165" y="654" type="curve"/>
      <point x="104" y="654"/>
      <point x="72" y="620"/>
      <point x="72" y="560" type="curve"/>
      <point x="72" y="501"/>
      <point x="107" y="467"/>
    </contour>
    <contour>
      <point x="165" y="81" type="curve"/>
      <point x="165" y="81" type="line"/>
      <point x="221" y="81"/>
      <point x="254" y="115"/>
      <point x="254" y="174" type="curve"/>
      <point x="254" y="234"/>
      <point x="223" y="268"/>
      <point x="165" y="268" type="curve"/>
      <point x="104" y="268"/>
      <point x="72" y="234"/>
      <point x="72" y="174" type="curve"/>
      <point x="72" y="115"/>
      <point x="107" y="81"/>
    </contour>
  </outline>
</glyph>
<glyph name="semicolon" format="2">
  <advance width="326"/>
  <unicode hex="003B"/>
  <outline>
    <contour>
      <point x="253" y="135" type="curve"/>
      <point x="248" y="146" type="line"/>
      <point x="90" y="146" type="line"/>
      <point x="84" y="69"/>
      <point x="69" y="-60"/>
      <point x="53" y="-139" type="curve"/>
      <point x="188" y="-139" type="line"/>
      <point x="216" y="-66"/>
      <point x="238" y="25"/>
    </contour>
    <contour>
      <point x="165" y="374" type="curve"/>
      <point x="165" y="374" type="line"/>
      <point x="221" y="374"/>
      <point x="254" y="408"/>
      <point x="254" y="467" type="curve"/>
      <point x="254" y="527"/>
      <point x="223" y="561"/>
      <point x="165" y="561" type="curve"/>
      <point x="104" y="561"/>
      <point x="72" y="527"/>
      <point x="72" y="467" type="curve"/>
      <point x="72" y="408"/>
      <point x="107" y="374"/>
    </contour>
  </outline>
</glyph>
<glyph name="semicolon.sans" format="2">
  <advance width="326"/>
  <unicode hex="003B"/>
  <outline>
    <contour>
      <point x="253" y="228" type="curve"/>
      <point x="248" y="239" type="line"/>
      <point x="90" y="239" type="line"/>
      <point x="84" y="162"/>
      <point x="69" y="33"/>
      <point x="53" y="-46" type="curve"/>
      <point x="188" y="-46" type="line"/>
      <point x="216" y="27"/>
      <point x="238" y="118"/>
    </contour>
    <contour>
      <point x="165" y="467" type="curve"/>
      <point x="165" y="467" type="line"/>
      <point x="221" y="467"/>
      <point x="254" y="501"/>
      <point x="254" y="560" type="curve"/>
      <point x="254" y="620"/>
      <point x="223" y="654"/>
      <point x="165" y="654" type="curve"/>
      <point x="104" y="654"/>
      <point x="72" y="620"/>
      <point x="72" y="560" type="curve"/>
      <point x="72" y="501"/>
      <point x="107" y="467"/>
    </contour>
  </outline>
</glyph>
<glyph name="less" format="2">
  <advance width="490"/>
  <unicode hex="003C"/>
  <outline>
    <contour>
      <point x="33" y="364" type="line"/>
      <point x="33" y="280" type="line"/>
      <point x="457" y="49" type="line"/>
      <point x="457" y="193" type="line"/>
      <point x="203" y="322" type="line"/>
      <point x="457" y="451" type="line"/>
      <point x="457" y="595" type="line"/>
    </contour>
  </outline>
</glyph>
<glyph name="less.sans" format="2">
  <advance width="490"/>
  <unicode hex="003C"/>
  <outline>
    <contour>
      <point x="33" y="457" type="line"/>
      <point x="33" y="373" type="line"/>
      <point x="457" y="142" type="line"/>
      <point x="457" y="286" type="line"/>
      <point x="203" y="415" type="line"/>
      <point x="457" y="544" type="line"/>
      <point x="457" y="688" type="line"/>
    </contour>
  </outline>
</glyph>
<glyph name="equal" format="2">
  <advance width="490"/>
  <unicode hex="003D"/>
  <outline>
    <contour>
      <point x="452" y="479" type="line"/>
      <point x="38" y="479" type="line"/>
      <point x="38" y="353" type="line"/>
      <point x="452" y="353" type="line"/>
    </contour>
    <contour>
      <point x="452" y="291" type="line"/>
      <point x="38" y="291" type="line"/>
      <point x="38" y="165" type="line"/>
      <point x="452" y="165" type="line"/>
    </contour>
  </outline>
</glyph>
<glyph name="equal.sans" format="2">
  <advance width="490"/>
  <unicode hex="003D"/>
  <outline>
    <contour>
      <point x="452" y="572" type="line"/>
      <point x="38" y="572" type="line"/>
      <point x="38" y="446" type="line"/>
      <point x="452" y="446" type="line"/>
    </contour>
    <contour>
      <point x="452" y="384" type="line"/>
      <point x="38" y="384" type="line"/>
      <point x="38" y="258" type="line"/>
      <point x="452" y="258" type="line"/>
    </contour>
  </outline>
</glyph>
<glyph name="greater" format="2">
  <advance width="490"/>
  <unicode hex="003E"/>
  <outline>
    <contour>
      <point x="287" y="322" type="line"/>
      <point x="33" y="193" type="line"/>
      <point x="33" y="49" type="line"/>
      <point x="457" y="280" type="line"/>
      <point x="457" y="364" type="line"/>
      <point x="33" y="595" type="line"/>
      <point x="33" y="451" type="line"/>
    </contour>
  </outline>
</glyph>
<glyph name="greater.sans" format="2">
  <advance width="490"/>
  <unicode hex="003E"/>
  <outline>
    <contour>
      <point x="287" y="415" type="line"/>
      <point x="33" y="286" type="line"/>
      <point x="33" y="142" type="line"/>
      <point x="457" y="373" type="line"/>
      <point x="457" y="457" type="line"/>
      <point x="33" y="688" type="line"/>
      <point x="33" y="544" type="line"/>
    </contour>
  </outline>
</glyph>
<glyph name="question" format="2">
  <advance width="487"/>
  <unicode hex="003F"/>
  <outline>
    <contour>
      <point x="149" y="290" type="curve"/>
      <point x="149" y="252" type="line"/>
      <point x="285" y="252" type="line"/>
      <point x="285" y="266" type="line" smooth="yes"/>
      <point x="285" y="300"/>
      <point x="294" y="317"/>
      <point x="331" y="355" type="curve"/>
      <point x="389" y="416"/>
      <point x="430" y="460"/>
      <point x="430" y="550" type="curve"/>
      <point x="430" y="655"/>
      <point x="357" y="724"/>
      <point x="234" y="724" type="curve"/>
      <point x="168" y="724"/>
      <point x="111" y="707"/>
      <point x="56" y="680" type="curve"/>
      <point x="112" y="552" type="line"/>
      <point x="145" y="569"/>
      <point x="175" y="580"/>
      <point x="215" y="580" type="curve"/>
      <point x="254" y="580"/>
      <point x="272" y="563"/>
      <point x="272" y="531" type="curve"/>
      <point x="272" y="497"/>
      <point x="255" y="477"/>
      <point x="217" y="440" type="curve"/>
      <point x="170" y="394"/>
      <point x="149" y="355"/>
    </contour>
    <contour>
      <point x="125" y="81" type="curve"/>
      <point x="125" y="81" type="line"/>
      <point x="125" y="22"/>
      <point x="161" y="-12"/>
      <point x="218" y="-12" type="curve"/>
      <point x="275" y="-12"/>
      <point x="308" y="22"/>
      <point x="308" y="81" type="curve"/>
      <point x="308" y="141"/>
      <point x="276" y="175"/>
      <point x="218" y="175" type="curve"/>
      <point x="158" y="175"/>
      <point x="125" y="141"/>
    </contour>
  </outline>
</glyph>
<glyph name="question.sans" format="2">
  <advance width="487"/>
  <unicode hex="003F"/>
  <outline>
    <contour>
      <point x="149" y="383" type="curve"/>
      <point x="149" y="345" type="line"/>
      <point x="285" y="345" type="line"/>
      <point x="285" y="359" type="line" smooth="yes"/>
      <point x="285" y="393"/>
      <point x="294" y="410"/>
      <point x="331" y="448" type="curve"/>
      <point x="389" y="509"/>
      <point x="430" y="553"/>
      <point x="430" y="643" type="curve"/>
      <point x="430" y="748"/>
      <point x="357" y="817"/>
      <point x="234" y="817" type="curve"/>
      <point x="168" y="817"/>
      <point x="111" y="800"/>
      <point x="56" y="773" type="curve"/>
      <point x="112" y="645" type="line"/>
      <point x="145" y="662"/>
      <point x="175" y="673"/>
      <point x="215" y="673" type="curve"/>
      <point x="254" y="673"/>
      <point x="272" y="656"/>
      <point x="272" y="624" type="curve"/>
      <point x="272" y="590"/>
      <point x="255" y="570"/>
      <point x="217" y="533" type="curve"/>
      <point x="170" y="487"/>
      <point x="149" y="448"/>
    </contour>
    <contour>
      <point x="125" y="174" type="curve"/>
      <point x="125" y="174" type="line"/>
      <point x="125" y="115"/>
      <point x="161" y="81"/>
      <point x="218" y="81" type="curve"/>
      <point x="275" y="81"/>
      <point x="308" y="115"/>
      <point x="308" y="174" type="curve"/>
      <point x="308" y="234"/>
      <point x="276" y="268"/>
      <point x="218" y="268" type="curve"/>
      <point x="158" y="268"/>
      <point x="125" y="234"/>
    </contour>
  </outline>
</glyph>
<glyph name="bracketleft" format="2">
  <advance width="355"/>
  <unicode hex="005B"/>
  <outline>
    <contour>
      <point x="307" y="832" type="line"/>
      <point x="85" y="832" type="line"/>
      <point x="85" y="-165" type="line"/>
      <point x="307" y="-165" type="line"/>
      <point x="307" y="-43" type="line"/>
      <point x="227" y="-43" type="line"/>
      <point x="227" y="710" type="line"/>
      <point x="307" y="710" type="line"/>
    </contour>
  </outline>
</glyph>
<glyph name="bracketleft.sans" format="2">
  <advance width="355"/>
  <unicode hex="005B"/>
  <outline>
    <contour>
      <point x="307" y="925" type="line"/>
      <point x="85" y="925" type="line"/>
      <point x="85" y="-72" type="line"/>
      <point x="307" y="-72" type="line"/>
      <point x="307" y="50" type="line"/>
      <point x="227" y="50" type="line"/>
      <point x="227" y="803" type="line"/>
      <point x="307" y="803" type="line"/>
    </contour>
  </outline>
</glyph>
<glyph name="backslash.sans" format="2">
  <advance width="439"/>
  <unicode hex="005C"/>
  <outline>
    <contour>
      <point x="178" y="925" type="line"/>
      <point x="31" y="925" type="line"/>
      <point x="261" y="-72" type="line"/>
      <point x="408" y="-72" type="line"/>
    </contour>
  </outline>
</glyph>
<glyph name="bracketright" format="2">
  <advance width="355"/>
  <unicode hex="005D"/>
  <outline>
    <contour>
      <point x="128" y="-43" type="line"/>
      <point x="48" y="-43" type="line"/>
      <point x="48" y="-165" type="line"/>
      <point x="270" y="-165" type="line"/>
      <point x="270" y="832" type="line"/>
      <point x="48" y="832" type="line"/>
      <point x="48" y="710" type="line"/>
      <point x="128" y="710" type="line"/>
    </contour>
  </outline>
</glyph>
<glyph name="bracketright.sans" format="2">
  <advance width="355"/>
  <unicode hex="005D"/>
  <outline>
    <contour>
      <point x="128" y="50" type="line"/>
      <point x="48" y="50" type="line"/>
      <point x="48" y="-72" type="line"/>
      <point x="270" y="-72" type="line"/>
      <point x="270" y="925" type="line"/>
      <point x="48" y="925" type="line"/>
      <point x="48" y="803" type="line"/>
      <point x="128" y="803" type="line"/>
    </contour>
  </outline>
</glyph>
<glyph name="asciicircum" format="2">
  <advance width="490"/>
  <unicode hex="005E"/>
  <outline>
    <contour>
      <point x="289" y="718" type="line"/>
      <point x="199" y="718" type="line"/>
      <point x="8" y="304" type="line"/>
      <point x="150" y="304" type="line"/>
      <point x="244" y="537" type="line"/>
      <point x="339" y="304" type="line"/>
      <point x="481" y="304" type="line"/>
    </contour>
  </outline>
</glyph>
<glyph name="asciicircum.sans" format="2">
  <advance width="490"/>
  <unicode hex="005E"/>
  <outline>
    <contour>
      <point x="289" y="811" type="line"/>
      <point x="199" y="811" type="line"/>
      <point x="8" y="397" type="line"/>
      <point x="150" y="397" type="line"/>
      <point x="244" y="630" type="line"/>
      <point x="339" y="397" type="line"/>
      <point x="481" y="397" type="line"/>
    </contour>
  </outline>
</glyph>
<glyph name="underscore.sans" format="2">
  <advance width="303"/>
  <unicode hex="005F"/>
  <outline>
    <contour>
      <point x="303" y="3" type="line"/>
      <point x="0" y="3" type="line"/>
      <point x="0" y="-65" type="line"/>
      <point x="303" y="-65" type="line"/>
    </contour>
  </outline>
</glyph>
<glyph name="braceleft" format="2">
  <advance width="394"/>
  <unicode hex="007B"/>
  <outline>
    <contour>
      <point x="37" y="397" type="curve"/>
      <point x="37" y="397" type="line"/>
      <point x="37" y="269" type="line"/>
      <point x="89" y="269"/>
      <point x="129" y="248"/>
      <point x="129" y="185" type="curve"/>
      <point x="129" y="5" type="line" smooth="yes"/>
      <point x="129" y="-115"/>
      <point x="180" y="-166"/>
      <point x="346" y="-166" type="curve"/>
      <point x="346" y="-37" type="line"/>
      <point x="296" y="-37"/>
      <point x="271" y="-32"/>
      <point x="271" y="23" type="curve"/>
      <point x="271" y="208" type="line" smooth="yes"/>
      <point x="271" y="284"/>
      <point x="233" y="318"/>
      <point x="177" y="330" type="curve"/>
      <point x="177" y="336" type="line"/>
      <point x="231" y="347"/>
      <point x="271" y="381"/>
      <point x="271" y="460" type="curve"/>
      <point x="271" y="643" type="line" smooth="yes"/>
      <point x="271" y="698"/>
      <point x="296" y="703"/>
      <point x="346" y="703" type="curve"/>
      <point x="346" y="832" type="line"/>
      <point x="180" y="832"/>
      <point x="129" y="781"/>
      <point x="129" y="661" type="curve"/>
      <point x="129" y="475" type="line" smooth="yes"/>
      <point x="129" y="420"/>
      <point x="91" y="397"/>
    </contour>
  </outline>
</glyph>
<glyph name="braceleft.sans" format="2">
  <advance width="394"/>
  <unicode hex="007B"/>
  <outline>
    <contour>
      <point x="37" y="490" type="curve"/>
      <point x="37" y="490" type="line"/>
      <point x="37" y="362" type="line"/>
      <point x="89" y="362"/>
      <point x="129" y="341"/>
      <point x="129" y="278" type="curve"/>
      <point x="129" y="98" type="line" smooth="yes"/>
      <point x="129" y="-22"/>
      <point x="180" y="-73"/>
      <point x="346" y="-73" type="curve"/>
      <point x="346" y="56" type="line"/>
      <point x="296" y="56"/>
      <point x="271" y="61"/>
      <point x="271" y="116" type="curve"/>
      <point x="271" y="301" type="line" smooth="yes"/>
      <point x="271" y="377"/>
      <point x="233" y="411"/>
      <point x="177" y="423" type="curve"/>
      <point x="177" y="429" type="line"/>
      <point x="231" y="440"/>
      <point x="271" y="474"/>
      <point x="271" y="553" type="curve"/>
      <point x="271" y="736" type="line" smooth="yes"/>
      <point x="271" y="791"/>
      <point x="296" y="796"/>
      <point x="346" y="796" type="curve"/>
      <point x="346" y="925" type="line"/>
      <point x="180" y="925"/>
      <point x="129" y="874"/>
      <point x="129" y="754" type="curve"/>
      <point x="129" y="568" type="line" smooth="yes"/>
      <point x="129" y="513"/>
      <point x="91" y="490"/>
    </contour>
  </outline>
</glyph>
<glyph name="bar" format="2">
  <advance width="424"/>
  <unicode hex="007C"/>
  <outline>
    <contour>
      <point x="276" y="832" type="line"/>
      <point x="148" y="832" type="line"/>
      <point x="148" y="-165" type="line"/>
      <point x="276" y="-165" type="line"/>
    </contour>
  </outline>
</glyph>
<glyph name="bar.sans" format="2">
  <advance width="424"/>
  <unicode hex="007C"/>
  <outline>
    <contour>
      <point x="276" y="925" type="line"/>
      <point x="148" y="925" type="line"/>
      <point x="148" y="-72" type="line"/>
      <point x="276" y="-72" type="line"/>
    </contour>
  </outline>
</glyph>
<glyph name="braceright" format="2">
  <advance width="394"/>
  <unicode hex="007D"/>
  <outline>
    <contour>
      <point x="357" y="269" type="curve"/>
      <point x="357" y="269" type="line"/>
      <point x="357" y="397" type="line"/>
      <point x="305" y="397"/>
      <point x="265" y="418"/>
      <point x="265" y="481" type="curve"/>
      <point x="265" y="661" type="line" smooth="yes"/>
      <point x="265" y="781"/>
      <point x="214" y="832"/>
      <point x="48" y="832" type="curve"/>
      <point x="48" y="703" type="line"/>
      <point x="98" y="703"/>
      <point x="123" y="698"/>
      <point x="123" y="643" type="curve"/>
      <point x="123" y="458" type="line" smooth="yes"/>
      <point x="123" y="382"/>
      <point x="161" y="348"/>
      <point x="217" y="336" type="curve"/>
      <point x="217" y="330" type="line"/>
      <point x="163" y="319"/>
      <point x="123" y="285"/>
      <point x="123" y="206" type="curve"/>
      <point x="123" y="23" type="line" smooth="yes"/>
      <point x="123" y="-32"/>
      <point x="98" y="-37"/>
      <point x="48" y="-37" type="curve"/>
      <point x="48" y="-166" type="line"/>
      <point x="213" y="-166"/>
      <point x="265" y="-115"/>
      <point x="265" y="5" type="curve"/>
      <point x="265" y="191" type="line" smooth="yes"/>
      <point x="265" y="246"/>
      <point x="303" y="269"/>
    </contour>
  </outline>
</glyph>
<glyph name="braceright.sans" format="2">
  <advance width="394"/>
  <unicode hex="007D"/>
  <outline>
    <contour>
      <point x="357" y="362" type="curve"/>
      <point x="357" y="362" type="line"/>
      <point x="357" y="490" type="line"/>
      <point x="305" y="490"/>
      <point x="265" y="511"/>
      <point x="265" y="574" type="curve"/>
      <point x="265" y="754" type="line" smooth="yes"/>
      <point x="265" y="874"/>
      <point x="214" y="925"/>
      <point x="48" y="925" type="curve"/>
      <point x="48" y="796" type="line"/>
      <point x="98" y="796"/>
      <point x="123" y="791"/>
      <point x="123" y="736" type="curve"/>
      <point x="123" y="551" type="line" smooth="yes"/>
      <point x="123" y="475"/>
      <point x="161" y="441"/>
      <point x="217" y="429" type="curve"/>
      <point x="217" y="423" type="line"/>
      <point x="163" y="412"/>
      <point x="123" y="378"/>
      <point x="123" y="299" type="curve"/>
      <point x="123" y="116" type="line" smooth="yes"/>
      <point x="123" y="61"/>
      <point x="98" y="56"/>
      <point x="48" y="56" type="curve"/>
      <point x="48" y="-73" type="line"/>
      <point x="213" y="-73"/>
      <point x="265" y="-22"/>
      <point x="265" y="98" type="curve"/>
      <point x="265" y="284" type="line" smooth="yes"/>
      <point x="265" y="339"/>
      <point x="303" y="362"/>
    </contour>
  </outline>
</glyph>
<glyph name="asciitilde" format="2">
  <advance width="490"/>
  <unicode hex="007E"/>
  <outline>
    <contour>
      <point x="33" y="363" type="curve"/>
      <point x="33" y="363" type="line"/>
      <point x="33" y="236" type="line"/>
      <point x="74" y="271"/>
      <point x="99" y="290"/>
      <point x="134" y="290" type="curve"/>
      <point x="162" y="290"/>
      <point x="185" y="282"/>
      <point x="229" y="262" type="curve"/>
      <point x="280" y="239"/>
      <point x="308" y="232"/>
      <point x="343" y="232" type="curve"/>
      <point x="390" y="232"/>
      <point x="423" y="252"/>
      <point x="457" y="285" type="curve"/>
      <point x="457" y="412" type="line"/>
      <point x="416" y="377"/>
      <point x="391" y="358"/>
      <point x="360" y="358" type="curve"/>
      <point x="332" y="358"/>
      <point x="315" y="364"/>
      <point x="261" y="386" type="curve"/>
      <point x="209" y="407"/>
      <point x="183" y="416"/>
      <point x="147" y="416" type="curve"/>
      <point x="100" y="416"/>
      <point x="67" y="396"/>
    </contour>
  </outline>
</glyph>
<glyph name="asciitilde.sans" format="2">
  <advance width="490"/>
  <unicode hex="007E"/>
  <outline>
    <contour>
      <point x="33" y="456" type="curve"/>
      <point x="33" y="456" type="line"/>
      <point x="33" y="329" type="line"/>
      <point x="74" y="364"/>
      <point x="99" y="383"/>
      <point x="134" y="383" type="curve"/>
      <point x="162" y="383"/>
      <point x="185" y="375"/>
      <point x="229" y="355" type="curve"/>
      <point x="280" y="332"/>
      <point x="308" y="325"/>
      <point x="343" y="325" type="curve"/>
      <point x="390" y="325"/>
      <point x="423" y="345"/>
      <point x="457" y="378" type="curve"/>
      <point x="457" y="505" type="line"/>
      <point x="416" y="470"/>
      <point x="391" y="451"/>
      <point x="360" y="451" type="curve"/>
      <point x="332" y="451"/>
      <point x="315" y="457"/>
      <point x="261" y="479" type="curve"/>
      <point x="209" y="500"/>
      <point x="183" y="509"/>
      <point x="147" y="509" type="curve"/>
      <point x="100" y="509"/>
      <point x="67" y="489"/>
    </contour>
  </outline>
</glyph>
<glyph name="multiply" format="2">
  <advance width="490"/>
  <unicode hex="00D7"/>
  <outline>
    <contour>
      <point x="122" y="110" type="line"/>
      <point x="245" y="236" type="line"/>
      <point x="367" y="110" type="line"/>
      <point x="457" y="200" type="line"/>
      <point x="331" y="323" type="line"/>
      <point x="457" y="446" type="line"/>
      <point x="367" y="536" type="line"/>
      <point x="245" y="408" type="line"/>
      <point x="122" y="536" type="line"/>
      <point x="32" y="446" type="line"/>
      <point x="158" y="323" type="line"/>
      <point x="32" y="200" type="line"/>
    </contour>
  </outline>
</glyph>
<glyph name="multiply.sans" format="2">
  <advance width="490"/>
  <unicode hex="00D7"/>
  <outline>
    <contour>
      <point x="122" y="203" type="line"/>
      <point x="245" y="329" type="line"/>
      <point x="367" y="203" type="line"/>
      <point x="457" y="293" type="line"/>
      <point x="331" y="416" type="line"/>
      <point x="457" y="539" type="line"/>
      <point x="367" y="629" type="line"/>
      <point x="245" y="501" type="line"/>
      <point x="122" y="629" type="line"/>
      <point x="32" y="539" type="line"/>
      <point x="158" y="416" type="line"/>
      <point x="32" y="293" type="line"/>
    </contour>
  </outline>
</glyph>
<glyph name="divide" format="2">
  <advance width="490"/>
  <unicode hex="00F7"/>
  <outline>
    <contour>
      <point x="457" y="386" type="line"/>
      <point x="33" y="386" type="line"/>
      <point x="33" y="260" type="line"/>
      <point x="457" y="260" type="line"/>
    </contour>
    <contour>
      <point x="247" y="73" type="curve"/>
      <point x="247" y="73" type="line"/>
      <point x="285" y="73"/>
      <point x="317" y="95"/>
      <point x="317" y="152" type="curve"/>
      <point x="317" y="211"/>
      <point x="285" y="231"/>
      <point x="247" y="231" type="curve"/>
      <point x="207" y="231"/>
      <point x="174" y="211"/>
      <point x="174" y="152" type="curve"/>
      <point x="174" y="95"/>
      <point x="207" y="73"/>
    </contour>
    <contour>
      <point x="247" y="414" type="curve"/>
      <point x="247" y="414" type="line"/>
      <point x="285" y="414"/>
      <point x="317" y="436"/>
      <point x="317" y="493" type="curve"/>
      <point x="317" y="550"/>
      <point x="285" y="572"/>
      <point x="247" y="572" type="curve"/>
      <point x="207" y="572"/>
      <point x="174" y="550"/>
      <point x="174" y="493" type="curve"/>
      <point x="174" y="436"/>
      <point x="207" y="414"/>
    </contour>
  </outline>
</glyph>
<glyph name="divide.sans" format="2">
  <advance width="490"/>
  <unicode hex="00F7"/>
  <outline>
    <contour>
      <point x="457" y="479" type="line"/>
      <point x="33" y="479" type="line"/>
      <point x="33" y="353" type="line"/>
      <point x="457" y="353" type="line"/>
    </contour>
    <contour>
      <point x="247" y="166" type="curve"/>
      <point x="247" y="166" type="line"/>
      <point x="285" y="166"/>
      <point x="317" y="188"/>
      <point x="317" y="245" type="curve"/>
      <point x="317" y="304"/>
      <point x="285" y="324"/>
      <point x="247" y="324" type="curve"/>
      <point x="207" y="324"/>
      <point x="174" y="304"/>
      <point x="174" y="245" type="curve"/>
      <point x="174" y="188"/>
      <point x="207" y="166"/>
    </contour>
    <contour>
      <point x="247" y="507" type="curve"/>
      <point x="247" y="507" type="line"/>
      <point x="285" y="507"/>
      <point x="317" y="529"/>
      <point x="317" y="586" type="curve"/>
      <point x="317" y="643"/>
      <point x="285" y="665"/>
      <point x="247" y="665" type="curve"/>
      <point x="207" y="665"/>
      <point x="174" y="643"/>
      <point x="174" y="586" type="curve"/>
      <point x="174" y="529"/>
      <point x="207" y="507"/>
    </contour>
  </outline>
</glyph>
<glyph name="danda" format="2">
  <advance width="283"/>
  <unicode hex="0964"/>
  <note>
danda.orya
</note>
  <outline>
    <contour>
      <point x="215" y="658" type="line"/>
      <point x="68" y="658" type="line"/>
      <point x="68" y="0" type="line"/>
      <point x="215" y="0" type="line"/>
    </contour>
  </outline>
</glyph>
<glyph name="danda.sans" format="2">
  <advance width="283"/>
  <unicode hex="0964"/>
  <note>
danda.orya
</note>
  <outline>
    <contour>
      <point x="215" y="751" type="line"/>
      <point x="68" y="751" type="line"/>
      <point x="68" y="93" type="line"/>
      <point x="215" y="93" type="line"/>
    </contour>
  </outline>
</glyph>
<glyph name="dbldanda" format="2">
  <advance width="510"/>
  <unicode hex="0965"/>
  <note>
dbldanda.orya
</note>
  <outline>
    <contour>
      <point x="215" y="658" type="line"/>
      <point x="68" y="658" type="line"/>
      <point x="68" y="0" type="line"/>
      <point x="215" y="0" type="line"/>
    </contour>
    <contour>
      <point x="442" y="658" type="line"/>
      <point x="295" y="658" type="line"/>
      <point x="295" y="0" type="line"/>
      <point x="442" y="0" type="line"/>
    </contour>
  </outline>
</glyph>
<glyph name="dbldanda.sans" format="2">
  <advance width="510"/>
  <unicode hex="0965"/>
  <note>
dbldanda.orya
</note>
  <outline>
    <contour>
      <point x="215" y="751" type="line"/>
      <point x="68" y="751" type="line"/>
      <point x="68" y="93" type="line"/>
      <point x="215" y="93" type="line"/>
    </contour>
    <contour>
      <point x="442" y="751" type="line"/>
      <point x="295" y="751" type="line"/>
      <point x="295" y="93" type="line"/>
      <point x="442" y="93" type="line"/>
    </contour>
  </outline>
</glyph>
<glyph name="candraBindu-oriya" format="2">
  <unicode hex="0B01"/>
  <note>
candrabinduorya
</note>
  <anchor x="300" y="658" name="_topright"/>
  <outline>
    <contour>
      <point x="300" y="678" type="curve"/>
      <point x="300" y="678" type="line"/>
      <point x="413" y="678"/>
      <point x="483" y="768"/>
      <point x="490" y="924" type="curve"/>
      <point x="395" y="933" type="line"/>
      <point x="391" y="824"/>
      <point x="354" y="778"/>
      <point x="300" y="778" type="curve"/>
      <point x="246" y="778"/>
      <point x="208" y="824"/>
      <point x="204" y="933" type="curve"/>
      <point x="109" y="924" type="line"/>
      <point x="116" y="768"/>
      <point x="186" y="678"/>
    </contour>
    <contour>
      <point x="300" y="824" type="curve"/>
      <point x="300" y="824" type="line"/>
      <point x="331" y="824"/>
      <point x="352" y="849"/>
      <point x="352" y="887" type="curve"/>
      <point x="352" y="925"/>
      <point x="331" y="950"/>
      <point x="300" y="950" type="curve"/>
      <point x="269" y="950"/>
      <point x="248" y="925"/>
      <point x="248" y="887" type="curve"/>
      <point x="248" y="849"/>
      <point x="269" y="824"/>
    </contour>
  </outline>
</glyph>
<glyph name="candraBindu-oriya.sans" format="2">
  <unicode hex="0B01"/>
  <note>
candrabinduorya
</note>
  <anchor x="300" y="751" name="_topright"/>
  <outline>
    <contour>
      <point x="300" y="771" type="curve"/>
      <point x="300" y="771" type="line"/>
      <point x="413" y="771"/>
      <point x="483" y="861"/>
      <point x="490" y="1017" type="curve"/>
      <point x="395" y="1026" type="line"/>
      <point x="391" y="917"/>
      <point x="354" y="871"/>
      <point x="300" y="871" type="curve"/>
      <point x="246" y="871"/>
      <point x="208" y="917"/>
      <point x="204" y="1026" type="curve"/>
      <point x="109" y="1017" type="line"/>
      <point x="116" y="861"/>
      <point x="186" y="771"/>
    </contour>
    <contour>
      <point x="300" y="917" type="curve"/>
      <point x="300" y="917" type="line"/>
      <point x="331" y="917"/>
      <point x="352" y="942"/>
      <point x="352" y="980" type="curve"/>
      <point x="352" y="1018"/>
      <point x="331" y="1043"/>
      <point x="300" y="1043" type="curve"/>
      <point x="269" y="1043"/>
      <point x="248" y="1018"/>
      <point x="248" y="980" type="curve"/>
      <point x="248" y="942"/>
      <point x="269" y="917"/>
    </contour>
  </outline>
</glyph>
<glyph name="anusvara-oriya" format="2">
  <advance width="271"/>
  <unicode hex="0B02"/>
  <note>
anusvaraorya
</note>
  <outline>
    <contour>
      <point x="136" y="364" type="curve"/>
      <point x="136" y="364" type="line"/>
      <point x="217" y="364"/>
      <point x="271" y="424"/>
      <point x="271" y="515" type="curve"/>
      <point x="271" y="606"/>
      <point x="217" y="666"/>
      <point x="136" y="666" type="curve"/>
      <point x="54" y="666"/>
      <point x="0" y="606"/>
      <point x="0" y="515" type="curve"/>
      <point x="0" y="424"/>
      <point x="54" y="364"/>
    </contour>
    <contour>
      <point x="136" y="568" type="curve"/>
      <point x="136" y="568" type="line"/>
      <point x="156" y="568"/>
      <point x="166" y="550"/>
      <point x="166" y="515" type="curve"/>
      <point x="166" y="480"/>
      <point x="156" y="462"/>
      <point x="136" y="462" type="curve"/>
      <point x="115" y="462"/>
      <point x="105" y="480"/>
      <point x="105" y="515" type="curve"/>
      <point x="105" y="550"/>
      <point x="115" y="568"/>
    </contour>
  </outline>
</glyph>
<glyph name="anusvara-oriya.sans" format="2">
  <advance width="271"/>
  <unicode hex="0B02"/>
  <note>
anusvaraorya
</note>
  <outline>
    <contour>
      <point x="136" y="457" type="curve"/>
      <point x="136" y="457" type="line"/>
      <point x="217" y="457"/>
      <point x="271" y="517"/>
      <point x="271" y="608" type="curve"/>
      <point x="271" y="699"/>
      <point x="217" y="759"/>
      <point x="136" y="759" type="curve"/>
      <point x="54" y="759"/>
      <point x="0" y="699"/>
      <point x="0" y="608" type="curve"/>
      <point x="0" y="517"/>
      <point x="54" y="457"/>
    </contour>
    <contour>
      <point x="136" y="661" type="curve"/>
      <point x="136" y="661" type="line"/>
      <point x="156" y="661"/>
      <point x="166" y="643"/>
      <point x="166" y="608" type="curve"/>
      <point x="166" y="573"/>
      <point x="156" y="555"/>
      <point x="136" y="555" type="curve"/>
      <point x="115" y="555"/>
      <point x="105" y="573"/>
      <point x="105" y="608" type="curve"/>
      <point x="105" y="643"/>
      <point x="115" y="661"/>
    </contour>
  </outline>
</glyph>
<glyph name="visarga-oriya" format="2">
  <advance width="415"/>
  <unicode hex="0B03"/>
  <note>
visargaorya
</note>
  <outline>
    <contour>
      <point x="208" y="538" type="curve"/>
      <point x="208" y="538" type="line"/>
      <point x="228" y="538"/>
      <point x="241" y="524"/>
      <point x="241" y="496" type="curve"/>
      <point x="241" y="381"/>
      <point x="22" y="331"/>
      <point x="22" y="157" type="curve"/>
      <point x="22" y="58"/>
      <point x="93" y="-8"/>
      <point x="205" y="-8" type="curve"/>
      <point x="317" y="-8"/>
      <point x="393" y="59"/>
      <point x="393" y="158" type="curve"/>
      <point x="393" y="327"/>
      <point x="174" y="375"/>
      <point x="174" y="494" type="curve"/>
      <point x="174" y="525"/>
      <point x="189" y="538"/>
    </contour>
    <contour>
      <point x="208" y="666" type="curve"/>
      <point x="208" y="666" type="line"/>
      <point x="98" y="666"/>
      <point x="27" y="596"/>
      <point x="27" y="501" type="curve"/>
      <point x="27" y="334"/>
      <point x="243" y="294"/>
      <point x="243" y="167" type="curve"/>
      <point x="243" y="136"/>
      <point x="230" y="120"/>
      <point x="208" y="120" type="curve"/>
      <point x="186" y="120"/>
      <point x="172" y="136"/>
      <point x="172" y="169" type="curve"/>
      <point x="172" y="298"/>
      <point x="388" y="327"/>
      <point x="388" y="499" type="curve"/>
      <point x="388" y="598"/>
      <point x="317" y="666"/>
    </contour>
  </outline>
</glyph>
<glyph name="visarga-oriya.sans" format="2">
  <advance width="415"/>
  <unicode hex="0B03"/>
  <note>
visargaorya
</note>
  <outline>
    <contour>
      <point x="208" y="631" type="curve"/>
      <point x="208" y="631" type="line"/>
      <point x="228" y="631"/>
      <point x="241" y="617"/>
      <point x="241" y="589" type="curve"/>
      <point x="241" y="474"/>
      <point x="22" y="424"/>
      <point x="22" y="250" type="curve"/>
      <point x="22" y="151"/>
      <point x="93" y="85"/>
      <point x="205" y="85" type="curve"/>
      <point x="317" y="85"/>
      <point x="393" y="152"/>
      <point x="393" y="251" type="curve"/>
      <point x="393" y="420"/>
      <point x="174" y="468"/>
      <point x="174" y="587" type="curve"/>
      <point x="174" y="618"/>
      <point x="189" y="631"/>
    </contour>
    <contour>
      <point x="208" y="759" type="curve"/>
      <point x="208" y="759" type="line"/>
      <point x="98" y="759"/>
      <point x="27" y="689"/>
      <point x="27" y="594" type="curve"/>
      <point x="27" y="427"/>
      <point x="243" y="387"/>
      <point x="243" y="260" type="curve"/>
      <point x="243" y="229"/>
      <point x="230" y="213"/>
      <point x="208" y="213" type="curve"/>
      <point x="186" y="213"/>
      <point x="172" y="229"/>
      <point x="172" y="262" type="curve"/>
      <point x="172" y="391"/>
      <point x="388" y="420"/>
      <point x="388" y="592" type="curve"/>
      <point x="388" y="691"/>
      <point x="317" y="759"/>
    </contour>
  </outline>
</glyph>
<glyph name="a-oriya" format="2">
  <advance width="647"/>
  <unicode hex="0B05"/>
  <note>
aorya
</note>
  <anchor x="540" y="658" name="topright"/>
  <outline>
    <contour>
      <point x="234" y="-8" type="curve"/>
      <point x="234" y="-8" type="line"/>
      <point x="323" y="-8"/>
      <point x="425" y="32"/>
      <point x="502" y="112" type="curve"/>
      <point x="477" y="301" type="line"/>
      <point x="431" y="204"/>
      <point x="316" y="138"/>
      <point x="244" y="138" type="curve"/>
      <point x="207" y="138"/>
      <point x="181" y="155"/>
      <point x="181" y="192" type="curve"/>
      <point x="181" y="232"/>
      <point x="212" y="246"/>
      <point x="249" y="261" type="curve"/>
      <point x="274" y="271" type="line" smooth="yes"/>
      <point x="364" y="307"/>
      <point x="441" y="340"/>
      <point x="441" y="490" type="curve"/>
      <point x="441" y="608"/>
      <point x="395" y="666"/>
      <point x="317" y="666" type="curve"/>
      <point x="268" y="666"/>
      <point x="199" y="640"/>
      <point x="199" y="498" type="curve"/>
      <point x="243" y="498" type="line"/>
      <point x="243" y="603"/>
      <point x="210" y="666"/>
      <point x="129" y="666" type="curve"/>
      <point x="56" y="666"/>
      <point x="14" y="615"/>
      <point x="14" y="533" type="curve"/>
      <point x="14" y="504.444"/>
      <point x="20.292" y="460.157"/>
      <point x="33.375" y="422.601" type="curve"/>
      <point x="147" y="452" type="line"/>
      <point x="141" y="473"/>
      <point x="137" y="501"/>
      <point x="137" y="516" type="curve"/>
      <point x="137" y="536"/>
      <point x="144" y="548"/>
      <point x="155" y="548" type="curve"/>
      <point x="166" y="548"/>
      <point x="171" y="533"/>
      <point x="171" y="511" type="curve"/>
      <point x="171" y="453" type="line"/>
      <point x="283" y="453" type="line"/>
      <point x="283" y="511" type="line" smooth="yes"/>
      <point x="283" y="532"/>
      <point x="286" y="548"/>
      <point x="298" y="548" type="curve"/>
      <point x="311" y="548"/>
      <point x="318" y="532"/>
      <point x="318" y="502" type="curve"/>
      <point x="318" y="427"/>
      <point x="268" y="407"/>
      <point x="228" y="394" type="curve"/>
      <point x="198" y="384" type="line" smooth="yes"/>
      <point x="139" y="364"/>
      <point x="29" y="327"/>
      <point x="29" y="185" type="curve"/>
      <point x="29" y="56"/>
      <point x="122" y="-8"/>
    </contour>
    <contour>
      <point x="491" y="149" type="line"/>
      <point x="466" y="0" type="line"/>
      <point x="613" y="0" type="line"/>
      <point x="613" y="658" type="line"/>
      <point x="466" y="658" type="line"/>
      <point x="466" y="209" type="line"/>
    </contour>
  </outline>
</glyph>
<glyph name="a-oriya.sans" format="2">
  <advance width="647"/>
  <unicode hex="0B05"/>
  <note>
aorya
</note>
  <anchor x="540" y="751" name="topright"/>
  <outline>
    <contour>
      <point x="234" y="85" type="curve"/>
      <point x="234" y="85" type="line"/>
      <point x="323" y="85"/>
      <point x="425" y="125"/>
      <point x="502" y="205" type="curve"/>
      <point x="477" y="394" type="line"/>
      <point x="431" y="297"/>
      <point x="316" y="231"/>
      <point x="244" y="231" type="curve"/>
      <point x="207" y="231"/>
      <point x="181" y="248"/>
      <point x="181" y="285" type="curve"/>
      <point x="181" y="325"/>
      <point x="212" y="339"/>
      <point x="249" y="354" type="curve"/>
      <point x="274" y="364" type="line" smooth="yes"/>
      <point x="364" y="400"/>
      <point x="441" y="433"/>
      <point x="441" y="583" type="curve"/>
      <point x="441" y="701"/>
      <point x="395" y="759"/>
      <point x="317" y="759" type="curve"/>
      <point x="268" y="759"/>
      <point x="199" y="733"/>
      <point x="199" y="591" type="curve"/>
      <point x="243" y="591" type="line"/>
      <point x="243" y="696"/>
      <point x="210" y="759"/>
      <point x="129" y="759" type="curve"/>
      <point x="56" y="759"/>
      <point x="14" y="708"/>
      <point x="14" y="626" type="curve"/>
      <point x="14" y="597.444"/>
      <point x="20.292" y="553.157"/>
      <point x="33.375" y="515.601" type="curve"/>
      <point x="147" y="545" type="line"/>
      <point x="141" y="566"/>
      <point x="137" y="594"/>
      <point x="137" y="609" type="curve"/>
      <point x="137" y="629"/>
      <point x="144" y="641"/>
      <point x="155" y="641" type="curve"/>
      <point x="166" y="641"/>
      <point x="171" y="626"/>
      <point x="171" y="604" type="curve"/>
      <point x="171" y="546" type="line"/>
      <point x="283" y="546" type="line"/>
      <point x="283" y="604" type="line" smooth="yes"/>
      <point x="283" y="625"/>
      <point x="286" y="641"/>
      <point x="298" y="641" type="curve"/>
      <point x="311" y="641"/>
      <point x="318" y="625"/>
      <point x="318" y="595" type="curve"/>
      <point x="318" y="520"/>
      <point x="268" y="500"/>
      <point x="228" y="487" type="curve"/>
      <point x="198" y="477" type="line" smooth="yes"/>
      <point x="139" y="457"/>
      <point x="29" y="420"/>
      <point x="29" y="278" type="curve"/>
      <point x="29" y="149"/>
      <point x="122" y="85"/>
    </contour>
    <contour>
      <point x="491" y="242" type="line"/>
      <point x="466" y="93" type="line"/>
      <point x="613" y="93" type="line"/>
      <point x="613" y="751" type="line"/>
      <point x="466" y="751" type="line"/>
      <point x="466" y="302" type="line"/>
    </contour>
  </outline>
</glyph>
<glyph name="i-oriya" format="2">
  <advance width="742"/>
  <unicode hex="0B07"/>
  <note>
iorya
</note>
  <anchor x="576" y="658" name="topright"/>
  <outline>
    <contour>
      <point x="507" y="157" type="curve"/>
      <point x="507" y="157" type="line"/>
      <point x="606.756" y="-8.113" type="line"/>
      <point x="744.14" y="80.109" type="line"/>
      <point x="636" y="241" type="line"/>
      <point x="609" y="100" type="line"/>
      <point x="675" y="185"/>
      <point x="706" y="275"/>
      <point x="706" y="358" type="curve"/>
      <point x="706" y="527"/>
      <point x="576" y="666"/>
      <point x="351" y="666" type="curve"/>
      <point x="126" y="666"/>
      <point x="16" y="527"/>
      <point x="16" y="392" type="curve"/>
      <point x="16" y="310"/>
      <point x="58" y="227"/>
      <point x="140" y="178" type="curve"/>
      <point x="198" y="283" type="line"/>
      <point x="175" y="304"/>
      <point x="163" y="334"/>
      <point x="163" y="365" type="curve"/>
      <point x="163" y="436"/>
      <point x="219" y="520"/>
      <point x="349" y="520" type="curve"/>
      <point x="483" y="520"/>
      <point x="554" y="427"/>
      <point x="554" y="317" type="curve"/>
      <point x="554" y="265"/>
      <point x="539" y="209"/>
    </contour>
    <contour>
      <point x="206" y="-8" type="curve"/>
      <point x="206" y="-8" type="line"/>
      <point x="274" y="-8"/>
      <point x="312" y="62"/>
      <point x="312" y="174" type="curve"/>
      <point x="312" y="285"/>
      <point x="275" y="351"/>
      <point x="206" y="351" type="curve"/>
      <point x="137" y="351"/>
      <point x="86" y="284"/>
      <point x="86" y="171" type="curve"/>
      <point x="86" y="56"/>
      <point x="138" y="-8"/>
    </contour>
    <contour>
      <point x="213" y="109" type="curve"/>
      <point x="213" y="109" type="line"/>
      <point x="196" y="109"/>
      <point x="191" y="124"/>
      <point x="191" y="172" type="curve"/>
      <point x="191" y="220"/>
      <point x="196" y="234"/>
      <point x="213" y="234" type="curve"/>
      <point x="230" y="234"/>
      <point x="235" y="220"/>
      <point x="235" y="172" type="curve"/>
      <point x="235" y="124"/>
      <point x="230" y="109"/>
    </contour>
    <contour>
      <point x="369" y="-8" type="curve"/>
      <point x="369" y="-8" type="line"/>
      <point x="437" y="-8"/>
      <point x="487" y="59"/>
      <point x="487" y="173" type="curve"/>
      <point x="487" y="284"/>
      <point x="439" y="351"/>
      <point x="370" y="351" type="curve"/>
      <point x="299" y="351"/>
      <point x="259" y="281"/>
      <point x="259" y="173" type="curve"/>
      <point x="259" y="62"/>
      <point x="302" y="-8"/>
    </contour>
    <contour>
      <point x="360" y="109" type="curve"/>
      <point x="360" y="109" type="line"/>
      <point x="343" y="109"/>
      <point x="338" y="124"/>
      <point x="338" y="172" type="curve"/>
      <point x="338" y="220"/>
      <point x="343" y="234"/>
      <point x="360" y="234" type="curve"/>
      <point x="377" y="234"/>
      <point x="382" y="220"/>
      <point x="382" y="172" type="curve"/>
      <point x="382" y="124"/>
      <point x="377" y="109"/>
    </contour>
  </outline>
</glyph>
<glyph name="i-oriya.sans" format="2">
  <advance width="742"/>
  <unicode hex="0B07"/>
  <note>
iorya
</note>
  <anchor x="576" y="751" name="topright"/>
  <outline>
    <contour>
      <point x="507" y="250" type="curve"/>
      <point x="507" y="250" type="line"/>
      <point x="606.756" y="84.887" type="line"/>
      <point x="744.14" y="173.109" type="line"/>
      <point x="636" y="334" type="line"/>
      <point x="609" y="193" type="line"/>
      <point x="675" y="278"/>
      <point x="706" y="368"/>
      <point x="706" y="451" type="curve"/>
      <point x="706" y="620"/>
      <point x="576" y="759"/>
      <point x="351" y="759" type="curve"/>
      <point x="126" y="759"/>
      <point x="16" y="620"/>
      <point x="16" y="485" type="curve"/>
      <point x="16" y="403"/>
      <point x="58" y="320"/>
      <point x="140" y="271" type="curve"/>
      <point x="198" y="376" type="line"/>
      <point x="175" y="397"/>
      <point x="163" y="427"/>
      <point x="163" y="458" type="curve"/>
      <point x="163" y="529"/>
      <point x="219" y="613"/>
      <point x="349" y="613" type="curve"/>
      <point x="483" y="613"/>
      <point x="554" y="520"/>
      <point x="554" y="410" type="curve"/>
      <point x="554" y="358"/>
      <point x="539" y="302"/>
    </contour>
    <contour>
      <point x="206" y="85" type="curve"/>
      <point x="206" y="85" type="line"/>
      <point x="274" y="85"/>
      <point x="312" y="155"/>
      <point x="312" y="267" type="curve"/>
      <point x="312" y="378"/>
      <point x="275" y="444"/>
      <point x="206" y="444" type="curve"/>
      <point x="137" y="444"/>
      <point x="86" y="377"/>
      <point x="86" y="264" type="curve"/>
      <point x="86" y="149"/>
      <point x="138" y="85"/>
    </contour>
    <contour>
      <point x="213" y="202" type="curve"/>
      <point x="213" y="202" type="line"/>
      <point x="196" y="202"/>
      <point x="191" y="217"/>
      <point x="191" y="265" type="curve"/>
      <point x="191" y="313"/>
      <point x="196" y="327"/>
      <point x="213" y="327" type="curve"/>
      <point x="230" y="327"/>
      <point x="235" y="313"/>
      <point x="235" y="265" type="curve"/>
      <point x="235" y="217"/>
      <point x="230" y="202"/>
    </contour>
    <contour>
      <point x="369" y="85" type="curve"/>
      <point x="369" y="85" type="line"/>
      <point x="437" y="85"/>
      <point x="487" y="152"/>
      <point x="487" y="266" type="curve"/>
      <point x="487" y="377"/>
      <point x="439" y="444"/>
      <point x="370" y="444" type="curve"/>
      <point x="299" y="444"/>
      <point x="259" y="374"/>
      <point x="259" y="266" type="curve"/>
      <point x="259" y="155"/>
      <point x="302" y="85"/>
    </contour>
    <contour>
      <point x="360" y="202" type="curve"/>
      <point x="360" y="202" type="line"/>
      <point x="343" y="202"/>
      <point x="338" y="217"/>
      <point x="338" y="265" type="curve"/>
      <point x="338" y="313"/>
      <point x="343" y="327"/>
      <point x="360" y="327" type="curve"/>
      <point x="377" y="327"/>
      <point x="382" y="313"/>
      <point x="382" y="265" type="curve"/>
      <point x="382" y="217"/>
      <point x="377" y="202"/>
    </contour>
  </outline>
</glyph>
<glyph name="ii-oriya" format="2">
  <advance width="726"/>
  <unicode hex="0B08"/>
  <note>
iiorya
</note>
  <anchor x="558" y="658" name="topright"/>
  <outline>
    <contour>
      <point x="491" y="157" type="curve"/>
      <point x="491" y="157" type="line"/>
      <point x="590.756" y="-8.113" type="line"/>
      <point x="728.14" y="80.109" type="line"/>
      <point x="620" y="241" type="line"/>
      <point x="599" y="100" type="line"/>
      <point x="659" y="175"/>
      <point x="688" y="270"/>
      <point x="688" y="360" type="curve"/>
      <point x="688" y="562"/>
      <point x="543" y="666"/>
      <point x="386" y="666" type="curve"/>
      <point x="215" y="666"/>
      <point x="110" y="542"/>
      <point x="102" y="417" type="curve"/>
      <point x="238" y="417" type="line"/>
      <point x="253" y="480"/>
      <point x="305" y="520"/>
      <point x="376" y="520" type="curve"/>
      <point x="465" y="520"/>
      <point x="536" y="458"/>
      <point x="536" y="331" type="curve"/>
      <point x="536" y="270"/>
      <point x="520" y="205"/>
    </contour>
    <contour>
      <point x="202" y="-8" type="curve"/>
      <point x="202" y="-8" type="line"/>
      <point x="270" y="-8"/>
      <point x="307" y="62"/>
      <point x="307" y="168" type="curve"/>
      <point x="307" y="275"/>
      <point x="269" y="341"/>
      <point x="204" y="341" type="curve"/>
      <point x="136" y="341"/>
      <point x="86" y="274"/>
      <point x="86" y="166" type="curve"/>
      <point x="86" y="58"/>
      <point x="136" y="-8"/>
    </contour>
    <contour>
      <point x="208" y="109" type="curve"/>
      <point x="208" y="109" type="line"/>
      <point x="193" y="109"/>
      <point x="186" y="129"/>
      <point x="186" y="167" type="curve"/>
      <point x="186" y="205"/>
      <point x="193" y="224"/>
      <point x="208" y="224" type="curve"/>
      <point x="223" y="224"/>
      <point x="230" y="208"/>
      <point x="230" y="167" type="curve"/>
      <point x="230" y="128"/>
      <point x="223" y="109"/>
    </contour>
    <contour>
      <point x="358" y="-8" type="curve"/>
      <point x="358" y="-8" type="line"/>
      <point x="423" y="-8"/>
      <point x="471" y="59"/>
      <point x="471" y="168" type="curve"/>
      <point x="471" y="274"/>
      <point x="425" y="341"/>
      <point x="356" y="341" type="curve"/>
      <point x="291" y="341"/>
      <point x="248" y="275"/>
      <point x="248" y="167" type="curve"/>
      <point x="248" y="62"/>
      <point x="291" y="-8"/>
    </contour>
    <contour>
      <point x="349" y="109" type="curve"/>
      <point x="349" y="109" type="line"/>
      <point x="334" y="109"/>
      <point x="327" y="128"/>
      <point x="327" y="167" type="curve"/>
      <point x="327" y="208"/>
      <point x="334" y="224"/>
      <point x="349" y="224" type="curve"/>
      <point x="364" y="224"/>
      <point x="371" y="205"/>
      <point x="371" y="167" type="curve"/>
      <point x="371" y="129"/>
      <point x="364" y="109"/>
    </contour>
    <contour>
      <point x="141" y="150" type="curve"/>
      <point x="141" y="150" type="line"/>
      <point x="176" y="242" type="line"/>
      <point x="152" y="262"/>
      <point x="138" y="287"/>
      <point x="138" y="311" type="curve"/>
      <point x="138" y="351"/>
      <point x="179" y="373"/>
      <point x="223" y="373" type="curve"/>
      <point x="250.979" y="373"/>
      <point x="280.228" y="364.109"/>
      <point x="300.554" y="345.501" type="curve"/>
      <point x="370.816" y="433.872" type="line"/>
      <point x="330.51" y="481.224"/>
      <point x="269.899" y="504"/>
      <point x="210" y="504" type="curve"/>
      <point x="112" y="504"/>
      <point x="16" y="442"/>
      <point x="16" y="326" type="curve"/>
      <point x="16" y="258"/>
      <point x="49" y="191"/>
    </contour>
  </outline>
</glyph>
<glyph name="ii-oriya.sans" format="2">
  <advance width="726"/>
  <unicode hex="0B08"/>
  <note>
iiorya
</note>
  <anchor x="558" y="751" name="topright"/>
  <outline>
    <contour>
      <point x="491" y="250" type="curve"/>
      <point x="491" y="250" type="line"/>
      <point x="590.756" y="84.887" type="line"/>
      <point x="728.14" y="173.109" type="line"/>
      <point x="620" y="334" type="line"/>
      <point x="599" y="193" type="line"/>
      <point x="659" y="268"/>
      <point x="688" y="363"/>
      <point x="688" y="453" type="curve"/>
      <point x="688" y="655"/>
      <point x="543" y="759"/>
      <point x="386" y="759" type="curve"/>
      <point x="215" y="759"/>
      <point x="110" y="635"/>
      <point x="102" y="510" type="curve"/>
      <point x="238" y="510" type="line"/>
      <point x="253" y="573"/>
      <point x="305" y="613"/>
      <point x="376" y="613" type="curve"/>
      <point x="465" y="613"/>
      <point x="536" y="551"/>
      <point x="536" y="424" type="curve"/>
      <point x="536" y="363"/>
      <point x="520" y="298"/>
    </contour>
    <contour>
      <point x="202" y="85" type="curve"/>
      <point x="202" y="85" type="line"/>
      <point x="270" y="85"/>
      <point x="307" y="155"/>
      <point x="307" y="261" type="curve"/>
      <point x="307" y="368"/>
      <point x="269" y="434"/>
      <point x="204" y="434" type="curve"/>
      <point x="136" y="434"/>
      <point x="86" y="367"/>
      <point x="86" y="259" type="curve"/>
      <point x="86" y="151"/>
      <point x="136" y="85"/>
    </contour>
    <contour>
      <point x="208" y="202" type="curve"/>
      <point x="208" y="202" type="line"/>
      <point x="193" y="202"/>
      <point x="186" y="222"/>
      <point x="186" y="260" type="curve"/>
      <point x="186" y="298"/>
      <point x="193" y="317"/>
      <point x="208" y="317" type="curve"/>
      <point x="223" y="317"/>
      <point x="230" y="301"/>
      <point x="230" y="260" type="curve"/>
      <point x="230" y="221"/>
      <point x="223" y="202"/>
    </contour>
    <contour>
      <point x="358" y="85" type="curve"/>
      <point x="358" y="85" type="line"/>
      <point x="423" y="85"/>
      <point x="471" y="152"/>
      <point x="471" y="261" type="curve"/>
      <point x="471" y="367"/>
      <point x="425" y="434"/>
      <point x="356" y="434" type="curve"/>
      <point x="291" y="434"/>
      <point x="248" y="368"/>
      <point x="248" y="260" type="curve"/>
      <point x="248" y="155"/>
      <point x="291" y="85"/>
    </contour>
    <contour>
      <point x="349" y="202" type="curve"/>
      <point x="349" y="202" type="line"/>
      <point x="334" y="202"/>
      <point x="327" y="221"/>
      <point x="327" y="260" type="curve"/>
      <point x="327" y="301"/>
      <point x="334" y="317"/>
      <point x="349" y="317" type="curve"/>
      <point x="364" y="317"/>
      <point x="371" y="298"/>
      <point x="371" y="260" type="curve"/>
      <point x="371" y="222"/>
      <point x="364" y="202"/>
    </contour>
    <contour>
      <point x="141" y="243" type="curve"/>
      <point x="141" y="243" type="line"/>
      <point x="176" y="335" type="line"/>
      <point x="152" y="355"/>
      <point x="138" y="380"/>
      <point x="138" y="404" type="curve"/>
      <point x="138" y="444"/>
      <point x="179" y="466"/>
      <point x="223" y="466" type="curve"/>
      <point x="250.979" y="466"/>
      <point x="280.228" y="457.109"/>
      <point x="300.554" y="438.501" type="curve"/>
      <point x="370.816" y="526.872" type="line"/>
      <point x="330.51" y="574.224"/>
      <point x="269.899" y="597"/>
      <point x="210" y="597" type="curve"/>
      <point x="112" y="597"/>
      <point x="16" y="535"/>
      <point x="16" y="419" type="curve"/>
      <point x="16" y="351"/>
      <point x="49" y="284"/>
    </contour>
  </outline>
</glyph>
<glyph name="u-oriya" format="2">
  <advance width="757"/>
  <unicode hex="0B09"/>
  <note>
uorya
</note>
  <anchor x="591" y="658" name="topright"/>
  <outline>
    <contour>
      <point x="356" y="520" type="curve"/>
      <point x="356" y="520" type="line"/>
      <point x="498" y="520"/>
      <point x="569" y="427"/>
      <point x="569" y="316" type="curve"/>
      <point x="569" y="265"/>
      <point x="554" y="209"/>
      <point x="522" y="157" type="curve"/>
      <point x="621.756" y="-8.113" type="line"/>
      <point x="759.14" y="80.109" type="line"/>
      <point x="651" y="241" type="line"/>
      <point x="624" y="100" type="line"/>
      <point x="690" y="185"/>
      <point x="721" y="275"/>
      <point x="721" y="358" type="curve"/>
      <point x="721" y="527"/>
      <point x="591" y="666"/>
      <point x="359" y="666" type="curve"/>
      <point x="129" y="666"/>
      <point x="16" y="527"/>
      <point x="16" y="397" type="curve"/>
      <point x="16" y="315"/>
      <point x="61" y="233"/>
      <point x="150" y="184" type="curve"/>
      <point x="206" y="279" type="line"/>
      <point x="177" y="300"/>
      <point x="163" y="330"/>
      <point x="163" y="365" type="curve"/>
      <point x="163" y="436"/>
      <point x="221" y="520"/>
    </contour>
    <contour>
      <point x="304" y="-8" type="curve"/>
      <point x="304" y="-8" type="line"/>
      <point x="421" y="-8"/>
      <point x="502" y="64"/>
      <point x="502" y="168" type="curve"/>
      <point x="502" y="236"/>
      <point x="468" y="304"/>
      <point x="390" y="343" type="curve"/>
      <point x="326" y="253" type="line"/>
      <point x="362" y="232"/>
      <point x="379" y="203"/>
      <point x="379" y="177" type="curve"/>
      <point x="379" y="144"/>
      <point x="352" y="117"/>
      <point x="303" y="117" type="curve"/>
      <point x="247" y="117"/>
      <point x="220" y="152"/>
      <point x="220" y="198" type="curve"/>
      <point x="220" y="248"/>
      <point x="249" y="303"/>
      <point x="304" y="355" type="curve"/>
      <point x="237" y="436" type="line"/>
      <point x="143" y="369"/>
      <point x="96" y="280"/>
      <point x="96" y="192" type="curve"/>
      <point x="96" y="75"/>
      <point x="179" y="-8"/>
    </contour>
    <contour>
      <point x="243" y="245" type="line"/>
      <point x="320" y="177" type="line"/>
      <point x="466" y="354" type="line"/>
      <point x="389" y="422" type="line"/>
    </contour>
  </outline>
</glyph>
<glyph name="u-oriya.sans" format="2">
  <advance width="757"/>
  <unicode hex="0B09"/>
  <note>
uorya
</note>
  <anchor x="591" y="751" name="topright"/>
  <outline>
    <contour>
      <point x="356" y="613" type="curve"/>
      <point x="356" y="613" type="line"/>
      <point x="498" y="613"/>
      <point x="569" y="520"/>
      <point x="569" y="409" type="curve"/>
      <point x="569" y="358"/>
      <point x="554" y="302"/>
      <point x="522" y="250" type="curve"/>
      <point x="621.756" y="84.887" type="line"/>
      <point x="759.14" y="173.109" type="line"/>
      <point x="651" y="334" type="line"/>
      <point x="624" y="193" type="line"/>
      <point x="690" y="278"/>
      <point x="721" y="368"/>
      <point x="721" y="451" type="curve"/>
      <point x="721" y="620"/>
      <point x="591" y="759"/>
      <point x="359" y="759" type="curve"/>
      <point x="129" y="759"/>
      <point x="16" y="620"/>
      <point x="16" y="490" type="curve"/>
      <point x="16" y="408"/>
      <point x="61" y="326"/>
      <point x="150" y="277" type="curve"/>
      <point x="206" y="372" type="line"/>
      <point x="177" y="393"/>
      <point x="163" y="423"/>
      <point x="163" y="458" type="curve"/>
      <point x="163" y="529"/>
      <point x="221" y="613"/>
    </contour>
    <contour>
      <point x="304" y="85" type="curve"/>
      <point x="304" y="85" type="line"/>
      <point x="421" y="85"/>
      <point x="502" y="157"/>
      <point x="502" y="261" type="curve"/>
      <point x="502" y="329"/>
      <point x="468" y="397"/>
      <point x="390" y="436" type="curve"/>
      <point x="326" y="346" type="line"/>
      <point x="362" y="325"/>
      <point x="379" y="296"/>
      <point x="379" y="270" type="curve"/>
      <point x="379" y="237"/>
      <point x="352" y="210"/>
      <point x="303" y="210" type="curve"/>
      <point x="247" y="210"/>
      <point x="220" y="245"/>
      <point x="220" y="291" type="curve"/>
      <point x="220" y="341"/>
      <point x="249" y="396"/>
      <point x="304" y="448" type="curve"/>
      <point x="237" y="529" type="line"/>
      <point x="143" y="462"/>
      <point x="96" y="373"/>
      <point x="96" y="285" type="curve"/>
      <point x="96" y="168"/>
      <point x="179" y="85"/>
    </contour>
    <contour>
      <point x="243" y="338" type="line"/>
      <point x="320" y="270" type="line"/>
      <point x="466" y="447" type="line"/>
      <point x="389" y="515" type="line"/>
    </contour>
  </outline>
</glyph>
<glyph name="uu-oriya" format="2">
  <advance width="783"/>
  <unicode hex="0B0A"/>
  <note>
uuorya
</note>
  <anchor x="572" y="658" name="topright"/>
  <outline>
    <contour>
      <point x="139" y="189" type="curve"/>
      <point x="139" y="189" type="line"/>
      <point x="196" y="286" type="line"/>
      <point x="173" y="314"/>
      <point x="162" y="339"/>
      <point x="162" y="370" type="curve"/>
      <point x="162" y="447"/>
      <point x="228" y="520"/>
      <point x="355" y="520" type="curve"/>
      <point x="473" y="520"/>
      <point x="554" y="456"/>
      <point x="554" y="363" type="curve"/>
      <point x="554" y="340"/>
      <point x="549" y="314"/>
      <point x="537" y="287" type="curve"/>
      <point x="686" y="321" type="line"/>
      <point x="697" y="352"/>
      <point x="702" y="381"/>
      <point x="702" y="409" type="curve"/>
      <point x="702" y="558"/>
      <point x="559" y="666"/>
      <point x="361" y="666" type="curve"/>
      <point x="137" y="666"/>
      <point x="16" y="529"/>
      <point x="16" y="392" type="curve"/>
      <point x="16" y="314"/>
      <point x="56" y="242"/>
    </contour>
    <contour>
      <point x="522" y="157" type="line"/>
      <point x="621.756" y="-8.113" type="line"/>
      <point x="756.198" y="78.22" type="line"/>
      <point x="655" y="218" type="line"/>
      <point x="605" y="133" type="line"/>
      <point x="712" y="133"/>
      <point x="767" y="195"/>
      <point x="767" y="255" type="curve"/>
      <point x="767" y="313"/>
      <point x="717" y="369"/>
      <point x="616" y="369" type="curve"/>
      <point x="537" y="287" type="line"/>
      <point x="596" y="287"/>
      <point x="623" y="264"/>
      <point x="623" y="242" type="curve"/>
      <point x="623" y="222"/>
      <point x="600" y="203"/>
      <point x="557" y="203" type="curve"/>
    </contour>
    <contour>
      <point x="304" y="-8" type="curve"/>
      <point x="304" y="-8" type="line"/>
      <point x="423" y="-8"/>
      <point x="502" y="67"/>
      <point x="502" y="172" type="curve"/>
      <point x="502" y="241"/>
      <point x="468" y="304"/>
      <point x="390" y="343" type="curve"/>
      <point x="326" y="253" type="line"/>
      <point x="362" y="232"/>
      <point x="379" y="203"/>
      <point x="379" y="177" type="curve"/>
      <point x="379" y="144"/>
      <point x="352" y="117"/>
      <point x="303" y="117" type="curve"/>
      <point x="247" y="117"/>
      <point x="220" y="152"/>
      <point x="220" y="198" type="curve"/>
      <point x="220" y="248"/>
      <point x="249" y="303"/>
      <point x="304" y="355" type="curve"/>
      <point x="237" y="436" type="line"/>
      <point x="143" y="369"/>
      <point x="96" y="280"/>
      <point x="96" y="192" type="curve"/>
      <point x="96" y="75"/>
      <point x="179" y="-8"/>
    </contour>
    <contour>
      <point x="243" y="245" type="line"/>
      <point x="320" y="177" type="line"/>
      <point x="466" y="354" type="line"/>
      <point x="389" y="422" type="line"/>
    </contour>
  </outline>
</glyph>
<glyph name="uu-oriya.sans" format="2">
  <advance width="783"/>
  <unicode hex="0B0A"/>
  <note>
uuorya
</note>
  <anchor x="572" y="751" name="topright"/>
  <outline>
    <contour>
      <point x="139" y="282" type="curve"/>
      <point x="139" y="282" type="line"/>
      <point x="196" y="379" type="line"/>
      <point x="173" y="407"/>
      <point x="162" y="432"/>
      <point x="162" y="463" type="curve"/>
      <point x="162" y="540"/>
      <point x="228" y="613"/>
      <point x="355" y="613" type="curve"/>
      <point x="473" y="613"/>
      <point x="554" y="549"/>
      <point x="554" y="456" type="curve"/>
      <point x="554" y="433"/>
      <point x="549" y="407"/>
      <point x="537" y="380" type="curve"/>
      <point x="686" y="414" type="line"/>
      <point x="697" y="445"/>
      <point x="702" y="474"/>
      <point x="702" y="502" type="curve"/>
      <point x="702" y="651"/>
      <point x="559" y="759"/>
      <point x="361" y="759" type="curve"/>
      <point x="137" y="759"/>
      <point x="16" y="622"/>
      <point x="16" y="485" type="curve"/>
      <point x="16" y="407"/>
      <point x="56" y="335"/>
    </contour>
    <contour>
      <point x="522" y="250" type="line"/>
      <point x="621.756" y="84.887" type="line"/>
      <point x="756.198" y="171.22" type="line"/>
      <point x="655" y="311" type="line"/>
      <point x="605" y="226" type="line"/>
      <point x="712" y="226"/>
      <point x="767" y="288"/>
      <point x="767" y="348" type="curve"/>
      <point x="767" y="406"/>
      <point x="717" y="462"/>
      <point x="616" y="462" type="curve"/>
      <point x="537" y="380" type="line"/>
      <point x="596" y="380"/>
      <point x="623" y="357"/>
      <point x="623" y="335" type="curve"/>
      <point x="623" y="315"/>
      <point x="600" y="296"/>
      <point x="557" y="296" type="curve"/>
    </contour>
    <contour>
      <point x="304" y="85" type="curve"/>
      <point x="304" y="85" type="line"/>
      <point x="423" y="85"/>
      <point x="502" y="160"/>
      <point x="502" y="265" type="curve"/>
      <point x="502" y="334"/>
      <point x="468" y="397"/>
      <point x="390" y="436" type="curve"/>
      <point x="326" y="346" type="line"/>
      <point x="362" y="325"/>
      <point x="379" y="296"/>
      <point x="379" y="270" type="curve"/>
      <point x="379" y="237"/>
      <point x="352" y="210"/>
      <point x="303" y="210" type="curve"/>
      <point x="247" y="210"/>
      <point x="220" y="245"/>
      <point x="220" y="291" type="curve"/>
      <point x="220" y="341"/>
      <point x="249" y="396"/>
      <point x="304" y="448" type="curve"/>
      <point x="237" y="529" type="line"/>
      <point x="143" y="462"/>
      <point x="96" y="373"/>
      <point x="96" y="285" type="curve"/>
      <point x="96" y="168"/>
      <point x="179" y="85"/>
    </contour>
    <contour>
      <point x="243" y="338" type="line"/>
      <point x="320" y="270" type="line"/>
      <point x="466" y="447" type="line"/>
      <point x="389" y="515" type="line"/>
    </contour>
  </outline>
</glyph>
<glyph name="lVocalic-oriya" format="2">
  <advance width="507"/>
  <unicode hex="0B0C"/>
  <note>
lvocalicorya
</note>
  <anchor x="247" y="658" name="topright"/>
  <outline>
    <contour>
      <point x="172" y="181" type="curve"/>
      <point x="172" y="181" type="line"/>
      <point x="172" y="231"/>
      <point x="202" y="254"/>
      <point x="271" y="288" type="curve"/>
      <point x="285" y="295" type="line" smooth="yes"/>
      <point x="369" y="337"/>
      <point x="438" y="381"/>
      <point x="438" y="486" type="curve"/>
      <point x="438" y="605"/>
      <point x="365" y="666"/>
      <point x="247" y="666" type="curve"/>
      <point x="119" y="666"/>
      <point x="48" y="594"/>
      <point x="48" y="490" type="curve"/>
      <point x="48" y="459"/>
      <point x="54" y="428"/>
      <point x="65" y="394" type="curve"/>
      <point x="207.862" y="436.997" type="line"/>
      <point x="200.974" y="453.31"/>
      <point x="197" y="469.149"/>
      <point x="197" y="483" type="curve"/>
      <point x="197" y="509"/>
      <point x="211" y="530"/>
      <point x="246" y="530" type="curve"/>
      <point x="282" y="530"/>
      <point x="290" y="508"/>
      <point x="290" y="488" type="curve"/>
      <point x="289" y="446"/>
      <point x="244" y="426"/>
      <point x="185" y="397" type="curve"/>
      <point x="177" y="393" type="line" smooth="yes"/>
      <point x="101" y="355"/>
      <point x="24" y="313"/>
      <point x="24" y="192" type="curve"/>
      <point x="24" y="54"/>
      <point x="135" y="-8"/>
      <point x="264" y="-8" type="curve"/>
      <point x="388" y="-8"/>
      <point x="491" y="50"/>
      <point x="491" y="165" type="curve"/>
      <point x="491" y="254"/>
      <point x="430" y="296"/>
      <point x="359" y="296" type="curve"/>
      <point x="276" y="296"/>
      <point x="219" y="238"/>
      <point x="219" y="150" type="curve"/>
      <point x="219" y="99"/>
      <point x="238" y="45"/>
      <point x="278" y="-1" type="curve"/>
      <point x="376" y="25" type="line"/>
      <point x="347" y="54"/>
      <point x="325" y="114"/>
      <point x="325" y="155" type="curve"/>
      <point x="325" y="176"/>
      <point x="331" y="192"/>
      <point x="347" y="192" type="curve"/>
      <point x="360" y="192"/>
      <point x="365" y="181"/>
      <point x="365" y="164" type="curve"/>
      <point x="365" y="125"/>
      <point x="338" y="108"/>
      <point x="280" y="108" type="curve"/>
      <point x="210" y="108"/>
      <point x="172" y="132"/>
    </contour>
  </outline>
</glyph>
<glyph name="lVocalic-oriya.sans" format="2">
  <advance width="507"/>
  <unicode hex="0B0C"/>
  <note>
lvocalicorya
</note>
  <anchor x="247" y="751" name="topright"/>
  <outline>
    <contour>
      <point x="172" y="274" type="curve"/>
      <point x="172" y="274" type="line"/>
      <point x="172" y="324"/>
      <point x="202" y="347"/>
      <point x="271" y="381" type="curve"/>
      <point x="285" y="388" type="line" smooth="yes"/>
      <point x="369" y="430"/>
      <point x="438" y="474"/>
      <point x="438" y="579" type="curve"/>
      <point x="438" y="698"/>
      <point x="365" y="759"/>
      <point x="247" y="759" type="curve"/>
      <point x="119" y="759"/>
      <point x="48" y="687"/>
      <point x="48" y="583" type="curve"/>
      <point x="48" y="552"/>
      <point x="54" y="521"/>
      <point x="65" y="487" type="curve"/>
      <point x="207.862" y="529.997" type="line"/>
      <point x="200.974" y="546.31"/>
      <point x="197" y="562.149"/>
      <point x="197" y="576" type="curve"/>
      <point x="197" y="602"/>
      <point x="211" y="623"/>
      <point x="246" y="623" type="curve"/>
      <point x="282" y="623"/>
      <point x="290" y="601"/>
      <point x="290" y="581" type="curve"/>
      <point x="289" y="539"/>
      <point x="244" y="519"/>
      <point x="185" y="490" type="curve"/>
      <point x="177" y="486" type="line" smooth="yes"/>
      <point x="101" y="448"/>
      <point x="24" y="406"/>
      <point x="24" y="285" type="curve"/>
      <point x="24" y="147"/>
      <point x="135" y="85"/>
      <point x="264" y="85" type="curve"/>
      <point x="388" y="85"/>
      <point x="491" y="143"/>
      <point x="491" y="258" type="curve"/>
      <point x="491" y="347"/>
      <point x="430" y="389"/>
      <point x="359" y="389" type="curve"/>
      <point x="276" y="389"/>
      <point x="219" y="331"/>
      <point x="219" y="243" type="curve"/>
      <point x="219" y="192"/>
      <point x="238" y="138"/>
      <point x="278" y="92" type="curve"/>
      <point x="376" y="118" type="line"/>
      <point x="347" y="147"/>
      <point x="325" y="207"/>
      <point x="325" y="248" type="curve"/>
      <point x="325" y="269"/>
      <point x="331" y="285"/>
      <point x="347" y="285" type="curve"/>
      <point x="360" y="285"/>
      <point x="365" y="274"/>
      <point x="365" y="257" type="curve"/>
      <point x="365" y="218"/>
      <point x="338" y="201"/>
      <point x="280" y="201" type="curve"/>
      <point x="210" y="201"/>
      <point x="172" y="225"/>
    </contour>
  </outline>
</glyph>
<glyph name="e-oriya" format="2">
  <advance width="589"/>
  <unicode hex="0B0F"/>
  <note>
eorya
</note>
  <anchor x="482" y="658" name="topright"/>
  <outline>
    <contour>
      <point x="252" y="490" type="curve"/>
      <point x="252" y="490" type="line"/>
      <point x="323" y="424" type="line"/>
      <point x="323" y="490"/>
      <point x="363" y="518"/>
      <point x="440" y="518" type="curve"/>
      <point x="408" y="571" type="line"/>
      <point x="408" y="115" type="line"/>
      <point x="457" y="124" type="line"/>
      <point x="337.612" y="212.204"/>
      <point x="215.05" y="352.005"/>
      <point x="99.213" y="499.554" type="curve"/>
      <point x="-19.649" y="395.965" type="line"/>
      <point x="102.492" y="249.427"/>
      <point x="233.026" y="106.975"/>
      <point x="380" y="0" type="curve"/>
      <point x="555" y="0" type="line"/>
      <point x="555" y="658" type="line"/>
      <point x="490" y="658" type="line" smooth="yes"/>
      <point x="299" y="658"/>
      <point x="216" y="534"/>
      <point x="216" y="436" type="curve"/>
      <point x="216" y="363"/>
      <point x="263" y="325"/>
      <point x="310" y="325" type="curve"/>
      <point x="362" y="325"/>
      <point x="389" y="370"/>
      <point x="389" y="415" type="curve"/>
      <point x="389" y="461"/>
      <point x="361" y="508"/>
      <point x="304" y="508" type="curve"/>
      <point x="286" y="508"/>
      <point x="268" y="502"/>
    </contour>
  </outline>
</glyph>
<glyph name="e-oriya.sans" format="2">
  <advance width="589"/>
  <unicode hex="0B0F"/>
  <note>
eorya
</note>
  <anchor x="482" y="751" name="topright"/>
  <outline>
    <contour>
      <point x="252" y="583" type="curve"/>
      <point x="252" y="583" type="line"/>
      <point x="323" y="517" type="line"/>
      <point x="323" y="583"/>
      <point x="363" y="611"/>
      <point x="440" y="611" type="curve"/>
      <point x="408" y="664" type="line"/>
      <point x="408" y="208" type="line"/>
      <point x="457" y="217" type="line"/>
      <point x="337.612" y="305.204"/>
      <point x="215.05" y="445.005"/>
      <point x="99.213" y="592.554" type="curve"/>
      <point x="-19.649" y="488.965" type="line"/>
      <point x="102.492" y="342.427"/>
      <point x="233.026" y="199.975"/>
      <point x="380" y="93" type="curve"/>
      <point x="555" y="93" type="line"/>
      <point x="555" y="751" type="line"/>
      <point x="490" y="751" type="line" smooth="yes"/>
      <point x="299" y="751"/>
      <point x="216" y="627"/>
      <point x="216" y="529" type="curve"/>
      <point x="216" y="456"/>
      <point x="263" y="418"/>
      <point x="310" y="418" type="curve"/>
      <point x="362" y="418"/>
      <point x="389" y="463"/>
      <point x="389" y="508" type="curve"/>
      <point x="389" y="554"/>
      <point x="361" y="601"/>
      <point x="304" y="601" type="curve"/>
      <point x="286" y="601"/>
      <point x="268" y="595"/>
    </contour>
  </outline>
</glyph>
<glyph name="ai-oriya" format="2">
  <advance width="804"/>
  <unicode hex="0B10"/>
  <note>
aiorya
</note>
  <outline>
    <contour>
      <point x="594" y="270" type="curve"/>
      <point x="594" y="270" type="line"/>
      <point x="616" y="270"/>
      <point x="639" y="274"/>
      <point x="651" y="282" type="curve"/>
      <point x="651" y="433" type="line"/>
      <point x="639" y="425"/>
      <point x="616" y="420"/>
      <point x="595" y="420" type="curve"/>
      <point x="575" y="420"/>
      <point x="551" y="425"/>
      <point x="535" y="433" type="curve"/>
      <point x="535" y="282" type="line"/>
      <point x="550" y="274"/>
      <point x="573" y="270"/>
    </contour>
    <contour>
      <point x="252" y="490" type="curve"/>
      <point x="252" y="490" type="line"/>
      <point x="323" y="424" type="line"/>
      <point x="323" y="490"/>
      <point x="363" y="518"/>
      <point x="440" y="518" type="curve"/>
      <point x="408" y="571" type="line"/>
      <point x="408" y="115" type="line"/>
      <point x="457" y="124" type="line"/>
      <point x="337.612" y="212.204"/>
      <point x="215.05" y="352.005"/>
      <point x="99.213" y="499.554" type="curve"/>
      <point x="-19.649" y="395.965" type="line"/>
      <point x="102.492" y="249.427"/>
      <point x="233.026" y="106.975"/>
      <point x="380" y="0" type="curve"/>
      <point x="555" y="0" type="line"/>
      <point x="555" y="658" type="line"/>
      <point x="490" y="658" type="line" smooth="yes"/>
      <point x="299" y="658"/>
      <point x="216" y="534"/>
      <point x="216" y="436" type="curve"/>
      <point x="216" y="363"/>
      <point x="263" y="325"/>
      <point x="310" y="325" type="curve"/>
      <point x="362" y="325"/>
      <point x="389" y="370"/>
      <point x="389" y="415" type="curve"/>
      <point x="389" y="461"/>
      <point x="361" y="508"/>
      <point x="304" y="508" type="curve"/>
      <point x="286" y="508"/>
      <point x="268" y="502"/>
    </contour>
    <contour>
      <point x="770" y="727" type="line"/>
      <point x="733" y="629" type="line"/>
      <point x="793" y="668"/>
      <point x="820" y="737"/>
      <point x="820" y="792" type="curve"/>
      <point x="820" y="871"/>
      <point x="767" y="941"/>
      <point x="674" y="941" type="curve"/>
      <point x="594" y="941"/>
      <point x="491" y="890"/>
      <point x="440" y="890" type="curve"/>
      <point x="413.946" y="890"/>
      <point x="393.987" y="903.299"/>
      <point x="376" y="932.373" type="curve"/>
      <point x="260.221" y="845.221" type="line"/>
      <point x="303.015" y="756.628"/>
      <point x="358.454" y="744"/>
      <point x="408" y="744" type="curve"/>
      <point x="507" y="744"/>
      <point x="580" y="795"/>
      <point x="628" y="795" type="curve"/>
      <point x="655" y="795"/>
      <point x="669" y="779"/>
      <point x="669" y="759" type="curve"/>
      <point x="669" y="738"/>
      <point x="654" y="712"/>
      <point x="623" y="696" type="curve"/>
      <point x="623" y="0" type="line"/>
      <point x="770" y="0" type="line"/>
    </contour>
  </outline>
</glyph>
<glyph name="ai-oriya.sans" format="2">
  <advance width="804"/>
  <unicode hex="0B10"/>
  <note>
aiorya
</note>
  <outline>
    <contour>
      <point x="594" y="363" type="curve"/>
      <point x="594" y="363" type="line"/>
      <point x="616" y="363"/>
      <point x="639" y="367"/>
      <point x="651" y="375" type="curve"/>
      <point x="651" y="526" type="line"/>
      <point x="639" y="518"/>
      <point x="616" y="513"/>
      <point x="595" y="513" type="curve"/>
      <point x="575" y="513"/>
      <point x="551" y="518"/>
      <point x="535" y="526" type="curve"/>
      <point x="535" y="375" type="line"/>
      <point x="550" y="367"/>
      <point x="573" y="363"/>
    </contour>
    <contour>
      <point x="252" y="583" type="curve"/>
      <point x="252" y="583" type="line"/>
      <point x="323" y="517" type="line"/>
      <point x="323" y="583"/>
      <point x="363" y="611"/>
      <point x="440" y="611" type="curve"/>
      <point x="408" y="664" type="line"/>
      <point x="408" y="208" type="line"/>
      <point x="457" y="217" type="line"/>
      <point x="337.612" y="305.204"/>
      <point x="215.05" y="445.005"/>
      <point x="99.213" y="592.554" type="curve"/>
      <point x="-19.649" y="488.965" type="line"/>
      <point x="102.492" y="342.427"/>
      <point x="233.026" y="199.975"/>
      <point x="380" y="93" type="curve"/>
      <point x="555" y="93" type="line"/>
      <point x="555" y="751" type="line"/>
      <point x="490" y="751" type="line" smooth="yes"/>
      <point x="299" y="751"/>
      <point x="216" y="627"/>
      <point x="216" y="529" type="curve"/>
      <point x="216" y="456"/>
      <point x="263" y="418"/>
      <point x="310" y="418" type="curve"/>
      <point x="362" y="418"/>
      <point x="389" y="463"/>
      <point x="389" y="508" type="curve"/>
      <point x="389" y="554"/>
      <point x="361" y="601"/>
      <point x="304" y="601" type="curve"/>
      <point x="286" y="601"/>
      <point x="268" y="595"/>
    </contour>
    <contour>
      <point x="770" y="820" type="line"/>
      <point x="733" y="722" type="line"/>
      <point x="793" y="761"/>
      <point x="820" y="830"/>
      <point x="820" y="885" type="curve"/>
      <point x="820" y="964"/>
      <point x="767" y="1034"/>
      <point x="674" y="1034" type="curve"/>
      <point x="594" y="1034"/>
      <point x="491" y="983"/>
      <point x="440" y="983" type="curve"/>
      <point x="413.946" y="983"/>
      <point x="393.987" y="996.299"/>
      <point x="376" y="1025.373" type="curve"/>
      <point x="260.221" y="938.221" type="line"/>
      <point x="303.015" y="849.628"/>
      <point x="358.454" y="837"/>
      <point x="408" y="837" type="curve"/>
      <point x="507" y="837"/>
      <point x="580" y="888"/>
      <point x="628" y="888" type="curve"/>
      <point x="655" y="888"/>
      <point x="669" y="872"/>
      <point x="669" y="852" type="curve"/>
      <point x="669" y="831"/>
      <point x="654" y="805"/>
      <point x="623" y="789" type="curve"/>
      <point x="623" y="93" type="line"/>
      <point x="770" y="93" type="line"/>
    </contour>
  </outline>
</glyph>
<glyph name="o-oriya" format="2">
  <advance width="608"/>
  <unicode hex="0B13"/>
  <note>
oorya
</note>
  <anchor x="452" y="658" name="topright"/>
  <outline>
    <contour>
      <point x="346" y="-8" type="curve"/>
      <point x="346" y="-8" type="line"/>
      <point x="519" y="-8"/>
      <point x="586" y="93"/>
      <point x="586" y="184" type="curve"/>
      <point x="586" y="277"/>
      <point x="516" y="362"/>
      <point x="383" y="362" type="curve"/>
      <point x="340" y="273" type="line"/>
      <point x="379" y="290" type="line" smooth="yes"/>
      <point x="450" y="321"/>
      <point x="582" y="378"/>
      <point x="582" y="506" type="curve"/>
      <point x="582" y="611"/>
      <point x="492" y="666"/>
      <point x="402" y="666" type="curve"/>
      <point x="311" y="666"/>
      <point x="220" y="610"/>
      <point x="220" y="497" type="curve"/>
      <point x="220" y="465"/>
      <point x="227" y="432"/>
      <point x="242" y="399" type="curve"/>
      <point x="374" y="449" type="line"/>
      <point x="368" y="461"/>
      <point x="365" y="476"/>
      <point x="365" y="488" type="curve"/>
      <point x="365" y="516"/>
      <point x="382" y="530"/>
      <point x="399" y="530" type="curve"/>
      <point x="416" y="530"/>
      <point x="432" y="518"/>
      <point x="432" y="489" type="curve"/>
      <point x="432" y="456"/>
      <point x="410" y="425"/>
      <point x="362" y="403" type="curve"/>
      <point x="253" y="353" type="line"/>
      <point x="297" y="236" type="line"/>
      <point x="327" y="252"/>
      <point x="357" y="260"/>
      <point x="378" y="260" type="curve"/>
      <point x="418" y="260"/>
      <point x="434" y="230"/>
      <point x="434" y="201" type="curve"/>
      <point x="434" y="165"/>
      <point x="408" y="138"/>
      <point x="345" y="138" type="curve"/>
      <point x="219" y="138"/>
      <point x="168" y="248"/>
      <point x="168" y="374" type="curve"/>
      <point x="168" y="484"/>
      <point x="209" y="604"/>
      <point x="271" y="677" type="curve"/>
      <point x="164" y="767" type="line"/>
      <point x="66" y="650"/>
      <point x="16" y="499"/>
      <point x="16" y="361" type="curve"/>
      <point x="16" y="163"/>
      <point x="120" y="-8"/>
    </contour>
  </outline>
</glyph>
<glyph name="o-oriya.sans" format="2">
  <advance width="608"/>
  <unicode hex="0B13"/>
  <note>
oorya
</note>
  <anchor x="452" y="751" name="topright"/>
  <outline>
    <contour>
      <point x="346" y="85" type="curve"/>
      <point x="346" y="85" type="line"/>
      <point x="519" y="85"/>
      <point x="586" y="186"/>
      <point x="586" y="277" type="curve"/>
      <point x="586" y="370"/>
      <point x="516" y="455"/>
      <point x="383" y="455" type="curve"/>
      <point x="340" y="366" type="line"/>
      <point x="379" y="383" type="line" smooth="yes"/>
      <point x="450" y="414"/>
      <point x="582" y="471"/>
      <point x="582" y="599" type="curve"/>
      <point x="582" y="704"/>
      <point x="492" y="759"/>
      <point x="402" y="759" type="curve"/>
      <point x="311" y="759"/>
      <point x="220" y="703"/>
      <point x="220" y="590" type="curve"/>
      <point x="220" y="558"/>
      <point x="227" y="525"/>
      <point x="242" y="492" type="curve"/>
      <point x="374" y="542" type="line"/>
      <point x="368" y="554"/>
      <point x="365" y="569"/>
      <point x="365" y="581" type="curve"/>
      <point x="365" y="609"/>
      <point x="382" y="623"/>
      <point x="399" y="623" type="curve"/>
      <point x="416" y="623"/>
      <point x="432" y="611"/>
      <point x="432" y="582" type="curve"/>
      <point x="432" y="549"/>
      <point x="410" y="518"/>
      <point x="362" y="496" type="curve"/>
      <point x="253" y="446" type="line"/>
      <point x="297" y="329" type="line"/>
      <point x="327" y="345"/>
      <point x="357" y="353"/>
      <point x="378" y="353" type="curve"/>
      <point x="418" y="353"/>
      <point x="434" y="323"/>
      <point x="434" y="294" type="curve"/>
      <point x="434" y="258"/>
      <point x="408" y="231"/>
      <point x="345" y="231" type="curve"/>
      <point x="219" y="231"/>
      <point x="168" y="341"/>
      <point x="168" y="467" type="curve"/>
      <point x="168" y="577"/>
      <point x="209" y="697"/>
      <point x="271" y="770" type="curve"/>
      <point x="164" y="860" type="line"/>
      <point x="66" y="743"/>
      <point x="16" y="592"/>
      <point x="16" y="454" type="curve"/>
      <point x="16" y="256"/>
      <point x="120" y="85"/>
    </contour>
  </outline>
</glyph>
<glyph name="au-oriya" format="2">
  <advance width="828"/>
  <unicode hex="0B14"/>
  <note>
auorya
</note>
  <outline>
    <contour>
      <point x="562" y="172" type="curve"/>
      <point x="562" y="172" type="line"/>
      <point x="621" y="172"/>
      <point x="641" y="186"/>
      <point x="658" y="198" type="curve"/>
      <point x="658" y="349" type="line"/>
      <point x="641" y="337"/>
      <point x="607" y="320"/>
      <point x="562" y="322" type="curve"/>
      <point x="504" y="324"/>
      <point x="482" y="346"/>
      <point x="466" y="354" type="curve"/>
      <point x="433" y="334" type="line"/>
      <point x="466" y="203" type="line"/>
      <point x="481" y="195"/>
      <point x="502" y="172"/>
    </contour>
    <contour>
      <point x="346" y="-8" type="curve"/>
      <point x="346" y="-8" type="line"/>
      <point x="519" y="-8"/>
      <point x="586" y="93"/>
      <point x="586" y="184" type="curve"/>
      <point x="586" y="277"/>
      <point x="516" y="362"/>
      <point x="383" y="362" type="curve"/>
      <point x="340" y="273" type="line"/>
      <point x="379" y="290" type="line" smooth="yes"/>
      <point x="450" y="321"/>
      <point x="582" y="378"/>
      <point x="582" y="506" type="curve"/>
      <point x="582" y="611"/>
      <point x="492" y="666"/>
      <point x="402" y="666" type="curve"/>
      <point x="311" y="666"/>
      <point x="220" y="610"/>
      <point x="220" y="497" type="curve"/>
      <point x="220" y="465"/>
      <point x="227" y="432"/>
      <point x="242" y="399" type="curve"/>
      <point x="374" y="449" type="line"/>
      <point x="368" y="461"/>
      <point x="365" y="476"/>
      <point x="365" y="488" type="curve"/>
      <point x="365" y="516"/>
      <point x="382" y="530"/>
      <point x="399" y="530" type="curve"/>
      <point x="416" y="530"/>
      <point x="432" y="518"/>
      <point x="432" y="489" type="curve"/>
      <point x="432" y="456"/>
      <point x="410" y="425"/>
      <point x="362" y="403" type="curve"/>
      <point x="253" y="353" type="line"/>
      <point x="297" y="236" type="line"/>
      <point x="327" y="252"/>
      <point x="357" y="260"/>
      <point x="378" y="260" type="curve"/>
      <point x="418" y="260"/>
      <point x="434" y="230"/>
      <point x="434" y="201" type="curve"/>
      <point x="434" y="165"/>
      <point x="408" y="138"/>
      <point x="345" y="138" type="curve"/>
      <point x="219" y="138"/>
      <point x="168" y="248"/>
      <point x="168" y="374" type="curve"/>
      <point x="168" y="484"/>
      <point x="209" y="604"/>
      <point x="271" y="677" type="curve"/>
      <point x="164" y="767" type="line"/>
      <point x="66" y="650"/>
      <point x="16" y="499"/>
      <point x="16" y="361" type="curve"/>
      <point x="16" y="163"/>
      <point x="120" y="-8"/>
    </contour>
    <contour>
      <point x="794" y="727" type="line"/>
      <point x="757" y="629" type="line"/>
      <point x="817" y="668"/>
      <point x="844" y="737"/>
      <point x="844" y="792" type="curve"/>
      <point x="844" y="871"/>
      <point x="791" y="941"/>
      <point x="698" y="941" type="curve"/>
      <point x="618" y="941"/>
      <point x="515" y="890"/>
      <point x="464" y="890" type="curve"/>
      <point x="437.946" y="890"/>
      <point x="417.987" y="903.299"/>
      <point x="400" y="932.373" type="curve"/>
      <point x="284.221" y="845.221" type="line"/>
      <point x="327.015" y="756.628"/>
      <point x="382.454" y="744"/>
      <point x="432" y="744" type="curve"/>
      <point x="531" y="744"/>
      <point x="604" y="795"/>
      <point x="652" y="795" type="curve"/>
      <point x="679" y="795"/>
      <point x="693" y="779"/>
      <point x="693" y="759" type="curve"/>
      <point x="693" y="738"/>
      <point x="678" y="712"/>
      <point x="647" y="696" type="curve"/>
      <point x="647" y="0" type="line"/>
      <point x="794" y="0" type="line"/>
    </contour>
  </outline>
</glyph>
<glyph name="ka-oriya" format="2">
  <advance width="688"/>
  <unicode hex="0B15"/>
  <note>
kaorya
</note>
  <anchor x="386" y="0" name="bottom"/>
  <anchor x="533" y="0" name="bottom_ra"/>
  <anchor x="533" y="10" name="bottom_ta"/>
  <anchor x="338" y="658" name="top"/>
  <anchor x="542" y="658" name="topright"/>
  <outline>
    <contour>
      <point x="140" y="179" type="curve"/>
      <point x="140" y="179" type="line"/>
      <point x="199" y="284" type="line"/>
      <point x="174" y="315"/>
      <point x="163" y="347"/>
      <point x="163" y="380" type="curve"/>
      <point x="163" y="471"/>
      <point x="250" y="520"/>
      <point x="340" y="520" type="curve"/>
      <point x="430" y="520"/>
      <point x="520" y="470"/>
      <point x="520" y="375" type="curve"/>
      <point x="520" y="359.678"/>
      <point x="517.707" y="344.585"/>
      <point x="513.561" y="329.94" type="curve"/>
      <point x="656.342" y="284.25" type="line"/>
      <point x="666.224" y="314.399"/>
      <point x="672" y="343.312"/>
      <point x="672" y="378" type="curve"/>
      <point x="672" y="569"/>
      <point x="503" y="666"/>
      <point x="337" y="666" type="curve"/>
      <point x="175" y="666"/>
      <point x="16" y="573"/>
      <point x="16" y="400" type="curve"/>
      <point x="16" y="316"/>
      <point x="54" y="240"/>
    </contour>
    <contour>
      <point x="211" y="56" type="curve"/>
      <point x="211" y="56" type="line"/>
      <point x="291" y="56"/>
      <point x="337" y="117"/>
      <point x="337" y="213" type="curve"/>
      <point x="337" y="310"/>
      <point x="291" y="370"/>
      <point x="213" y="370" type="curve"/>
      <point x="133" y="370"/>
      <point x="86" y="307"/>
      <point x="86" y="211" type="curve"/>
      <point x="86" y="116"/>
      <point x="132" y="56"/>
    </contour>
    <contour>
      <point x="216" y="167" type="curve"/>
      <point x="216" y="167" type="line"/>
      <point x="201" y="167"/>
      <point x="194" y="180"/>
      <point x="194" y="213" type="curve"/>
      <point x="194" y="247"/>
      <point x="201" y="260"/>
      <point x="216" y="260" type="curve"/>
      <point x="231" y="260"/>
      <point x="238" y="247"/>
      <point x="238" y="213" type="curve"/>
      <point x="238" y="180"/>
      <point x="231" y="167"/>
    </contour>
    <contour>
      <point x="233" y="125" type="line"/>
      <point x="222" y="0" type="line"/>
      <point x="360" y="0" type="line"/>
      <point x="360" y="217" type="line" smooth="yes"/>
      <point x="360" y="235"/>
      <point x="362" y="242"/>
      <point x="373" y="242" type="curve"/>
      <point x="384" y="242"/>
      <point x="386" y="235"/>
      <point x="386" y="217" type="curve"/>
      <point x="386" y="0" type="line"/>
      <point x="533" y="0" type="line"/>
      <point x="533" y="226" type="line" smooth="yes"/>
      <point x="533" y="321"/>
      <point x="479" y="370"/>
      <point x="409" y="370" type="curve"/>
      <point x="335" y="370"/>
      <point x="270" y="315"/>
      <point x="270" y="205" type="curve"/>
    </contour>
  </outline>
</glyph>
<glyph name="kha-oriya" format="2">
  <advance width="646"/>
  <unicode hex="0B16"/>
  <note>
khaorya
</note>
  <anchor x="465" y="0" name="bottom"/>
  <anchor x="612" y="0" name="bottom_ra"/>
  <anchor x="312" y="658" name="top"/>
  <anchor x="539" y="658" name="topright"/>
  <outline>
    <contour>
      <point x="143" y="196" type="curve"/>
      <point x="143" y="196" type="line"/>
      <point x="204" y="290" type="line"/>
      <point x="175" y="316"/>
      <point x="163" y="349"/>
      <point x="163" y="384" type="curve"/>
      <point x="163" y="473"/>
      <point x="239" y="520"/>
      <point x="314" y="520" type="curve"/>
      <point x="326" y="520"/>
      <point x="342" y="520"/>
      <point x="357" y="520" type="curve"/>
      <point x="326" y="666" type="line"/>
      <point x="311" y="666"/>
      <point x="325" y="666"/>
      <point x="312" y="666" type="curve"/>
      <point x="104" y="666"/>
      <point x="16" y="539"/>
      <point x="16" y="415" type="curve"/>
      <point x="16" y="324"/>
      <point x="63" y="234"/>
    </contour>
    <contour>
      <point x="266" y="-8" type="curve"/>
      <point x="266" y="-8" type="line"/>
      <point x="366" y="-8"/>
      <point x="430" y="65"/>
      <point x="430" y="180" type="curve"/>
      <point x="430" y="295"/>
      <point x="367" y="368"/>
      <point x="268" y="368" type="curve"/>
      <point x="166" y="368"/>
      <point x="101" y="295"/>
      <point x="101" y="180" type="curve"/>
      <point x="101" y="65"/>
      <point x="165" y="-8"/>
    </contour>
    <contour>
      <point x="266" y="115" type="curve"/>
      <point x="266" y="115" type="line"/>
      <point x="244" y="115"/>
      <point x="234" y="136"/>
      <point x="234" y="180" type="curve"/>
      <point x="234" y="224"/>
      <point x="244" y="245"/>
      <point x="266" y="245" type="curve"/>
      <point x="287" y="245"/>
      <point x="297" y="224"/>
      <point x="297" y="180" type="curve"/>
      <point x="297" y="136"/>
      <point x="287" y="115"/>
    </contour>
    <contour>
      <point x="465" y="658" type="line"/>
      <point x="465" y="0" type="line"/>
      <point x="612" y="0" type="line"/>
      <point x="612" y="658" type="line"/>
    </contour>
    <contour>
      <point x="424" y="354" type="curve"/>
      <point x="424" y="354" type="line"/>
      <point x="526" y="354"/>
      <point x="580" y="425"/>
      <point x="580" y="506" type="curve"/>
      <point x="482" y="501" type="line"/>
      <point x="469" y="484"/>
      <point x="456" y="477"/>
      <point x="439" y="477" type="curve"/>
      <point x="411" y="477"/>
      <point x="392" y="496"/>
      <point x="392" y="543" type="curve"/>
      <point x="392" y="555"/>
      <point x="394" y="569"/>
      <point x="399" y="588" type="curve"/>
      <point x="326" y="666" type="line"/>
      <point x="280" y="630"/>
      <point x="264" y="584"/>
      <point x="264" y="527" type="curve"/>
      <point x="264" y="416"/>
      <point x="325" y="354"/>
    </contour>
  </outline>
</glyph>
<glyph name="kha-oriya.sans" format="2">
  <advance width="646"/>
  <unicode hex="0B16"/>
  <note>
khaorya
</note>
  <anchor x="465" y="93" name="bottom"/>
  <anchor x="612" y="93" name="bottom_ra"/>
  <anchor x="312" y="751" name="top"/>
  <anchor x="539" y="751" name="topright"/>
  <outline>
    <contour>
      <point x="143" y="289" type="curve"/>
      <point x="143" y="289" type="line"/>
      <point x="204" y="383" type="line"/>
      <point x="175" y="409"/>
      <point x="163" y="442"/>
      <point x="163" y="477" type="curve"/>
      <point x="163" y="566"/>
      <point x="239" y="613"/>
      <point x="314" y="613" type="curve"/>
      <point x="326" y="613"/>
      <point x="342" y="613"/>
      <point x="357" y="613" type="curve"/>
      <point x="326" y="759" type="line"/>
      <point x="311" y="759"/>
      <point x="325" y="759"/>
      <point x="312" y="759" type="curve"/>
      <point x="104" y="759"/>
      <point x="16" y="632"/>
      <point x="16" y="508" type="curve"/>
      <point x="16" y="417"/>
      <point x="63" y="327"/>
    </contour>
    <contour>
      <point x="266" y="85" type="curve"/>
      <point x="266" y="85" type="line"/>
      <point x="366" y="85"/>
      <point x="430" y="158"/>
      <point x="430" y="273" type="curve"/>
      <point x="430" y="388"/>
      <point x="367" y="461"/>
      <point x="268" y="461" type="curve"/>
      <point x="166" y="461"/>
      <point x="101" y="388"/>
      <point x="101" y="273" type="curve"/>
      <point x="101" y="158"/>
      <point x="165" y="85"/>
    </contour>
    <contour>
      <point x="266" y="208" type="curve"/>
      <point x="266" y="208" type="line"/>
      <point x="244" y="208"/>
      <point x="234" y="229"/>
      <point x="234" y="273" type="curve"/>
      <point x="234" y="317"/>
      <point x="244" y="338"/>
      <point x="266" y="338" type="curve"/>
      <point x="287" y="338"/>
      <point x="297" y="317"/>
      <point x="297" y="273" type="curve"/>
      <point x="297" y="229"/>
      <point x="287" y="208"/>
    </contour>
    <contour>
      <point x="465" y="751" type="line"/>
      <point x="465" y="93" type="line"/>
      <point x="612" y="93" type="line"/>
      <point x="612" y="751" type="line"/>
    </contour>
    <contour>
      <point x="424" y="447" type="curve"/>
      <point x="424" y="447" type="line"/>
      <point x="526" y="447"/>
      <point x="580" y="518"/>
      <point x="580" y="599" type="curve"/>
      <point x="482" y="594" type="line"/>
      <point x="469" y="577"/>
      <point x="456" y="570"/>
      <point x="439" y="570" type="curve"/>
      <point x="411" y="570"/>
      <point x="392" y="589"/>
      <point x="392" y="636" type="curve"/>
      <point x="392" y="648"/>
      <point x="394" y="662"/>
      <point x="399" y="681" type="curve"/>
      <point x="326" y="759" type="line"/>
      <point x="280" y="723"/>
      <point x="264" y="677"/>
      <point x="264" y="620" type="curve"/>
      <point x="264" y="509"/>
      <point x="325" y="447"/>
    </contour>
  </outline>
</glyph>
<glyph name="ga-oriya" format="2">
  <advance width="645"/>
  <unicode hex="0B17"/>
  <note>
gaorya
</note>
  <anchor x="464" y="0" name="bottom"/>
  <anchor x="611" y="0" name="bottom_ra"/>
  <anchor x="289" y="658" name="top"/>
  <anchor x="538" y="658" name="topright"/>
  <outline>
    <contour>
      <point x="266" y="-8" type="curve"/>
      <point x="266" y="-8" type="line"/>
      <point x="368" y="-8"/>
      <point x="430" y="64"/>
      <point x="430" y="180" type="curve"/>
      <point x="430" y="297"/>
      <point x="368" y="368"/>
      <point x="268" y="368" type="curve"/>
      <point x="165" y="368"/>
      <point x="101" y="297"/>
      <point x="101" y="180" type="curve"/>
      <point x="101" y="64"/>
      <point x="165" y="-8"/>
    </contour>
    <contour>
      <point x="266" y="115" type="curve"/>
      <point x="266" y="115" type="line"/>
      <point x="244" y="115"/>
      <point x="234" y="136"/>
      <point x="234" y="180" type="curve"/>
      <point x="234" y="224"/>
      <point x="244" y="245"/>
      <point x="266" y="245" type="curve"/>
      <point x="287" y="245"/>
      <point x="297" y="224"/>
      <point x="297" y="180" type="curve"/>
      <point x="297" y="136"/>
      <point x="287" y="115"/>
    </contour>
    <contour>
      <point x="464" y="498" type="line"/>
      <point x="464" y="0" type="line"/>
      <point x="611" y="0" type="line"/>
      <point x="611" y="658" type="line"/>
      <point x="464" y="658" type="line"/>
      <point x="472" y="575" type="line"/>
    </contour>
    <contour>
      <point x="316" y="520" type="curve"/>
      <point x="316" y="520" type="line"/>
      <point x="396" y="520"/>
      <point x="476" y="471"/>
      <point x="476" y="372" type="curve"/>
      <point x="589" y="371" type="line"/>
      <point x="589" y="569"/>
      <point x="437" y="666"/>
      <point x="289" y="666" type="curve"/>
      <point x="151" y="666"/>
      <point x="16" y="580"/>
      <point x="16" y="415" type="curve"/>
      <point x="16" y="330"/>
      <point x="56" y="241"/>
      <point x="140" y="196" type="curve"/>
      <point x="205" y="289" type="line"/>
      <point x="177" y="313"/>
      <point x="163" y="344"/>
      <point x="163" y="382" type="curve"/>
      <point x="163" y="473"/>
      <point x="239" y="520"/>
    </contour>
  </outline>
</glyph>
<glyph name="gha-oriya" format="2">
  <advance width="645"/>
  <unicode hex="0B18"/>
  <note>
ghaorya
</note>
  <anchor x="464" y="0" name="bottom"/>
  <anchor x="611" y="0" name="bottom_ra"/>
  <anchor x="284" y="658" name="top"/>
  <anchor x="538" y="658" name="topright"/>
  <outline>
    <contour>
      <point x="140" y="196" type="curve"/>
      <point x="140" y="196" type="line"/>
      <point x="205" y="289" type="line"/>
      <point x="177" y="313"/>
      <point x="163" y="344"/>
      <point x="163" y="385" type="curve"/>
      <point x="163" y="474"/>
      <point x="230" y="520"/>
      <point x="311" y="520" type="curve"/>
      <point x="380" y="520"/>
      <point x="476" y="486"/>
      <point x="476" y="372" type="curve"/>
      <point x="589" y="371" type="line"/>
      <point x="589" y="601"/>
      <point x="402" y="666"/>
      <point x="284" y="666" type="curve"/>
      <point x="139" y="666"/>
      <point x="16" y="569"/>
      <point x="16" y="411" type="curve"/>
      <point x="16" y="321"/>
      <point x="56" y="241"/>
    </contour>
    <contour>
      <point x="249" y="-8" type="curve"/>
      <point x="249" y="-8" type="line"/>
      <point x="317" y="-8"/>
      <point x="383" y="43"/>
      <point x="383" y="142" type="curve"/>
      <point x="334" y="142" type="line"/>
      <point x="334" y="43"/>
      <point x="375" y="-8"/>
      <point x="416" y="-8" type="curve"/>
      <point x="461" y="-8"/>
      <point x="507" y="50"/>
      <point x="507" y="169" type="curve"/>
      <point x="464" y="169" type="line"/>
      <point x="464" y="134"/>
      <point x="456" y="122"/>
      <point x="442" y="122" type="curve"/>
      <point x="428" y="122"/>
      <point x="420" y="134"/>
      <point x="420" y="169" type="curve"/>
      <point x="420" y="247" type="line"/>
      <point x="302" y="247" type="line"/>
      <point x="302" y="169" type="line" smooth="yes"/>
      <point x="302" y="134"/>
      <point x="289" y="122"/>
      <point x="274" y="122" type="curve"/>
      <point x="255" y="122"/>
      <point x="244" y="139"/>
      <point x="244" y="176" type="curve"/>
      <point x="244" y="224"/>
      <point x="263" y="269"/>
      <point x="310" y="302" type="curve"/>
      <point x="242" y="411" type="line"/>
      <point x="157" y="369"/>
      <point x="101" y="274"/>
      <point x="101" y="173" type="curve"/>
      <point x="101" y="51"/>
      <point x="177" y="-8"/>
    </contour>
    <contour>
      <point x="474" y="64" type="line"/>
      <point x="464" y="0" type="line"/>
      <point x="611" y="0" type="line"/>
      <point x="611" y="658" type="line"/>
      <point x="464" y="658" type="line"/>
      <point x="472" y="575" type="line"/>
      <point x="464" y="499" type="line"/>
      <point x="464" y="111" type="line"/>
    </contour>
  </outline>
</glyph>
<glyph name="nga-oriya" format="2">
  <advance width="675"/>
  <unicode hex="0B19"/>
  <note>
ngaorya
</note>
  <anchor x="270" y="0" name="bottom"/>
  <anchor x="622" y="0" name="bottom_ra"/>
  <anchor x="318" y="658" name="top"/>
  <anchor x="545" y="658" name="topright"/>
  <outline>
    <contour>
      <point x="141" y="196" type="curve"/>
      <point x="141" y="196" type="line"/>
      <point x="202" y="290" type="line"/>
      <point x="176" y="316"/>
      <point x="164" y="349"/>
      <point x="164" y="386" type="curve"/>
      <point x="164" y="470"/>
      <point x="237" y="520"/>
      <point x="326" y="520" type="curve"/>
      <point x="370" y="520"/>
      <point x="428" y="502"/>
      <point x="461" y="473" type="curve"/>
      <point x="510" y="609" type="line"/>
      <point x="455" y="647"/>
      <point x="384" y="666"/>
      <point x="318" y="666" type="curve"/>
      <point x="161" y="666"/>
      <point x="16" y="574"/>
      <point x="16" y="405" type="curve"/>
      <point x="16" y="319"/>
      <point x="54" y="244"/>
    </contour>
    <contour>
      <point x="244" y="242" type="line"/>
      <point x="321" y="174" type="line"/>
      <point x="469" y="363" type="line"/>
      <point x="392" y="431" type="line"/>
    </contour>
    <contour>
      <point x="541" y="364" type="curve"/>
      <point x="541" y="364" type="line"/>
      <point x="625" y="364"/>
      <point x="675" y="426"/>
      <point x="675" y="514" type="curve"/>
      <point x="675" y="599"/>
      <point x="627" y="658"/>
      <point x="544" y="658" type="curve"/>
      <point x="460" y="658"/>
      <point x="411" y="597"/>
      <point x="411" y="511" type="curve"/>
      <point x="411" y="424"/>
      <point x="458" y="364"/>
    </contour>
    <contour>
      <point x="542" y="469" type="curve"/>
      <point x="542" y="469" type="line"/>
      <point x="521" y="469"/>
      <point x="515" y="488"/>
      <point x="515" y="512" type="curve"/>
      <point x="515" y="535"/>
      <point x="521" y="553"/>
      <point x="542" y="553" type="curve"/>
      <point x="564" y="553"/>
      <point x="571" y="535"/>
      <point x="571" y="513" type="curve"/>
      <point x="571" y="489"/>
      <point x="563" y="469"/>
    </contour>
    <contour>
      <point x="300" y="-8" type="curve"/>
      <point x="300" y="-8" type="line"/>
      <point x="410" y="-8"/>
      <point x="500" y="52"/>
      <point x="500" y="183" type="curve"/>
      <point x="500" y="241"/>
      <point x="470" y="313"/>
      <point x="390" y="343" type="curve"/>
      <point x="326" y="253" type="line"/>
      <point x="362" y="232"/>
      <point x="378" y="203"/>
      <point x="378" y="177" type="curve"/>
      <point x="378" y="144"/>
      <point x="352" y="117"/>
      <point x="304" y="117" type="curve"/>
      <point x="249" y="117"/>
      <point x="220" y="153"/>
      <point x="220" y="199" type="curve"/>
      <point x="220" y="249"/>
      <point x="249" y="308"/>
      <point x="304" y="355" type="curve"/>
      <point x="237" y="436" type="line"/>
      <point x="148" y="375"/>
      <point x="96" y="279"/>
      <point x="96" y="192" type="curve"/>
      <point x="96" y="70"/>
      <point x="189" y="-8"/>
    </contour>
  </outline>
</glyph>
<glyph name="ca-oriya.sans" format="2">
  <advance width="590"/>
  <unicode hex="0B1A"/>
  <note>
caorya
</note>
  <anchor x="221" y="93" name="bottom"/>
  <anchor x="570" y="93" name="bottom_ra"/>
  <anchor x="291" y="751" name="top"/>
  <anchor x="444" y="751" name="topright"/>
  <outline>
    <contour>
      <point x="141" y="289" type="curve"/>
      <point x="141" y="289" type="line"/>
      <point x="202" y="383" type="line"/>
      <point x="176" y="409"/>
      <point x="163" y="442"/>
      <point x="163" y="481" type="curve"/>
      <point x="163" y="559"/>
      <point x="215" y="613"/>
      <point x="292" y="613" type="curve"/>
      <point x="370" y="613"/>
      <point x="422" y="558"/>
      <point x="422" y="478" type="curve"/>
      <point x="422" y="455.794"/>
      <point x="418.055" y="432.798"/>
      <point x="409.464" y="409.014" type="curve"/>
      <point x="550.051" y="355.819" type="line"/>
      <point x="564.382" y="389.495"/>
      <point x="574" y="436.31"/>
      <point x="574" y="484" type="curve"/>
      <point x="574" y="648"/>
      <point x="462" y="759"/>
      <point x="291" y="759" type="curve"/>
      <point x="126" y="759"/>
      <point x="16" y="654"/>
      <point x="16" y="501" type="curve"/>
      <point x="16" y="411"/>
      <point x="54" y="337"/>
    </contour>
    <contour>
      <point x="266" y="85" type="curve"/>
      <point x="266" y="85" type="line"/>
      <point x="368" y="85"/>
      <point x="430" y="157"/>
      <point x="430" y="273" type="curve"/>
      <point x="430" y="390"/>
      <point x="368" y="461"/>
      <point x="268" y="461" type="curve"/>
      <point x="165" y="461"/>
      <point x="101" y="390"/>
      <point x="101" y="273" type="curve"/>
      <point x="101" y="157"/>
      <point x="165" y="85"/>
    </contour>
    <contour>
      <point x="266" y="208" type="curve"/>
      <point x="266" y="208" type="line"/>
      <point x="244" y="208"/>
      <point x="234" y="229"/>
      <point x="234" y="273" type="curve"/>
      <point x="234" y="317"/>
      <point x="244" y="338"/>
      <point x="266" y="338" type="curve"/>
      <point x="287" y="338"/>
      <point x="297" y="317"/>
      <point x="297" y="273" type="curve"/>
      <point x="297" y="229"/>
      <point x="287" y="208"/>
    </contour>
  </outline>
</glyph>
<glyph name="cha-oriya" format="2">
  <advance width="629"/>
  <unicode hex="0B1B"/>
  <note>
chaorya
</note>
  <anchor x="362" y="0" name="bottom"/>
  <anchor x="496" y="0" name="bottom_ra"/>
  <anchor x="302" y="658" name="top"/>
  <anchor x="483" y="658" name="topright"/>
  <outline>
    <contour>
      <point x="177" y="248" type="curve"/>
      <point x="177" y="248" type="line"/>
      <point x="222" y="329" type="line"/>
      <point x="184" y="346"/>
      <point x="156" y="378"/>
      <point x="156" y="431" type="curve"/>
      <point x="156" y="497"/>
      <point x="228" y="531"/>
      <point x="302" y="531" type="curve"/>
      <point x="388" y="531"/>
      <point x="461" y="493"/>
      <point x="461" y="415" type="curve"/>
      <point x="461" y="392.505"/>
      <point x="455.76" y="369.261"/>
      <point x="447.223" y="346.564" type="curve"/>
      <point x="587.752" y="297.624" type="line"/>
      <point x="604.83" y="337.803"/>
      <point x="613" y="382.98"/>
      <point x="613" y="411" type="curve"/>
      <point x="613" y="590"/>
      <point x="461" y="666"/>
      <point x="302" y="666" type="curve"/>
      <point x="101" y="666"/>
      <point x="16" y="561"/>
      <point x="16" y="444" type="curve"/>
      <point x="16" y="354"/>
      <point x="77" y="266"/>
    </contour>
    <contour>
      <point x="179" y="97" type="curve"/>
      <point x="179" y="97" type="line"/>
      <point x="163" y="97"/>
      <point x="157" y="109"/>
      <point x="157" y="125" type="curve"/>
      <point x="157" y="141"/>
      <point x="164" y="152"/>
      <point x="182" y="152" type="curve"/>
      <point x="198" y="152"/>
      <point x="222" y="141"/>
      <point x="243" y="128" type="curve"/>
      <point x="217" y="109"/>
      <point x="193" y="97"/>
    </contour>
    <contour>
      <point x="159" y="-8" type="curve"/>
      <point x="159" y="-8" type="line"/>
      <point x="215" y="-8"/>
      <point x="253" y="26"/>
      <point x="292" y="78" type="curve"/>
      <point x="332" y="26"/>
      <point x="379" y="-8"/>
      <point x="425" y="-8" type="curve"/>
      <point x="502" y="-8"/>
      <point x="539" y="55"/>
      <point x="539" y="121" type="curve"/>
      <point x="539" y="188"/>
      <point x="501" y="257"/>
      <point x="420" y="257" type="curve"/>
      <point x="380" y="257"/>
      <point x="354" y="237"/>
      <point x="295" y="188" type="curve"/>
      <point x="219" y="241"/>
      <point x="118" y="269"/>
      <point x="24" y="278" type="curve"/>
      <point x="17" y="172" type="line"/>
      <point x="65" y="173"/>
      <point x="112" y="171"/>
      <point x="160" y="168" type="curve"/>
      <point x="170" y="241" type="line"/>
      <point x="65" y="241"/>
      <point x="45" y="174"/>
      <point x="45" y="124" type="curve"/>
      <point x="45" y="55"/>
      <point x="82" y="-8"/>
    </contour>
    <contour>
      <point x="404" y="97" type="curve"/>
      <point x="404" y="97" type="line"/>
      <point x="389" y="97"/>
      <point x="367" y="109"/>
      <point x="341" y="128" type="curve"/>
      <point x="362" y="141"/>
      <point x="386" y="152"/>
      <point x="402" y="152" type="curve"/>
      <point x="419" y="152"/>
      <point x="427" y="138"/>
      <point x="427" y="124" type="curve"/>
      <point x="427" y="109"/>
      <point x="418" y="97"/>
    </contour>
    <contour>
      <point x="293" y="202" type="curve"/>
      <point x="293" y="202" type="line"/>
      <point x="261" y="202"/>
      <point x="248" y="227"/>
      <point x="248" y="265" type="curve"/>
      <point x="248" y="303"/>
      <point x="261" y="327"/>
      <point x="293" y="327" type="curve"/>
      <point x="325" y="327"/>
      <point x="337" y="303"/>
      <point x="337" y="265" type="curve"/>
      <point x="337" y="227"/>
      <point x="325" y="202"/>
    </contour>
    <contour>
      <point x="295" y="127" type="curve"/>
      <point x="295" y="127" type="line"/>
      <point x="385" y="127"/>
      <point x="439" y="192"/>
      <point x="439" y="290" type="curve"/>
      <point x="439" y="383"/>
      <point x="387" y="451"/>
      <point x="294" y="451" type="curve"/>
      <point x="189" y="451"/>
      <point x="146" y="364"/>
      <point x="146" y="287" type="curve"/>
      <point x="146" y="200"/>
      <point x="199" y="127"/>
    </contour>
  </outline>
</glyph>
<glyph name="cha-oriya.sans" format="2">
  <advance width="629"/>
  <unicode hex="0B1B"/>
  <note>
chaorya
</note>
  <anchor x="362" y="93" name="bottom"/>
  <anchor x="496" y="93" name="bottom_ra"/>
  <anchor x="302" y="751" name="top"/>
  <anchor x="483" y="751" name="topright"/>
  <outline>
    <contour>
      <point x="177" y="341" type="curve"/>
      <point x="177" y="341" type="line"/>
      <point x="222" y="422" type="line"/>
      <point x="184" y="439"/>
      <point x="156" y="471"/>
      <point x="156" y="524" type="curve"/>
      <point x="156" y="590"/>
      <point x="228" y="624"/>
      <point x="302" y="624" type="curve"/>
      <point x="388" y="624"/>
      <point x="461" y="586"/>
      <point x="461" y="508" type="curve"/>
      <point x="461" y="485.505"/>
      <point x="455.76" y="462.261"/>
      <point x="447.223" y="439.564" type="curve"/>
      <point x="587.752" y="390.624" type="line"/>
      <point x="604.83" y="430.803"/>
      <point x="613" y="475.98"/>
      <point x="613" y="504" type="curve"/>
      <point x="613" y="683"/>
      <point x="461" y="759"/>
      <point x="302" y="759" type="curve"/>
      <point x="101" y="759"/>
      <point x="16" y="654"/>
      <point x="16" y="537" type="curve"/>
      <point x="16" y="447"/>
      <point x="77" y="359"/>
    </contour>
    <contour>
      <point x="179" y="190" type="curve"/>
      <point x="179" y="190" type="line"/>
      <point x="163" y="190"/>
      <point x="157" y="202"/>
      <point x="157" y="218" type="curve"/>
      <point x="157" y="234"/>
      <point x="164" y="245"/>
      <point x="182" y="245" type="curve"/>
      <point x="198" y="245"/>
      <point x="222" y="234"/>
      <point x="243" y="221" type="curve"/>
      <point x="217" y="202"/>
      <point x="193" y="190"/>
    </contour>
    <contour>
      <point x="159" y="85" type="curve"/>
      <point x="159" y="85" type="line"/>
      <point x="215" y="85"/>
      <point x="253" y="119"/>
      <point x="292" y="171" type="curve"/>
      <point x="332" y="119"/>
      <point x="379" y="85"/>
      <point x="425" y="85" type="curve"/>
      <point x="502" y="85"/>
      <point x="539" y="148"/>
      <point x="539" y="214" type="curve"/>
      <point x="539" y="281"/>
      <point x="501" y="350"/>
      <point x="420" y="350" type="curve"/>
      <point x="380" y="350"/>
      <point x="354" y="330"/>
      <point x="295" y="281" type="curve"/>
      <point x="219" y="334"/>
      <point x="118" y="362"/>
      <point x="24" y="371" type="curve"/>
      <point x="17" y="265" type="line"/>
      <point x="65" y="266"/>
      <point x="112" y="264"/>
      <point x="160" y="261" type="curve"/>
      <point x="170" y="334" type="line"/>
      <point x="65" y="334"/>
      <point x="45" y="267"/>
      <point x="45" y="217" type="curve"/>
      <point x="45" y="148"/>
      <point x="82" y="85"/>
    </contour>
    <contour>
      <point x="404" y="190" type="curve"/>
      <point x="404" y="190" type="line"/>
      <point x="389" y="190"/>
      <point x="367" y="202"/>
      <point x="341" y="221" type="curve"/>
      <point x="362" y="234"/>
      <point x="386" y="245"/>
      <point x="402" y="245" type="curve"/>
      <point x="419" y="245"/>
      <point x="427" y="231"/>
      <point x="427" y="217" type="curve"/>
      <point x="427" y="202"/>
      <point x="418" y="190"/>
    </contour>
    <contour>
      <point x="293" y="295" type="curve"/>
      <point x="293" y="295" type="line"/>
      <point x="261" y="295"/>
      <point x="248" y="320"/>
      <point x="248" y="358" type="curve"/>
      <point x="248" y="396"/>
      <point x="261" y="420"/>
      <point x="293" y="420" type="curve"/>
      <point x="325" y="420"/>
      <point x="337" y="396"/>
      <point x="337" y="358" type="curve"/>
      <point x="337" y="320"/>
      <point x="325" y="295"/>
    </contour>
    <contour>
      <point x="295" y="220" type="curve"/>
      <point x="295" y="220" type="line"/>
      <point x="385" y="220"/>
      <point x="439" y="285"/>
      <point x="439" y="383" type="curve"/>
      <point x="439" y="476"/>
      <point x="387" y="544"/>
      <point x="294" y="544" type="curve"/>
      <point x="189" y="544"/>
      <point x="146" y="457"/>
      <point x="146" y="380" type="curve"/>
      <point x="146" y="293"/>
      <point x="199" y="220"/>
    </contour>
  </outline>
</glyph>
<glyph name="ja-oriya" format="2">
  <advance width="688"/>
  <unicode hex="0B1C"/>
  <note>
jaorya
</note>
  <anchor x="386" y="0" name="bottom"/>
  <anchor x="533" y="0" name="bottom_ra"/>
  <anchor x="337" y="658" name="top"/>
  <anchor x="542" y="658" name="topright"/>
  <outline>
    <contour>
      <point x="278" y="-7" type="curve"/>
      <point x="278" y="-7" type="line"/>
      <point x="306.876" y="-7"/>
      <point x="338.772" y="-2.47"/>
      <point x="372.529" y="6.589" type="curve"/>
      <point x="365.04" y="53.49"/>
      <point x="359" y="135.601"/>
      <point x="359" y="186" type="curve"/>
      <point x="359" y="231"/>
      <point x="364" y="242"/>
      <point x="375" y="242" type="curve"/>
      <point x="386" y="242"/>
      <point x="386" y="228"/>
      <point x="386" y="208" type="curve"/>
      <point x="386" y="0" type="line"/>
      <point x="533" y="0" type="line"/>
      <point x="533" y="229" type="line" smooth="yes"/>
      <point x="533" y="322"/>
      <point x="478" y="371"/>
      <point x="392" y="371" type="curve"/>
      <point x="286" y="371"/>
      <point x="240" y="297"/>
      <point x="240" y="187" type="curve"/>
      <point x="240" y="155"/>
      <point x="245" y="116"/>
      <point x="253" y="60" type="curve"/>
      <point x="297" y="127" type="line"/>
      <point x="291" y="124"/>
      <point x="277" y="120"/>
      <point x="265" y="120" type="curve"/>
      <point x="230" y="120"/>
      <point x="213" y="153"/>
      <point x="213" y="196" type="curve"/>
      <point x="213" y="254.281"/>
      <point x="243.595" y="331.046"/>
      <point x="300.205" y="368.284" type="curve"/>
      <point x="244.079" y="442.987" type="line"/>
      <point x="128.869" y="384.785"/>
      <point x="86" y="295.869"/>
      <point x="86" y="197" type="curve"/>
      <point x="86" y="63"/>
      <point x="164" y="-7"/>
    </contour>
    <contour>
      <point x="140" y="179" type="curve"/>
      <point x="140" y="179" type="line"/>
      <point x="199" y="284" type="line"/>
      <point x="174" y="315"/>
      <point x="163" y="347"/>
      <point x="163" y="380" type="curve"/>
      <point x="163" y="471"/>
      <point x="250" y="520"/>
      <point x="340" y="520" type="curve"/>
      <point x="430" y="520"/>
      <point x="520" y="470"/>
      <point x="520" y="375" type="curve"/>
      <point x="520" y="360.177"/>
      <point x="517.854" y="345.569"/>
      <point x="513.961" y="331.374" type="curve"/>
      <point x="657.819" y="284.333" type="line"/>
      <point x="666.719" y="314.376"/>
      <point x="672" y="343.047"/>
      <point x="672" y="377" type="curve"/>
      <point x="672" y="569"/>
      <point x="503" y="666"/>
      <point x="337" y="666" type="curve"/>
      <point x="175" y="666"/>
      <point x="16" y="573"/>
      <point x="16" y="400" type="curve"/>
      <point x="16" y="316"/>
      <point x="54" y="240"/>
    </contour>
  </outline>
</glyph>
<glyph name="jha-oriya" format="2">
  <advance width="584"/>
  <unicode hex="0B1D"/>
  <note>
jhaorya
</note>
  <anchor x="226" y="0" name="bottom"/>
  <anchor x="488" y="0" name="bottom_ra"/>
  <anchor x="305" y="658" name="top"/>
  <anchor x="454" y="658" name="topright"/>
  <outline>
    <contour>
      <point x="143" y="196" type="curve"/>
      <point x="143" y="196" type="line"/>
      <point x="204" y="290" type="line"/>
      <point x="175" y="316"/>
      <point x="163" y="349"/>
      <point x="163" y="384" type="curve"/>
      <point x="163" y="473"/>
      <point x="239" y="520"/>
      <point x="314" y="520" type="curve"/>
      <point x="326" y="520"/>
      <point x="342" y="520"/>
      <point x="357" y="520" type="curve"/>
      <point x="326" y="666" type="line"/>
      <point x="322" y="666"/>
      <point x="316" y="666"/>
      <point x="312" y="666" type="curve"/>
      <point x="163" y="666"/>
      <point x="16" y="574"/>
      <point x="16" y="405" type="curve"/>
      <point x="16" y="319"/>
      <point x="53" y="244"/>
    </contour>
    <contour>
      <point x="326" y="90" type="line"/>
      <point x="509.137" y="-7.673" type="line"/>
      <point x="575.075" y="144.546" type="line"/>
      <point x="380" y="220" type="line"/>
    </contour>
    <contour>
      <point x="266" y="-8" type="curve"/>
      <point x="266" y="-8" type="line"/>
      <point x="368" y="-8"/>
      <point x="430" y="64"/>
      <point x="430" y="180" type="curve"/>
      <point x="430" y="297"/>
      <point x="368" y="368"/>
      <point x="268" y="368" type="curve"/>
      <point x="165" y="368"/>
      <point x="101" y="297"/>
      <point x="101" y="180" type="curve"/>
      <point x="101" y="64"/>
      <point x="165" y="-8"/>
    </contour>
    <contour>
      <point x="266" y="115" type="curve"/>
      <point x="266" y="115" type="line"/>
      <point x="244" y="115"/>
      <point x="234" y="136"/>
      <point x="234" y="180" type="curve"/>
      <point x="234" y="224"/>
      <point x="244" y="245"/>
      <point x="266" y="245" type="curve"/>
      <point x="287" y="245"/>
      <point x="297" y="224"/>
      <point x="297" y="180" type="curve"/>
      <point x="297" y="136"/>
      <point x="287" y="115"/>
    </contour>
    <contour>
      <point x="424" y="477" type="curve"/>
      <point x="424" y="477" type="line"/>
      <point x="402" y="477"/>
      <point x="392" y="503"/>
      <point x="392" y="535" type="curve"/>
      <point x="392" y="559"/>
      <point x="395" y="579"/>
      <point x="399" y="592" type="curve"/>
      <point x="326" y="666" type="line"/>
      <point x="284" y="627"/>
      <point x="264" y="579"/>
      <point x="264" y="520" type="curve"/>
      <point x="264" y="425"/>
      <point x="319" y="354"/>
      <point x="424" y="354" type="curve"/>
      <point x="529" y="354"/>
      <point x="584" y="425"/>
      <point x="584" y="520" type="curve"/>
      <point x="584" y="579"/>
      <point x="564" y="621"/>
      <point x="522" y="666" type="curve"/>
      <point x="449" y="592" type="line"/>
      <point x="453" y="579"/>
      <point x="456" y="559"/>
      <point x="456" y="535" type="curve"/>
      <point x="456" y="503"/>
      <point x="446" y="477"/>
    </contour>
  </outline>
</glyph>
<glyph name="nya-oriya" format="2">
  <advance width="637"/>
  <unicode hex="0B1E"/>
  <note>
nyaorya
</note>
  <anchor x="333" y="0" name="bottom"/>
  <anchor x="616" y="0" name="bottom_ra"/>
  <anchor x="331" y="658" name="top"/>
  <anchor x="485" y="658" name="topright"/>
  <outline>
    <contour>
      <point x="333" y="-8" type="curve"/>
      <point x="333" y="-8" type="line"/>
      <point x="526" y="-8"/>
      <point x="615" y="72"/>
      <point x="615" y="222" type="curve"/>
      <point x="615" y="335"/>
      <point x="564" y="399"/>
      <point x="492" y="399" type="curve"/>
      <point x="428" y="399"/>
      <point x="377" y="347"/>
      <point x="377" y="243" type="curve"/>
      <point x="416" y="247" type="line"/>
      <point x="416" y="339"/>
      <point x="363" y="384"/>
      <point x="308" y="384" type="curve"/>
      <point x="250" y="384"/>
      <point x="191" y="334"/>
      <point x="191" y="239" type="curve"/>
      <point x="191" y="212"/>
      <point x="196" y="186"/>
      <point x="205" y="165" type="curve"/>
      <point x="311" y="195" type="line"/>
      <point x="309" y="208"/>
      <point x="307" y="221"/>
      <point x="307" y="234" type="curve"/>
      <point x="307" y="258"/>
      <point x="314" y="267"/>
      <point x="324" y="267" type="curve"/>
      <point x="341" y="267"/>
      <point x="341" y="245"/>
      <point x="341" y="231" type="curve"/>
      <point x="341" y="186" type="line"/>
      <point x="443" y="186" type="line"/>
      <point x="443" y="246" type="line" smooth="yes"/>
      <point x="443" y="257"/>
      <point x="443" y="277"/>
      <point x="460" y="277" type="curve"/>
      <point x="473" y="277"/>
      <point x="479" y="266"/>
      <point x="479" y="234" type="curve"/>
      <point x="479" y="172"/>
      <point x="456" y="122"/>
      <point x="327" y="122" type="curve"/>
      <point x="234" y="122"/>
      <point x="158" y="148"/>
      <point x="158" y="234" type="curve"/>
      <point x="158" y="265"/>
      <point x="168" y="304"/>
      <point x="189" y="349" type="curve"/>
      <point x="113" y="480" type="line"/>
      <point x="51" y="395"/>
      <point x="22" y="337"/>
      <point x="22" y="249" type="curve"/>
      <point x="22" y="78"/>
      <point x="133" y="-8"/>
    </contour>
    <contour>
      <point x="329" y="271" type="curve"/>
      <point x="329" y="271" type="line"/>
      <point x="525" y="271"/>
      <point x="608" y="367"/>
      <point x="608" y="506" type="curve"/>
      <point x="608" y="611"/>
      <point x="561" y="666"/>
      <point x="483" y="666" type="curve"/>
      <point x="420" y="666"/>
      <point x="363" y="630"/>
      <point x="363" y="497" type="curve"/>
      <point x="413" y="497" type="line"/>
      <point x="413" y="618"/>
      <point x="367" y="666"/>
      <point x="299" y="666" type="curve"/>
      <point x="237" y="666"/>
      <point x="186" y="626"/>
      <point x="186" y="535" type="curve"/>
      <point x="186" y="510"/>
      <point x="190" y="476"/>
      <point x="201" y="446" type="curve"/>
      <point x="306" y="473" type="line"/>
      <point x="304" y="483"/>
      <point x="302" y="501"/>
      <point x="302" y="512" type="curve"/>
      <point x="302" y="532"/>
      <point x="308" y="543"/>
      <point x="320" y="543" type="curve"/>
      <point x="329" y="543"/>
      <point x="334" y="536"/>
      <point x="334" y="521" type="curve"/>
      <point x="334" y="461" type="line"/>
      <point x="436" y="461" type="line"/>
      <point x="436" y="516" type="line" smooth="yes"/>
      <point x="436" y="534"/>
      <point x="443" y="544"/>
      <point x="454" y="544" type="curve"/>
      <point x="466" y="544"/>
      <point x="472" y="531"/>
      <point x="472" y="502" type="curve"/>
      <point x="472" y="424"/>
      <point x="434" y="391"/>
      <point x="333" y="391" type="curve"/>
      <point x="221" y="391"/>
      <point x="166" y="431"/>
      <point x="166" y="524" type="curve"/>
      <point x="166" y="559"/>
      <point x="174" y="590"/>
      <point x="185" y="618" type="curve"/>
      <point x="62" y="666" type="line"/>
      <point x="40" y="613"/>
      <point x="30" y="575"/>
      <point x="30" y="526" type="curve"/>
      <point x="30" y="367"/>
      <point x="133" y="271"/>
    </contour>
  </outline>
</glyph>
<glyph name="nya-oriya.sans" format="2">
  <advance width="637"/>
  <unicode hex="0B1E"/>
  <note>
nyaorya
</note>
  <anchor x="333" y="93" name="bottom"/>
  <anchor x="616" y="93" name="bottom_ra"/>
  <anchor x="331" y="751" name="top"/>
  <anchor x="485" y="751" name="topright"/>
  <outline>
    <contour>
      <point x="333" y="85" type="curve"/>
      <point x="333" y="85" type="line"/>
      <point x="526" y="85"/>
      <point x="615" y="165"/>
      <point x="615" y="315" type="curve"/>
      <point x="615" y="428"/>
      <point x="564" y="492"/>
      <point x="492" y="492" type="curve"/>
      <point x="428" y="492"/>
      <point x="377" y="440"/>
      <point x="377" y="336" type="curve"/>
      <point x="416" y="340" type="line"/>
      <point x="416" y="432"/>
      <point x="363" y="477"/>
      <point x="308" y="477" type="curve"/>
      <point x="250" y="477"/>
      <point x="191" y="427"/>
      <point x="191" y="332" type="curve"/>
      <point x="191" y="305"/>
      <point x="196" y="279"/>
      <point x="205" y="258" type="curve"/>
      <point x="311" y="288" type="line"/>
      <point x="309" y="301"/>
      <point x="307" y="314"/>
      <point x="307" y="327" type="curve"/>
      <point x="307" y="351"/>
      <point x="314" y="360"/>
      <point x="324" y="360" type="curve"/>
      <point x="341" y="360"/>
      <point x="341" y="338"/>
      <point x="341" y="324" type="curve"/>
      <point x="341" y="279" type="line"/>
      <point x="443" y="279" type="line"/>
      <point x="443" y="339" type="line" smooth="yes"/>
      <point x="443" y="350"/>
      <point x="443" y="370"/>
      <point x="460" y="370" type="curve"/>
      <point x="473" y="370"/>
      <point x="479" y="359"/>
      <point x="479" y="327" type="curve"/>
      <point x="479" y="265"/>
      <point x="456" y="215"/>
      <point x="327" y="215" type="curve"/>
      <point x="234" y="215"/>
      <point x="158" y="241"/>
      <point x="158" y="327" type="curve"/>
      <point x="158" y="358"/>
      <point x="168" y="397"/>
      <point x="189" y="442" type="curve"/>
      <point x="113" y="573" type="line"/>
      <point x="51" y="488"/>
      <point x="22" y="430"/>
      <point x="22" y="342" type="curve"/>
      <point x="22" y="171"/>
      <point x="133" y="85"/>
    </contour>
    <contour>
      <point x="329" y="364" type="curve"/>
      <point x="329" y="364" type="line"/>
      <point x="525" y="364"/>
      <point x="608" y="460"/>
      <point x="608" y="599" type="curve"/>
      <point x="608" y="704"/>
      <point x="561" y="759"/>
      <point x="483" y="759" type="curve"/>
      <point x="420" y="759"/>
      <point x="363" y="723"/>
      <point x="363" y="590" type="curve"/>
      <point x="413" y="590" type="line"/>
      <point x="413" y="711"/>
      <point x="367" y="759"/>
      <point x="299" y="759" type="curve"/>
      <point x="237" y="759"/>
      <point x="186" y="719"/>
      <point x="186" y="628" type="curve"/>
      <point x="186" y="603"/>
      <point x="190" y="569"/>
      <point x="201" y="539" type="curve"/>
      <point x="306" y="566" type="line"/>
      <point x="304" y="576"/>
      <point x="302" y="594"/>
      <point x="302" y="605" type="curve"/>
      <point x="302" y="625"/>
      <point x="308" y="636"/>
      <point x="320" y="636" type="curve"/>
      <point x="329" y="636"/>
      <point x="334" y="629"/>
      <point x="334" y="614" type="curve"/>
      <point x="334" y="554" type="line"/>
      <point x="436" y="554" type="line"/>
      <point x="436" y="609" type="line" smooth="yes"/>
      <point x="436" y="627"/>
      <point x="443" y="637"/>
      <point x="454" y="637" type="curve"/>
      <point x="466" y="637"/>
      <point x="472" y="624"/>
      <point x="472" y="595" type="curve"/>
      <point x="472" y="517"/>
      <point x="434" y="484"/>
      <point x="333" y="484" type="curve"/>
      <point x="221" y="484"/>
      <point x="166" y="524"/>
      <point x="166" y="617" type="curve"/>
      <point x="166" y="652"/>
      <point x="174" y="683"/>
      <point x="185" y="711" type="curve"/>
      <point x="62" y="759" type="line"/>
      <point x="40" y="706"/>
      <point x="30" y="668"/>
      <point x="30" y="619" type="curve"/>
      <point x="30" y="460"/>
      <point x="133" y="364"/>
    </contour>
  </outline>
</glyph>
<glyph name="tta-oriya" format="2">
  <advance width="605"/>
  <unicode hex="0B1F"/>
  <note>
ttaorya
</note>
  <anchor x="224" y="0" name="bottom"/>
  <anchor x="571" y="0" name="bottom_ra"/>
  <anchor x="270" y="658" name="top"/>
  <anchor x="498" y="658" name="topright"/>
  <outline>
    <contour>
      <point x="140" y="196" type="curve"/>
      <point x="140" y="196" type="line"/>
      <point x="205" y="289" type="line"/>
      <point x="177" y="313"/>
      <point x="163" y="344"/>
      <point x="163" y="382" type="curve"/>
      <point x="163" y="474"/>
      <point x="229" y="520"/>
      <point x="297" y="520" type="curve"/>
      <point x="366" y="520"/>
      <point x="436" y="471"/>
      <point x="436" y="372" type="curve"/>
      <point x="549" y="371" type="line"/>
      <point x="549" y="570"/>
      <point x="408" y="666"/>
      <point x="270" y="666" type="curve"/>
      <point x="141" y="666"/>
      <point x="16" y="581"/>
      <point x="16" y="415" type="curve"/>
      <point x="16" y="330"/>
      <point x="56" y="241"/>
    </contour>
    <contour>
      <point x="424" y="499" type="line"/>
      <point x="424" y="288" type="line"/>
      <point x="571" y="288" type="line"/>
      <point x="571" y="658" type="line"/>
      <point x="424" y="658" type="line"/>
      <point x="432" y="576" type="line"/>
    </contour>
    <contour>
      <point x="266" y="-8" type="curve"/>
      <point x="266" y="-8" type="line"/>
      <point x="368" y="-8"/>
      <point x="430" y="64"/>
      <point x="430" y="180" type="curve"/>
      <point x="430" y="297"/>
      <point x="368" y="368"/>
      <point x="268" y="368" type="curve"/>
      <point x="165" y="368"/>
      <point x="101" y="297"/>
      <point x="101" y="180" type="curve"/>
      <point x="101" y="64"/>
      <point x="165" y="-8"/>
    </contour>
    <contour>
      <point x="266" y="115" type="curve"/>
      <point x="266" y="115" type="line"/>
      <point x="244" y="115"/>
      <point x="234" y="136"/>
      <point x="234" y="180" type="curve"/>
      <point x="234" y="224"/>
      <point x="244" y="245"/>
      <point x="266" y="245" type="curve"/>
      <point x="287" y="245"/>
      <point x="297" y="224"/>
      <point x="297" y="180" type="curve"/>
      <point x="297" y="136"/>
      <point x="287" y="115"/>
    </contour>
  </outline>
</glyph>
<glyph name="tta-oriya.sans" format="2">
  <advance width="605"/>
  <unicode hex="0B1F"/>
  <note>
ttaorya
</note>
  <anchor x="224" y="93" name="bottom"/>
  <anchor x="571" y="93" name="bottom_ra"/>
  <anchor x="270" y="751" name="top"/>
  <anchor x="498" y="751" name="topright"/>
  <outline>
    <contour>
      <point x="140" y="289" type="curve"/>
      <point x="140" y="289" type="line"/>
      <point x="205" y="382" type="line"/>
      <point x="177" y="406"/>
      <point x="163" y="437"/>
      <point x="163" y="475" type="curve"/>
      <point x="163" y="567"/>
      <point x="229" y="613"/>
      <point x="297" y="613" type="curve"/>
      <point x="366" y="613"/>
      <point x="436" y="564"/>
      <point x="436" y="465" type="curve"/>
      <point x="549" y="464" type="line"/>
      <point x="549" y="663"/>
      <point x="408" y="759"/>
      <point x="270" y="759" type="curve"/>
      <point x="141" y="759"/>
      <point x="16" y="674"/>
      <point x="16" y="508" type="curve"/>
      <point x="16" y="423"/>
      <point x="56" y="334"/>
    </contour>
    <contour>
      <point x="424" y="592" type="line"/>
      <point x="424" y="381" type="line"/>
      <point x="571" y="381" type="line"/>
      <point x="571" y="751" type="line"/>
      <point x="424" y="751" type="line"/>
      <point x="432" y="669" type="line"/>
    </contour>
    <contour>
      <point x="266" y="85" type="curve"/>
      <point x="266" y="85" type="line"/>
      <point x="368" y="85"/>
      <point x="430" y="157"/>
      <point x="430" y="273" type="curve"/>
      <point x="430" y="390"/>
      <point x="368" y="461"/>
      <point x="268" y="461" type="curve"/>
      <point x="165" y="461"/>
      <point x="101" y="390"/>
      <point x="101" y="273" type="curve"/>
      <point x="101" y="157"/>
      <point x="165" y="85"/>
    </contour>
    <contour>
      <point x="266" y="208" type="curve"/>
      <point x="266" y="208" type="line"/>
      <point x="244" y="208"/>
      <point x="234" y="229"/>
      <point x="234" y="273" type="curve"/>
      <point x="234" y="317"/>
      <point x="244" y="338"/>
      <point x="266" y="338" type="curve"/>
      <point x="287" y="338"/>
      <point x="297" y="317"/>
      <point x="297" y="273" type="curve"/>
      <point x="297" y="229"/>
      <point x="287" y="208"/>
    </contour>
  </outline>
</glyph>
<glyph name="ttha-oriya" format="2">
  <advance width="608"/>
  <unicode hex="0B20"/>
  <note>
tthaorya
</note>
  <anchor x="294" y="0" name="bottom"/>
  <anchor x="566" y="0" name="bottom_ra"/>
  <anchor x="304" y="658" name="top"/>
  <anchor x="462" y="658" name="topright"/>
  <outline>
    <contour>
      <point x="304" y="-8" type="curve"/>
      <point x="304" y="-8" type="line"/>
      <point x="477" y="-8"/>
      <point x="592" y="127"/>
      <point x="592" y="329" type="curve"/>
      <point x="592" y="531"/>
      <point x="477" y="666"/>
      <point x="304" y="666" type="curve"/>
      <point x="131" y="666"/>
      <point x="16" y="531"/>
      <point x="16" y="329" type="curve"/>
      <point x="16" y="127"/>
      <point x="131" y="-8"/>
    </contour>
    <contour>
      <point x="304" y="138" type="curve"/>
      <point x="304" y="138" type="line"/>
      <point x="222" y="138"/>
      <point x="168" y="214"/>
      <point x="168" y="329" type="curve"/>
      <point x="168" y="444"/>
      <point x="222" y="520"/>
      <point x="304" y="520" type="curve"/>
      <point x="386" y="520"/>
      <point x="440" y="444"/>
      <point x="440" y="329" type="curve"/>
      <point x="440" y="214"/>
      <point x="386" y="138"/>
    </contour>
  </outline>
</glyph>
<glyph name="ttha-oriya.sans" format="2">
  <advance width="608"/>
  <unicode hex="0B20"/>
  <note>
tthaorya
</note>
  <anchor x="294" y="93" name="bottom"/>
  <anchor x="566" y="93" name="bottom_ra"/>
  <anchor x="304" y="751" name="top"/>
  <anchor x="462" y="751" name="topright"/>
  <outline>
    <contour>
      <point x="304" y="85" type="curve"/>
      <point x="304" y="85" type="line"/>
      <point x="477" y="85"/>
      <point x="592" y="220"/>
      <point x="592" y="422" type="curve"/>
      <point x="592" y="624"/>
      <point x="477" y="759"/>
      <point x="304" y="759" type="curve"/>
      <point x="131" y="759"/>
      <point x="16" y="624"/>
      <point x="16" y="422" type="curve"/>
      <point x="16" y="220"/>
      <point x="131" y="85"/>
    </contour>
    <contour>
      <point x="304" y="231" type="curve"/>
      <point x="304" y="231" type="line"/>
      <point x="222" y="231"/>
      <point x="168" y="307"/>
      <point x="168" y="422" type="curve"/>
      <point x="168" y="537"/>
      <point x="222" y="613"/>
      <point x="304" y="613" type="curve"/>
      <point x="386" y="613"/>
      <point x="440" y="537"/>
      <point x="440" y="422" type="curve"/>
      <point x="440" y="307"/>
      <point x="386" y="231"/>
    </contour>
  </outline>
</glyph>
<glyph name="ddha-oriya" format="2">
  <advance width="651"/>
  <unicode hex="0B22"/>
  <note>
ddhaorya
</note>
  <anchor x="214" y="0" name="bottom"/>
  <anchor x="626" y="0" name="bottom_ra"/>
  <anchor x="326" y="-110" name="nukta"/>
  <anchor x="322" y="658" name="top"/>
  <anchor x="505" y="658" name="topright"/>
  <outline>
    <contour>
      <point x="76" y="195" type="curve"/>
      <point x="76" y="195" type="line"/>
      <point x="76" y="60"/>
      <point x="163" y="-8"/>
      <point x="278" y="-8" type="curve"/>
      <point x="434" y="-8"/>
      <point x="500" y="118"/>
      <point x="500" y="215" type="curve"/>
      <point x="500" y="309"/>
      <point x="438" y="357"/>
      <point x="368" y="357" type="curve"/>
      <point x="298" y="357"/>
      <point x="239" y="310"/>
      <point x="239" y="222" type="curve"/>
      <point x="239" y="98"/>
      <point x="355" y="-18"/>
      <point x="515" y="-51" type="curve"/>
      <point x="538" y="70" type="line"/>
      <point x="408" y="87"/>
      <point x="347" y="136"/>
      <point x="347" y="208" type="curve"/>
      <point x="347" y="233"/>
      <point x="356" y="245"/>
      <point x="370" y="245" type="curve"/>
      <point x="384" y="245"/>
      <point x="392" y="233"/>
      <point x="392" y="207" type="curve"/>
      <point x="392" y="162"/>
      <point x="369" y="114"/>
      <point x="295" y="114" type="curve"/>
      <point x="232" y="114"/>
      <point x="205" y="149"/>
      <point x="205" y="206" type="curve"/>
      <point x="205" y="260"/>
      <point x="229" y="315"/>
      <point x="296" y="365" type="curve"/>
      <point x="228" y="446" type="line"/>
      <point x="135" y="387"/>
      <point x="76" y="307"/>
    </contour>
    <contour>
      <point x="141" y="196" type="curve"/>
      <point x="141" y="196" type="line"/>
      <point x="203" y="290" type="line"/>
      <point x="177" y="316"/>
      <point x="164" y="350"/>
      <point x="164" y="385" type="curve"/>
      <point x="164" y="473"/>
      <point x="243" y="520"/>
      <point x="326" y="520" type="curve"/>
      <point x="406" y="520"/>
      <point x="483" y="475"/>
      <point x="483" y="384" type="curve"/>
      <point x="483" y="366"/>
      <point x="480" y="349"/>
      <point x="475" y="331" type="curve"/>
      <point x="618" y="284" type="line"/>
      <point x="630" y="317"/>
      <point x="635" y="354"/>
      <point x="635" y="387" type="curve"/>
      <point x="635" y="572"/>
      <point x="479" y="666"/>
      <point x="323" y="666" type="curve"/>
      <point x="167" y="666"/>
      <point x="16" y="574"/>
      <point x="16" y="404" type="curve"/>
      <point x="16" y="319"/>
      <point x="54" y="244"/>
    </contour>
  </outline>
</glyph>
<glyph name="ddha-oriya.sans" format="2">
  <advance width="651"/>
  <unicode hex="0B22"/>
  <note>
ddhaorya
</note>
  <anchor x="214" y="93" name="bottom"/>
  <anchor x="626" y="93" name="bottom_ra"/>
  <anchor x="326" y="-17" name="nukta"/>
  <anchor x="322" y="751" name="top"/>
  <anchor x="505" y="751" name="topright"/>
  <outline>
    <contour>
      <point x="76" y="288" type="curve"/>
      <point x="76" y="288" type="line"/>
      <point x="76" y="153"/>
      <point x="163" y="85"/>
      <point x="278" y="85" type="curve"/>
      <point x="434" y="85"/>
      <point x="500" y="211"/>
      <point x="500" y="308" type="curve"/>
      <point x="500" y="402"/>
      <point x="438" y="450"/>
      <point x="368" y="450" type="curve"/>
      <point x="298" y="450"/>
      <point x="239" y="403"/>
      <point x="239" y="315" type="curve"/>
      <point x="239" y="191"/>
      <point x="355" y="75"/>
      <point x="515" y="42" type="curve"/>
      <point x="538" y="163" type="line"/>
      <point x="408" y="180"/>
      <point x="347" y="229"/>
      <point x="347" y="301" type="curve"/>
      <point x="347" y="326"/>
      <point x="356" y="338"/>
      <point x="370" y="338" type="curve"/>
      <point x="384" y="338"/>
      <point x="392" y="326"/>
      <point x="392" y="300" type="curve"/>
      <point x="392" y="255"/>
      <point x="369" y="207"/>
      <point x="295" y="207" type="curve"/>
      <point x="232" y="207"/>
      <point x="205" y="242"/>
      <point x="205" y="299" type="curve"/>
      <point x="205" y="353"/>
      <point x="229" y="408"/>
      <point x="296" y="458" type="curve"/>
      <point x="228" y="539" type="line"/>
      <point x="135" y="480"/>
      <point x="76" y="400"/>
    </contour>
    <contour>
      <point x="141" y="289" type="curve"/>
      <point x="141" y="289" type="line"/>
      <point x="203" y="383" type="line"/>
      <point x="177" y="409"/>
      <point x="164" y="443"/>
      <point x="164" y="478" type="curve"/>
      <point x="164" y="566"/>
      <point x="243" y="613"/>
      <point x="326" y="613" type="curve"/>
      <point x="406" y="613"/>
      <point x="483" y="568"/>
      <point x="483" y="477" type="curve"/>
      <point x="483" y="459"/>
      <point x="480" y="442"/>
      <point x="475" y="424" type="curve"/>
      <point x="618" y="377" type="line"/>
      <point x="630" y="410"/>
      <point x="635" y="447"/>
      <point x="635" y="480" type="curve"/>
      <point x="635" y="665"/>
      <point x="479" y="759"/>
      <point x="323" y="759" type="curve"/>
      <point x="167" y="759"/>
      <point x="16" y="667"/>
      <point x="16" y="497" type="curve"/>
      <point x="16" y="412"/>
      <point x="54" y="337"/>
    </contour>
  </outline>
</glyph>
<glyph name="nna-oriya.sans" format="2">
  <advance width="645"/>
  <unicode hex="0B23"/>
  <note>
nnaorya
</note>
  <anchor x="464" y="93" name="bottom"/>
  <anchor x="611" y="93" name="bottom_ra"/>
  <anchor x="324" y="751" name="top"/>
  <anchor x="538" y="751" name="topright"/>
  <outline>
    <contour>
      <point x="16" y="324" type="curve"/>
      <point x="16" y="324" type="line"/>
      <point x="16" y="158"/>
      <point x="135" y="85"/>
      <point x="245" y="85" type="curve"/>
      <point x="341" y="85"/>
      <point x="430" y="140"/>
      <point x="430" y="242" type="curve"/>
      <point x="430" y="340"/>
      <point x="348" y="388"/>
      <point x="249" y="388" type="curve"/>
      <point x="211" y="388"/>
      <point x="177" y="381"/>
      <point x="142" y="367" type="curve"/>
      <point x="151" y="264" type="line"/>
      <point x="171" y="269"/>
      <point x="195" y="273"/>
      <point x="217" y="273" type="curve"/>
      <point x="251" y="273"/>
      <point x="280" y="264"/>
      <point x="280" y="238" type="curve"/>
      <point x="280" y="225"/>
      <point x="267" y="213"/>
      <point x="243" y="213" type="curve"/>
      <point x="210" y="213"/>
      <point x="166" y="234"/>
      <point x="166" y="322" type="curve"/>
      <point x="166" y="414"/>
      <point x="214" y="439"/>
      <point x="261" y="439" type="curve"/>
      <point x="284.571" y="439"/>
      <point x="309.764" y="432.913"/>
      <point x="331.152" y="424.357" type="curve"/>
      <point x="374.767" y="534.605" type="line"/>
      <point x="323.284" y="556.627"/>
      <point x="275.178" y="567"/>
      <point x="233" y="567" type="curve"/>
      <point x="103" y="567"/>
      <point x="16" y="466"/>
    </contour>
    <contour>
      <point x="464" y="592" type="line"/>
      <point x="464" y="93" type="line"/>
      <point x="611" y="93" type="line"/>
      <point x="611" y="751" type="line"/>
      <point x="464" y="751" type="line"/>
      <point x="472" y="665" type="line"/>
    </contour>
    <contour>
      <point x="333" y="631" type="curve"/>
      <point x="333" y="631" type="line"/>
      <point x="397" y="631"/>
      <point x="484" y="574"/>
      <point x="484" y="465" type="curve"/>
      <point x="589" y="464" type="line"/>
      <point x="589" y="658"/>
      <point x="437" y="759"/>
      <point x="309" y="759" type="curve"/>
      <point x="215" y="759"/>
      <point x="134" y="705"/>
      <point x="134" y="594" type="curve"/>
      <point x="134" y="566"/>
      <point x="140" y="535"/>
      <point x="153" y="502" type="curve"/>
      <point x="294" y="484" type="line"/>
      <point x="276" y="513"/>
      <point x="268" y="553"/>
      <point x="268" y="572" type="curve"/>
      <point x="268" y="611"/>
      <point x="297" y="631"/>
    </contour>
  </outline>
</glyph>
<glyph name="tha-oriya" format="2">
  <advance width="614"/>
  <unicode hex="0B25"/>
  <note>
thaorya
</note>
  <anchor x="433" y="0" name="bottom"/>
  <anchor x="580" y="0" name="bottom_ra"/>
  <anchor x="226" y="658" name="top"/>
  <anchor x="507" y="658" name="topright"/>
  <outline>
    <contour>
      <point x="253" y="484" type="curve"/>
      <point x="253" y="484" type="line"/>
      <point x="253" y="434"/>
      <point x="211" y="410"/>
      <point x="176" y="390" type="curve"/>
      <point x="137" y="368" type="line" smooth="yes"/>
      <point x="76" y="333"/>
      <point x="14" y="289"/>
      <point x="14" y="184" type="curve"/>
      <point x="14" y="57"/>
      <point x="108" y="-8"/>
      <point x="221" y="-8" type="curve"/>
      <point x="333" y="-8"/>
      <point x="412" y="25"/>
      <point x="488" y="94" type="curve"/>
      <point x="458" y="283" type="line"/>
      <point x="431" y="199"/>
      <point x="306" y="139"/>
      <point x="228" y="139" type="curve"/>
      <point x="192" y="139"/>
      <point x="166" y="154"/>
      <point x="166" y="186" type="curve"/>
      <point x="166" y="226"/>
      <point x="205" y="247"/>
      <point x="248" y="271" type="curve"/>
      <point x="266" y="281" type="line" smooth="yes"/>
      <point x="328" y="315"/>
      <point x="399" y="364"/>
      <point x="399" y="485" type="curve"/>
      <point x="399" y="601"/>
      <point x="333" y="666"/>
      <point x="226" y="666" type="curve"/>
      <point x="116" y="666"/>
      <point x="42" y="597"/>
      <point x="42" y="490" type="curve"/>
      <point x="42" y="459"/>
      <point x="48" y="428"/>
      <point x="59" y="394" type="curve"/>
      <point x="195.325" y="435.842" type="line"/>
      <point x="190.07" y="453.183"/>
      <point x="187" y="470.208"/>
      <point x="187" y="485" type="curve"/>
      <point x="187" y="514"/>
      <point x="199" y="530"/>
      <point x="220" y="530" type="curve"/>
      <point x="241" y="530"/>
      <point x="253" y="515"/>
    </contour>
    <contour>
      <point x="458" y="149" type="line"/>
      <point x="433" y="0" type="line"/>
      <point x="580" y="0" type="line"/>
      <point x="580" y="658" type="line"/>
      <point x="433" y="658" type="line"/>
      <point x="433" y="209" type="line"/>
    </contour>
  </outline>
</glyph>
